<?xml version="1.0" encoding="iso-8859-1"?>
<!-- Generator: Adobe Illustrator 24.0.1, SVG Export Plug-In . SVG Version: 6.00 Build 0)  -->
<svg version="1.1" id="Layer_1" xmlns="http://www.w3.org/2000/svg" xmlns:xlink="http://www.w3.org/1999/xlink" x="0px" y="0px"
	 viewBox="0 0 500 500" style="enable-background:new 0 0 500 500;" xml:space="preserve">
<path d="M474.526,69.355c-2.13-0.219-4.276-0.219-6.407,0H30.644c-2.804,0.043-5.589,0.463-8.281,1.249l225.769,224.668
	L474.526,69.355z"/>
<path d="M498.126,89.888L270.658,316.56c-5.853,5.822-13.772,9.091-22.027,9.091c-8.255,0-16.174-3.269-22.029-9.091L1.167,91.608
	c-0.693,2.549-1.06,5.175-1.094,7.816v312.651c0,8.292,3.292,16.244,9.152,22.107c5.86,5.864,13.807,9.158,22.094,9.158h437.436
	c8.287,0,16.235-3.294,22.094-9.158c5.859-5.862,9.151-13.815,9.151-22.107V99.424C499.876,96.167,499.244,92.95,498.126,89.888z
	 M52.722,412.075H31.007V389.72l113.577-112.711l22.028,22.043L52.722,412.075z M468.443,412.075H446.57L332.681,299.052
	l22.029-22.043L468.286,389.72L468.443,412.075z"/>
</svg>
