<?xml version="1.0" encoding="utf-8"?>
<!-- Generator: Adobe Illustrator 24.0.1, SVG Export Plug-In . SVG Version: 6.00 Build 0)  -->
<svg version="1.1" id="Layer_1" xmlns="http://www.w3.org/2000/svg" xmlns:xlink="http://www.w3.org/1999/xlink" x="0px" y="0px"
	 viewBox="0 0 500 500" style="enable-background:new 0 0 500 500;" xml:space="preserve">
<style type="text/css">
	.st0{fill:#FFFFFF;}
</style>
<path class="st0" d="M474.5,69.4c-2.1-0.2-4.3-0.2-6.4,0H30.6c-2.8,0-5.6,0.5-8.3,1.2l225.8,224.7L474.5,69.4z"/>
<path class="st0" d="M498.1,89.9L270.7,316.6c-5.9,5.8-13.8,9.1-22,9.1s-16.2-3.3-22-9.1L1.2,91.6c-0.7,2.5-1.1,5.2-1.1,7.8v312.7
	c0,8.3,3.3,16.2,9.2,22.1c5.9,5.9,13.8,9.2,22.1,9.2h437.4c8.3,0,16.2-3.3,22.1-9.2c5.9-5.9,9.2-13.8,9.2-22.1V99.4
	C499.9,96.2,499.2,92.9,498.1,89.9z M52.7,412.1H31v-22.4L144.6,277l22,22L52.7,412.1z M468.4,412.1h-21.9l-113.9-113l22-22
	l113.6,112.7L468.4,412.1z"/>
</svg>
