<?xml version="1.0" encoding="iso-8859-1"?>
<!-- Generator: Adobe Illustrator 24.0.1, SVG Export Plug-In . SVG Version: 6.00 Build 0)  -->
<svg version="1.1" id="Layer_1" xmlns="http://www.w3.org/2000/svg" xmlns:xlink="http://www.w3.org/1999/xlink" x="0px" y="0px"
	 viewBox="0 0 500 500" style="enable-background:new 0 0 500 500;" xml:space="preserve">
<radialGradient id="SVGID_1_" cx="-0.4488" cy="500.5378" r="1.8379" gradientTransform="matrix(1.650652e-14 -269.572 -250.723 -1.535236e-14 125629.4766 417.521)" gradientUnits="userSpaceOnUse">
	<stop  offset="0" style="stop-color:#FFDD55"/>
	<stop  offset="0.1" style="stop-color:#FFDD55"/>
	<stop  offset="0.5" style="stop-color:#FF543E"/>
	<stop  offset="1" style="stop-color:#C837AB"/>
</radialGradient>
<path style="fill:url(#SVGID_1_);" d="M383.085,0.084h-265.58c-64.71,0-117.168,52.458-117.168,117.168v265.58
	C0.337,447.542,52.795,500,117.505,500h265.58c64.71,0,117.168-52.458,117.168-117.168v-265.58
	C500.253,52.542,447.795,0.084,383.085,0.084z"/>
<radialGradient id="SVGID_2_" cx="2.3421" cy="500.9701" r="1.8379" gradientTransform="matrix(23.6507 118.1562 487.0449 -97.4891 -244133.7031 48598.4961)" gradientUnits="userSpaceOnUse">
	<stop  offset="0" style="stop-color:#3771C8"/>
	<stop  offset="0.128" style="stop-color:#3771C8"/>
	<stop  offset="1" style="stop-color:#6600FF;stop-opacity:0"/>
</radialGradient>
<path style="fill:url(#SVGID_2_);" d="M383.085,0.084h-265.58c-64.71,0-117.168,52.458-117.168,117.168v265.58
	C0.337,447.542,52.795,500,117.505,500h265.58c64.71,0,117.168-52.458,117.168-117.168v-265.58
	C500.253,52.542,447.795,0.084,383.085,0.084z"/>
<path style="fill:#FFFFFF;" d="M250.313,54.763c-53.035,0-59.692,0.232-80.52,1.18c-20.79,0.953-34.981,4.243-47.396,9.073
	c-12.846,4.987-23.74,11.66-34.594,22.518c-10.863,10.856-17.536,21.75-22.539,34.59c-4.843,12.42-8.137,26.616-9.073,47.396
	c-0.931,20.83-1.176,27.49-1.176,80.525c0,53.037,0.234,59.672,1.18,80.501c0.957,20.789,4.247,34.979,9.073,47.395
	c4.991,12.847,11.664,23.741,22.522,34.595c10.852,10.862,21.746,17.55,34.582,22.538c12.425,4.83,26.619,8.12,47.404,9.072
	c20.831,0.948,27.483,1.18,80.514,1.18c53.039,0,59.676-0.232,80.503-1.18c20.791-0.952,34.996-4.242,47.422-9.072
	c12.84-4.988,23.718-11.676,34.568-22.538c10.864-10.855,17.536-21.748,22.54-34.588c4.799-12.423,8.096-26.617,9.072-47.398
	c0.935-20.829,1.18-27.468,1.18-80.505c0-53.035-0.244-59.69-1.18-80.522c-0.976-20.789-4.273-34.978-9.072-47.394
	c-5.005-12.846-11.676-23.74-22.54-34.596c-10.86-10.861-21.724-17.534-34.579-22.516c-12.45-4.831-26.648-8.124-47.439-9.075
	c-20.829-0.947-27.46-1.18-80.512-1.18H250.313z M232.794,89.954c5.2-0.008,11.002,0,17.519,0c52.14,0,58.319,0.187,78.91,1.123
	c19.039,0.871,29.374,4.052,36.259,6.725c9.112,3.539,15.609,7.77,22.441,14.607c6.835,6.835,11.064,13.344,14.613,22.457
	c2.672,6.874,5.858,17.208,6.725,36.248c0.936,20.587,1.138,26.77,1.138,78.886s-0.202,58.301-1.138,78.884
	c-0.871,19.041-4.053,29.376-6.725,36.251c-3.54,9.112-7.778,15.602-14.613,22.434c-6.835,6.833-13.325,11.064-22.441,14.604
	c-6.878,2.685-17.22,5.859-36.259,6.729c-20.587,0.935-26.769,1.139-78.91,1.139c-52.144,0-58.325-0.204-78.909-1.139
	c-19.04-0.879-29.374-4.06-36.264-6.732c-9.112-3.54-15.622-7.771-22.457-14.606c-6.835-6.833-11.064-13.327-14.613-22.445
	c-2.673-6.876-5.858-17.21-6.725-36.249c-0.936-20.587-1.123-26.769-1.123-78.919c0-52.147,0.187-58.299,1.123-78.885
	c0.871-19.04,4.052-29.374,6.725-36.257c3.54-9.114,7.778-15.622,14.615-22.457c6.835-6.835,13.343-11.067,22.457-14.613
	c6.884-2.685,17.222-5.858,36.262-6.733c18.015-0.814,24.996-1.058,61.39-1.099V89.954z M354.553,122.378
	c-12.937,0-23.434,10.486-23.434,23.426c0,12.937,10.496,23.434,23.434,23.434s23.434-10.496,23.434-23.434
	c0-12.937-10.496-23.434-23.434-23.434V122.378z M250.313,149.758c-55.382,0-100.285,44.903-100.285,100.286
	c0,55.384,44.903,100.264,100.285,100.264s100.27-44.88,100.27-100.264c0-55.38-44.891-100.286-100.275-100.286H250.313z
	 M250.313,184.95c35.948,0,65.094,29.14,65.094,65.094c0,35.95-29.146,65.094-65.094,65.094c-35.952,0-65.094-29.144-65.094-65.094
	C185.219,214.09,214.361,184.95,250.313,184.95z"/>
</svg>
