<?xml version="1.0" encoding="utf-8"?>
<!-- Generator: Adobe Illustrator 24.0.1, SVG Export Plug-In . SVG Version: 6.00 Build 0)  -->
<svg version="1.1" id="Layer_1" xmlns="http://www.w3.org/2000/svg" xmlns:xlink="http://www.w3.org/1999/xlink" x="0px" y="0px"
	 viewBox="0 0 500 500" style="enable-background:new 0 0 500 500;" xml:space="preserve">
<style type="text/css">
	.st0{fill:#FFFFFF;}
</style>
<path class="st0" d="M250,0c-67.9,0-76.4,0.3-103.1,1.5c-26.6,1.2-44.8,5.4-60.7,11.6C69.8,19.5,55.8,28.1,41.9,42
	C28,55.9,19.5,69.8,13.1,86.3c-6.2,15.9-10.4,34.1-11.6,60.7C0.3,173.6,0,182.1,0,250c0,67.9,0.3,76.4,1.5,103.1
	c1.2,26.6,5.4,44.8,11.6,60.7c6.4,16.4,14.9,30.4,28.8,44.3C55.8,472,69.8,480.6,86.2,487c15.9,6.2,34.1,10.4,60.7,11.6
	c26.7,1.2,35.2,1.5,103.1,1.5c67.9,0,76.4-0.3,103.1-1.5c26.6-1.2,44.8-5.4,60.7-11.6c16.4-6.4,30.4-15,44.3-28.9
	c13.9-13.9,22.5-27.8,28.9-44.3c6.1-15.9,10.4-34.1,11.6-60.7c1.2-26.7,1.5-35.2,1.5-103.1c0-67.9-0.3-76.4-1.5-103.1
	c-1.2-26.6-5.5-44.8-11.6-60.7c-6.4-16.4-15-30.4-28.9-44.3c-13.9-13.9-27.8-22.5-44.3-28.8C397.8,6.9,379.7,2.7,353,1.5
	C326.4,0.3,317.9,0,250,0L250,0L250,0z M227.6,45.1c6.7,0,14.1,0,22.4,0c66.8,0,74.7,0.2,101,1.4c24.4,1.1,37.6,5.2,46.4,8.6
	c11.7,4.5,20,9.9,28.7,18.7c8.8,8.8,14.2,17.1,18.7,28.8c3.4,8.8,7.5,22,8.6,46.4c1.2,26.4,1.5,34.3,1.5,101s-0.3,74.7-1.5,101
	c-1.1,24.4-5.2,37.6-8.6,46.4c-4.5,11.7-10,20-18.7,28.7c-8.8,8.7-17.1,14.2-28.7,18.7c-8.8,3.4-22,7.5-46.4,8.6
	c-26.4,1.2-34.3,1.5-101,1.5c-66.8,0-74.7-0.3-101-1.5c-24.4-1.1-37.6-5.2-46.4-8.6c-11.7-4.5-20-10-28.8-18.7
	c-8.8-8.7-14.2-17.1-18.7-28.7c-3.4-8.8-7.5-22-8.6-46.4c-1.2-26.4-1.4-34.3-1.4-101c0-66.8,0.2-74.6,1.4-101
	c1.1-24.4,5.2-37.6,8.6-46.4c4.5-11.7,10-20,18.7-28.8C82.6,65,90.9,59.6,102.6,55c8.8-3.4,22.1-7.5,46.4-8.6
	C172.1,45.4,181,45.1,227.6,45.1L227.6,45.1L227.6,45.1z M383.5,86.6c-16.6,0-30,13.4-30,30c0,16.6,13.4,30,30,30
	c16.6,0,30-13.4,30-30C413.5,100,400.1,86.6,383.5,86.6L383.5,86.6z M250,121.6c-70.9,0-128.4,57.5-128.4,128.4
	c0,70.9,57.5,128.4,128.4,128.4S378.4,321,378.4,250C378.4,179.1,320.9,121.6,250,121.6L250,121.6z M250,166.7
	c46,0,83.3,37.3,83.3,83.3c0,46-37.3,83.3-83.3,83.3c-46,0-83.3-37.3-83.3-83.3C166.7,204,204,166.7,250,166.7z"/>
</svg>
