<?xml version="1.0" encoding="iso-8859-1"?>
<!-- Generator: Adobe Illustrator 24.0.1, SVG Export Plug-In . SVG Version: 6.00 Build 0)  -->
<svg version="1.1" id="Layer_1" xmlns="http://www.w3.org/2000/svg" xmlns:xlink="http://www.w3.org/1999/xlink" x="0px" y="0px"
	 viewBox="0 0 500 500" style="enable-background:new 0 0 500 500;" xml:space="preserve">
<linearGradient id="SVGID_1_" gradientUnits="userSpaceOnUse" x1="305.7292" y1="-47828.1016" x2="305.7292" y2="347.3603" gradientTransform="matrix(1 0 0 -1 -56 356)">
	<stop  offset="0" style="stop-color:#1FAF38"/>
	<stop  offset="1" style="stop-color:#60D669"/>
</linearGradient>
<path style="fill:url(#SVGID_1_);" d="M11.929,247.348c-0.012,42.066,10.98,83.143,31.881,119.347l-33.88,123.7l126.592-33.191
	c35.014,19.06,74.244,29.048,114.11,29.05h0.104c131.606,0,238.736-107.089,238.792-238.719
	c0.025-63.782-24.792-123.76-69.881-168.884C374.566,33.53,314.61,8.669,250.728,8.64c-131.621,0-238.742,107.085-238.797,238.708"
	/>
<linearGradient id="SVGID_2_" gradientUnits="userSpaceOnUse" x1="305.7303" y1="-49547.1563" x2="305.7303" y2="356" gradientTransform="matrix(1 0 0 -1 -56 356)">
	<stop  offset="0" style="stop-color:#F9F9F9"/>
	<stop  offset="1" style="stop-color:#FFFFFF"/>
</linearGradient>
<path style="fill:url(#SVGID_2_);" d="M3.404,247.269c-0.014,43.58,11.372,86.125,33.018,123.627L1.327,499.032l131.131-34.383
	c36.131,19.7,76.811,30.085,118.205,30.101h0.107c136.326,0,247.303-110.942,247.363-247.283
	c0.022-66.074-25.688-128.208-72.387-174.948C379.041,25.783,316.941,0.027,250.77,0C114.42,0,3.458,110.927,3.404,247.269z
	 M81.495,364.437l-4.896-7.772c-20.582-32.726-31.446-70.546-31.431-109.38c0.045-113.324,92.272-205.522,205.68-205.522
	c54.919,0.023,106.533,21.432,145.354,60.276c38.819,38.848,60.179,90.489,60.166,145.412
	c-0.049,113.325-92.279,205.534-205.597,205.534h-0.081c-36.898-0.019-73.085-9.929-104.644-28.655l-7.51-4.454L60.719,440.28
	l20.776-75.845V364.437z"/>
<path style="fill:#FFFFFF;" d="M188.945,143.895c-4.63-10.291-9.503-10.499-13.907-10.679c-3.605-0.155-7.727-0.144-11.845-0.144
	c-4.122,0-10.819,1.551-16.48,7.732c-5.667,6.187-21.634,21.137-21.634,51.545c0,30.411,22.149,59.797,25.236,63.925
	c3.092,4.121,42.758,68.519,105.582,93.292c52.211,20.589,62.835,16.494,74.166,15.462c11.334-1.029,36.57-14.948,41.718-29.379
	c5.153-14.43,5.153-26.801,3.608-29.386c-1.545-2.575-5.667-4.121-11.848-7.212c-6.181-3.091-36.569-18.043-42.234-20.106
	c-5.665-2.062-9.786-3.091-13.907,3.099c-4.123,6.178-15.959,20.097-19.566,24.218c-3.605,4.133-7.212,4.647-13.391,1.555
	c-6.185-3.101-26.09-9.62-49.705-30.673c-18.374-16.383-30.779-36.615-34.384-42.804c-3.605-6.178-0.387-9.528,2.714-12.607
	c2.777-2.77,6.181-7.218,9.275-10.825c3.082-3.61,4.111-6.185,6.171-10.307c2.064-4.126,1.03-7.736-0.513-10.827
	C206.452,186.683,194.441,156.115,188.945,143.895z"/>
</svg>
