<?xml version="1.0" encoding="utf-8"?>
<!-- Generator: Adobe Illustrator 24.0.1, SVG Export Plug-In . SVG Version: 6.00 Build 0)  -->
<svg version="1.1" id="Layer_1" xmlns="http://www.w3.org/2000/svg" xmlns:xlink="http://www.w3.org/1999/xlink" x="0px" y="0px"
	 viewBox="0 0 500 500" style="enable-background:new 0 0 500 500;" xml:space="preserve">
<style type="text/css">
	.st0{fill:url(#SVGID_1_);}
	.st1{fill:#FFFFFF;}
</style>
<linearGradient id="SVGID_1_" gradientUnits="userSpaceOnUse" x1="305.73" y1="50389.0898" x2="305.73" y2="485.89" gradientTransform="matrix(1 0 0 1 -56 -485.89)">
	<stop  offset="0" style="stop-color:#F9F9F9"/>
	<stop  offset="1" style="stop-color:#FFFFFF"/>
</linearGradient>
<path class="st0" d="M3.4,247.3c0,43.6,11.4,86.1,33,123.6L1.3,499l131.1-34.4c36.1,19.7,76.8,30.1,118.2,30.1h0.1
	c136.3,0,247.3-110.9,247.4-247.3c0-66.1-25.7-128.2-72.4-174.9C379,25.8,316.9,0,250.8,0C114.4,0,3.5,110.9,3.4,247.3z M81.5,364.4
	l-4.9-7.8C56,323.9,45.2,286.1,45.2,247.3c0-113.3,92.3-205.5,205.7-205.5c54.9,0,106.5,21.4,145.4,60.3
	c38.8,38.8,60.2,90.5,60.2,145.4c0,113.3-92.3,205.5-205.6,205.5h-0.1c-36.9,0-73.1-9.9-104.6-28.7l-7.5-4.5l-77.8,20.4L81.5,364.4
	L81.5,364.4z"/>
<path class="st1" d="M188.9,143.9c-4.6-10.3-9.5-10.5-13.9-10.7c-3.6-0.2-7.7-0.1-11.8-0.1c-4.1,0-10.8,1.6-16.5,7.7
	c-5.7,6.2-21.6,21.1-21.6,51.5c0,30.4,22.1,59.8,25.2,63.9c3.1,4.1,42.8,68.5,105.6,93.3c52.2,20.6,62.8,16.5,74.2,15.5
	c11.3-1,36.6-14.9,41.7-29.4c5.2-14.4,5.2-26.8,3.6-29.4c-1.5-2.6-5.7-4.1-11.8-7.2s-36.6-18-42.2-20.1c-5.7-2.1-9.8-3.1-13.9,3.1
	c-4.1,6.2-16,20.1-19.6,24.2c-3.6,4.1-7.2,4.6-13.4,1.6c-6.2-3.1-26.1-9.6-49.7-30.7c-18.4-16.4-30.8-36.6-34.4-42.8
	c-3.6-6.2-0.4-9.5,2.7-12.6c2.8-2.8,6.2-7.2,9.3-10.8c3.1-3.6,4.1-6.2,6.2-10.3c2.1-4.1,1-7.7-0.5-10.8
	C206.5,186.7,194.4,156.1,188.9,143.9z"/>
</svg>
