<?xml version="1.0" encoding="iso-8859-1"?>
<!-- Generator: Adobe Illustrator 24.0.1, SVG Export Plug-In . SVG Version: 6.00 Build 0)  -->
<svg version="1.1" id="Layer_1" xmlns="http://www.w3.org/2000/svg" xmlns:xlink="http://www.w3.org/1999/xlink" x="0px" y="0px"
	 viewBox="0 0 500 500" style="enable-background:new 0 0 500 500;" xml:space="preserve">
<path style="fill-rule:evenodd;clip-rule:evenodd;" d="M25.985,70c-6.97,0-13.654,2.769-18.582,7.697
	c-4.928,4.928-7.697,11.612-7.697,18.582c0,6.97,2.769,13.654,7.697,18.582c4.928,4.928,11.612,7.697,18.582,7.697h446.736
	c6.97,0,13.654-2.769,18.583-7.697c4.928-4.928,7.697-11.612,7.697-18.582c0-6.97-2.769-13.654-7.697-18.582
	C486.374,72.769,479.69,70,472.721,70H25.985z M-0.294,253.95c0-6.97,2.769-13.654,7.697-18.581
	c4.928-4.929,11.612-7.697,18.582-7.697h446.736c6.97,0,13.654,2.768,18.583,7.697c4.928,4.928,7.697,11.612,7.697,18.581
	s-2.769,13.654-7.697,18.581c-4.929,4.929-11.613,7.697-18.583,7.697H25.985c-6.97,0-13.654-2.768-18.582-7.697
	C2.475,267.604-0.294,260.92-0.294,253.95z M-0.294,411.648c0-6.97,2.769-13.654,7.697-18.581
	c4.928-4.929,11.612-7.697,18.582-7.697h446.736c6.97,0,13.654,2.768,18.583,7.697c4.928,4.928,7.697,11.612,7.697,18.581
	c0,6.97-2.769,13.654-7.697,18.581c-4.929,4.929-11.613,7.697-18.583,7.697H25.985c-6.97,0-13.654-2.768-18.582-7.697
	C2.475,425.302-0.294,418.618-0.294,411.648z"/>
</svg>
