<?xml version="1.0" encoding="utf-8"?>
<!-- Generator: Adobe Illustrator 24.0.1, SVG Export Plug-In . SVG Version: 6.00 Build 0)  -->
<svg version="1.1" id="Layer_1" xmlns="http://www.w3.org/2000/svg" xmlns:xlink="http://www.w3.org/1999/xlink" x="0px" y="0px"
	 viewBox="0 0 500 500" style="enable-background:new 0 0 500 500;" xml:space="preserve">
<style type="text/css">
	.st0{fill:#FFFFFF;}
</style>
<path class="st0" d="M45.6,414.1c-12.5,0-23.2-4.5-32.1-13.5S0.2,380.8,0.2,368.2V138.3c0-12.6,4.5-23.5,13.4-32.5
	s19.6-13.5,32.1-13.5h227.2c12.5,0,23.2,4.5,32.1,13.5s13.4,19.8,13.3,32.5v229.9c0,12.6-4.5,23.5-13.4,32.5
	c-8.9,9-19.6,13.5-32.1,13.5L45.6,414.1L45.6,414.1z M386.4,230.2c-6.4,0-11.8-2.2-16.2-6.6c-4.4-4.4-6.5-9.9-6.5-16.4v-91.9
	c0-6.5,2.2-12,6.5-16.4c4.4-4.4,9.8-6.6,16.2-6.6h90.9c6.4,0,11.8,2.2,16.2,6.6c4.4,4.4,6.5,9.9,6.5,16.4v91.9
	c0,6.5-2.2,12-6.5,16.4c-4.4,4.4-9.8,6.6-16.2,6.6H386.4z M68.3,322.2h181.8l-59.6-80.5l-42.6,57.5l-31.2-42L68.3,322.2z
	 M386.4,414.1c-6.4,0-11.8-2.2-16.2-6.6c-4.4-4.4-6.5-9.9-6.5-16.4v-91.9c0-6.5,2.2-12,6.5-16.4c4.4-4.4,9.8-6.6,16.2-6.6h90.9
	c6.4,0,11.8,2.2,16.2,6.6c4.4,4.4,6.5,9.9,6.5,16.4v91.9c0,6.5-2.2,12-6.5,16.4c-4.4,4.4-9.8,6.6-16.2,6.6H386.4z"/>
</svg>
