<?xml version="1.0" encoding="utf-8"?>
<!-- Generator: Adobe Illustrator 24.0.1, SVG Export Plug-In . SVG Version: 6.00 Build 0)  -->
<svg version="1.1" id="Layer_1" xmlns="http://www.w3.org/2000/svg" xmlns:xlink="http://www.w3.org/1999/xlink" x="0px" y="0px"
	 viewBox="0 0 500 500" style="enable-background:new 0 0 500 500;" xml:space="preserve">
<style type="text/css">
	.st0{fill:#FFFFFF;}
</style>
<path class="st0" d="M499.9,278.7c-3.9-100.6-89-182.4-189.7-182.4H120.5l17.6-15.1c13.7-11.7,15.3-32.3,3.5-46
	c-11.7-13.7-32.3-15.3-46-3.5l-84.6,72.5c-0.3,0.3-0.5,0.6-0.8,0.8c-0.9,0.8-1.7,1.7-2.5,2.7c-0.6,0.7-1.2,1.4-1.8,2.2
	c-0.7,1-1.3,2.1-1.9,3.2c-0.5,0.8-0.9,1.6-1.3,2.4c-0.5,1.1-0.9,2.3-1.3,3.5c-0.3,0.9-0.6,1.7-0.8,2.7c-0.3,1.2-0.4,2.4-0.5,3.6
	c-0.1,0.8-0.3,1.6-0.3,2.4c0,0.2,0,0.4,0,0.6c0,0.2-0.1,0.4-0.1,0.6c0,1,0.2,2,0.3,3c0.1,1,0.1,2,0.3,3c0.2,1.3,0.7,2.6,1.1,3.8
	c0.3,0.8,0.4,1.6,0.7,2.4c0.6,1.4,1.3,2.7,2.1,4c0.3,0.6,0.6,1.2,1,1.8c1.2,1.8,2.6,3.5,4.1,5.1l84.6,84.6
	c6.4,6.4,14.7,9.6,23.1,9.6c8.3,0,16.7-3.2,23.1-9.6c12.7-12.7,12.7-33.4,0-46.1l-28.9-28.9h199.1c66.1,0,121.9,53.7,124.5,119.7
	c1.3,33.5-11.2,65.6-35.1,90.5c-23.7,24.6-56.2,38.7-89.3,38.7H104.8c-18,0-32.6,14.6-32.6,32.6s14.6,32.6,32.6,32.6h205.4
	c50.8,0,100.5-21.4,136.4-58.7C482.4,379.7,501.8,329.3,499.9,278.7z"/>
</svg>
