<?xml version="1.0" encoding="utf-8"?>
<!-- Generator: Adobe Illustrator 24.0.1, SVG Export Plug-In . SVG Version: 6.00 Build 0)  -->
<svg version="1.1" id="Layer_1" xmlns="http://www.w3.org/2000/svg" xmlns:xlink="http://www.w3.org/1999/xlink" x="0px" y="0px"
	 viewBox="0 0 500 500" style="enable-background:new 0 0 500 500;" xml:space="preserve">
<style type="text/css">
	.st0{fill:#FFFFFF;}
</style>
<path class="st0" d="M500,129.5V99.7c0-2.6-0.5-5.2-1.5-7.6c-1-2.4-2.5-4.6-4.3-6.4s-4.1-3.3-6.5-4.3c-2.4-1-5-1.5-7.6-1.5H20.2
	c-2.6,0-5.2,0.5-7.7,1.5c-2.4,1-4.6,2.5-6.5,4.3s-3.3,4-4.3,6.4s-1.5,5-1.5,7.6v29.8h50v49.6h-50v49.6h50v49.6h-50v49.6h50v49.6h-50
	v29.7c0,2.6,0.5,5.2,1.5,7.6s2.5,4.6,4.3,6.4s4.1,3.3,6.5,4.3c2.4,1,5,1.5,7.7,1.5H480c2.6,0,5.2-0.5,7.6-1.5s4.6-2.5,6.5-4.3
	c1.9-1.8,3.3-4,4.3-6.4c1-2.4,1.5-5,1.5-7.6v-29.7h-50v-49.6h50v-49.6h-50v-49.6h50v-49.6h-50v-49.6L500,129.5L500,129.5z
	 M200.1,327.8V179.1l125,74.4L200.1,327.8z"/>
</svg>
