<?xml version="1.0" encoding="iso-8859-1"?>
<!-- Generator: Adobe Illustrator 24.0.1, SVG Export Plug-In . SVG Version: 6.00 Build 0)  -->
<svg version="1.1" id="Layer_1" xmlns="http://www.w3.org/2000/svg" xmlns:xlink="http://www.w3.org/1999/xlink" x="0px" y="0px"
	 viewBox="0 0 500 500" style="enable-background:new 0 0 500 500;" xml:space="preserve">
<path d="M45.608,414.135c-12.496,0-23.197-4.505-32.103-13.516c-8.906-9.011-13.352-19.83-13.336-32.457V138.299
	c0-12.643,4.453-23.469,13.359-32.48c8.906-9.011,19.599-13.508,32.08-13.493h227.196c12.496,0,23.197,4.505,32.103,13.516
	c8.906,9.011,13.352,19.83,13.337,32.457v229.864c0,12.643-4.453,23.469-13.359,32.48c-8.906,9.011-19.6,13.508-32.08,13.493H45.608
	z M386.401,230.244c-6.436,0-11.835-2.207-16.2-6.62c-4.362-4.413-6.535-9.869-6.518-16.366v-91.945
	c0-6.513,2.181-11.976,6.542-16.389c4.362-4.413,9.754-6.612,16.176-6.597h90.88c6.436,0,11.835,2.207,16.197,6.62
	c4.365,4.413,6.535,9.869,6.522,16.366v91.945c0,6.513-2.181,11.976-6.542,16.389c-4.362,4.414-9.754,6.612-16.176,6.597H386.401z
	 M68.327,322.19h181.757l-59.639-80.452l-42.599,57.466l-31.239-41.95L68.327,322.19z M386.401,414.135
	c-6.436,0-11.835-2.207-16.2-6.62c-4.362-4.414-6.535-9.869-6.518-16.366v-91.945c0-6.513,2.181-11.976,6.542-16.389
	c4.362-4.414,9.754-6.612,16.176-6.597h90.88c6.436,0,11.835,2.207,16.197,6.62c4.365,4.413,6.535,9.869,6.522,16.366v91.945
	c0,6.513-2.181,11.976-6.542,16.389c-4.362,4.413-9.754,6.613-16.176,6.597H386.401z"/>
</svg>
