<?xml version="1.0" encoding="iso-8859-1"?>
<!-- Generator: Adobe Illustrator 24.0.1, SVG Export Plug-In . SVG Version: 6.00 Build 0)  -->
<svg version="1.1" id="Layer_1" xmlns="http://www.w3.org/2000/svg" xmlns:xlink="http://www.w3.org/1999/xlink" x="0px" y="0px"
	 viewBox="0 0 500 500" style="enable-background:new 0 0 500 500;" xml:space="preserve">
<path d="M499.863,278.671C495.94,178.077,410.851,96.242,310.187,96.242H120.504l17.625-15.108
	c13.681-11.727,15.267-32.326,3.537-46.011c-11.73-13.681-32.33-15.271-46.011-3.537l-84.593,72.512
	c-0.3,0.257-0.516,0.583-0.805,0.849c-0.908,0.836-1.728,1.742-2.536,2.675c-0.619,0.716-1.244,1.412-1.795,2.175
	c-0.727,1.003-1.338,2.075-1.949,3.16c-0.451,0.803-0.93,1.579-1.312,2.417c-0.52,1.14-0.898,2.34-1.286,3.546
	c-0.285,0.884-0.614,1.743-0.823,2.652c-0.27,1.177-0.378,2.399-0.516,3.62c-0.093,0.814-0.315,1.601-0.346,2.426
	c-0.008,0.207,0.044,0.406,0.04,0.613c-0.004,0.219-0.065,0.421-0.065,0.641c0,1.019,0.208,1.979,0.3,2.974
	c0.093,1.007,0.118,2.017,0.303,3.006c0.247,1.327,0.666,2.578,1.068,3.843c0.255,0.805,0.432,1.63,0.749,2.412
	c0.566,1.395,1.305,2.686,2.05,3.977c0.34,0.59,0.594,1.219,0.971,1.788c1.212,1.827,2.582,3.538,4.127,5.081l84.582,84.589
	c6.373,6.373,14.722,9.56,23.074,9.56c8.349,0,16.701-3.187,23.071-9.556c12.746-12.743,12.746-33.402,0.004-46.145l-28.897-28.899
	h199.117c66.054,0,121.89,53.701,124.464,119.709c1.307,33.484-11.164,65.644-35.116,90.548
	c-23.659,24.597-56.222,38.703-89.348,38.703H104.79c-18.022,0-32.631,14.609-32.631,32.631c0,18.022,14.609,32.631,32.631,32.631
	h205.396c50.78,0,100.491-21.407,136.386-58.729C482.414,379.728,501.838,329.309,499.863,278.671z"/>
</svg>
