<?xml version="1.0" encoding="iso-8859-1"?>
<!-- Generator: Adobe Illustrator 24.0.1, SVG Export Plug-In . SVG Version: 6.00 Build 0)  -->
<svg version="1.1" id="Layer_1" xmlns="http://www.w3.org/2000/svg" xmlns:xlink="http://www.w3.org/1999/xlink" x="0px" y="0px"
	 viewBox="0 0 500 500" style="enable-background:new 0 0 500 500;" xml:space="preserve">
<path d="M500,129.469v-29.78c0.004-2.603-0.512-5.18-1.515-7.586c-1-2.405-2.472-4.591-4.327-6.431
	c-1.855-1.84-4.057-3.3-6.482-4.294c-2.425-0.994-5.022-1.505-7.646-1.501H20.187c-2.626-0.003-5.226,0.507-7.653,1.501
	c-2.427,0.994-4.633,2.452-6.492,4.292c-1.859,1.84-3.334,4.025-4.342,6.43c-1.008,2.405-1.528,4.984-1.531,7.589v29.78h49.983
	v49.593H0.168v49.593h49.983v49.593H0.168v49.593h49.983v49.593H0.168v29.731c-0.003,2.609,0.512,5.193,1.517,7.604
	c1.005,2.411,2.479,4.602,4.339,6.447c1.86,1.845,4.068,3.308,6.498,4.305c2.43,0.997,5.035,1.509,7.665,1.505H480.03
	c2.628-0.003,5.225-0.519,7.65-1.519c2.425-1,4.627-2.464,6.482-4.308c1.855-1.844,3.323-4.033,4.327-6.441
	c1-2.408,1.515-4.988,1.511-7.593v-29.731h-49.983V327.84H500v-49.593h-49.983v-49.593H500v-49.593h-49.983v-49.593H500z
	 M200.101,327.84V179.062l124.958,74.389L200.101,327.84z"/>
</svg>
