<?xml version="1.0" encoding="utf-8"?>
<!-- Generator: Adobe Illustrator 24.0.1, SVG Export Plug-In . SVG Version: 6.00 Build 0)  -->
<svg version="1.1" id="Layer_1" xmlns="http://www.w3.org/2000/svg" xmlns:xlink="http://www.w3.org/1999/xlink" x="0px" y="0px"
	 viewBox="0 0 500 500" style="enable-background:new 0 0 500 500;" xml:space="preserve">
<style type="text/css">
	.st0{fill:#FFFFFF;}
</style>
<path class="st0" d="M250,105.9c-38.7,0-43.6,0.2-58.8,0.9c-15.2,0.7-25.5,3.1-34.6,6.6c-9.4,3.6-17.3,8.5-25.3,16.4
	c-7.9,7.9-12.8,15.9-16.5,25.3c-3.5,9.1-5.9,19.4-6.6,34.6c-0.7,15.2-0.9,20.1-0.9,58.8s0.2,43.6,0.9,58.8
	c0.7,15.2,3.1,25.5,6.6,34.6c3.6,9.4,8.5,17.3,16.4,25.3c7.9,7.9,15.9,12.8,25.2,16.5c9.1,3.5,19.4,5.9,34.6,6.6
	c15.2,0.7,20.1,0.9,58.8,0.9s43.6-0.2,58.8-0.9c15.2-0.7,25.6-3.1,34.6-6.6c9.4-3.6,17.3-8.5,25.2-16.5c7.9-7.9,12.8-15.9,16.5-25.3
	c3.5-9.1,5.9-19.4,6.6-34.6s0.9-20.1,0.9-58.8s-0.2-43.6-0.9-58.8c-0.7-15.2-3.1-25.5-6.6-34.6c-3.7-9.4-8.5-17.3-16.5-25.3
	c-7.9-7.9-15.9-12.8-25.2-16.4c-9.1-3.5-19.5-5.9-34.6-6.6C293.5,106.1,288.7,105.9,250,105.9L250,105.9L250,105.9z M237.2,131.6
	c3.8,0,8,0,12.8,0c38.1,0,42.6,0.1,57.6,0.8c13.9,0.6,21.4,3,26.5,4.9c6.7,2.6,11.4,5.7,16.4,10.7s8.1,9.7,10.7,16.4
	c2,5,4.3,12.6,4.9,26.5c0.7,15,0.8,19.5,0.8,57.6s-0.1,42.6-0.8,57.6c-0.6,13.9-3,21.4-4.9,26.5c-2.6,6.7-5.7,11.4-10.7,16.4
	s-9.7,8.1-16.4,10.7c-5,2-12.6,4.3-26.5,4.9c-15,0.7-19.5,0.8-57.6,0.8s-42.6-0.1-57.6-0.8c-13.9-0.6-21.4-3-26.5-4.9
	c-6.7-2.6-11.4-5.7-16.4-10.7s-8.1-9.7-10.7-16.4c-2-5-4.3-12.6-4.9-26.5c-0.7-15-0.8-19.5-0.8-57.6s0.1-42.6,0.8-57.6
	c0.6-13.9,3-21.4,4.9-26.5c2.6-6.7,5.7-11.4,10.7-16.4s9.7-8.1,16.4-10.7c5-2,12.6-4.3,26.5-4.9
	C205.6,131.8,210.7,131.6,237.2,131.6L237.2,131.6L237.2,131.6z M326.1,155.3c-9.4,0-17.1,7.7-17.1,17.1c0,9.4,7.7,17.1,17.1,17.1
	s17.1-7.7,17.1-17.1C343.2,162.9,335.6,155.2,326.1,155.3L326.1,155.3z M250,175.2c-40.4,0-73.2,32.8-73.2,73.2s32.8,73.2,73.2,73.2
	s73.2-32.8,73.2-73.2S290.4,175.2,250,175.2L250,175.2z M250,200.9c26.2,0,47.5,21.3,47.5,47.5s-21.3,47.5-47.5,47.5
	s-47.5-21.3-47.5-47.5S223.8,200.9,250,200.9z"/>
</svg>
