<?xml version="1.0" encoding="iso-8859-1"?>
<!-- Generator: Adobe Illustrator 24.0.1, SVG Export Plug-In . SVG Version: 6.00 Build 0)  -->
<svg version="1.1" id="Layer_1" xmlns="http://www.w3.org/2000/svg" xmlns:xlink="http://www.w3.org/1999/xlink" x="0px" y="0px"
	 viewBox="0 0 1000 1000" style="enable-background:new 0 0 1000 1000;" xml:space="preserve">
<ellipse style="opacity:0.5;fill:#727272;" cx="503" cy="871.5" rx="444" ry="22.5"/>
<circle style="fill:#FF1A51;stroke:#353535;stroke-width:10;stroke-miterlimit:10;" cx="161" cy="764" r="114"/>
<path style="fill:#FF1A51;stroke:#FFFFFF;stroke-width:10;stroke-linecap:round;stroke-linejoin:round;stroke-miterlimit:10;" d="
	M151,671c0,0,100.5-10,100.5,100.5"/>
<circle style="fill:#FF1A51;stroke:#353535;stroke-width:10;stroke-miterlimit:10;" cx="389" cy="764" r="114"/>
<path style="fill:#FF1A51;stroke:#FFFFFF;stroke-width:10;stroke-linecap:round;stroke-linejoin:round;stroke-miterlimit:10;" d="
	M379,671c0,0,100.5-10,100.5,100.5"/>
<circle style="fill:#FF1A51;stroke:#353535;stroke-width:10;stroke-miterlimit:10;" cx="617" cy="764" r="114"/>
<path style="fill:#FF1A51;stroke:#FFFFFF;stroke-width:10;stroke-linecap:round;stroke-linejoin:round;stroke-miterlimit:10;" d="
	M607,671c0,0,100.5-10,100.5,100.5"/>
<circle style="fill:#FF1A51;stroke:#353535;stroke-width:10;stroke-miterlimit:10;" cx="845" cy="764" r="114"/>
<path style="fill:#FF1A51;stroke:#FFFFFF;stroke-width:10;stroke-linecap:round;stroke-linejoin:round;stroke-miterlimit:10;" d="
	M835,671c0,0,100.5-10,100.5,100.5"/>
<g>
	<circle style="fill:#FF1A51;stroke:#353535;stroke-width:10;stroke-miterlimit:10;" cx="731" cy="566" r="114"/>
	<path style="fill:#FF1A51;stroke:#FFFFFF;stroke-width:10;stroke-linecap:round;stroke-linejoin:round;stroke-miterlimit:10;" d="
		M721,473c0,0,100.5-10,100.5,100.5"/>
</g>
<g>
	<circle style="fill:#FF1A51;stroke:#353535;stroke-width:10;stroke-miterlimit:10;" cx="617" cy="366" r="114"/>
	<path style="fill:#FF1A51;stroke:#FFFFFF;stroke-width:10;stroke-linecap:round;stroke-linejoin:round;stroke-miterlimit:10;" d="
		M607,273c0,0,100.5-10,100.5,100.5"/>
</g>
<g>
	<circle style="fill:#FF1A51;stroke:#353535;stroke-width:10;stroke-miterlimit:10;" cx="503" cy="169" r="114"/>
	<path style="fill:#FF1A51;stroke:#FFFFFF;stroke-width:10;stroke-linecap:round;stroke-linejoin:round;stroke-miterlimit:10;" d="
		M493,76c0,0,100.5-10,100.5,100.5"/>
</g>
<g>
	<circle style="fill:#FF1A51;stroke:#353535;stroke-width:10;stroke-miterlimit:10;" cx="389" cy="366" r="114"/>
	<path style="fill:#FF1A51;stroke:#FFFFFF;stroke-width:10;stroke-linecap:round;stroke-linejoin:round;stroke-miterlimit:10;" d="
		M379,273c0,0,100.5-10,100.5,100.5"/>
</g>
<circle style="fill:#FF1A51;stroke:#353535;stroke-width:10;stroke-miterlimit:10;" cx="503" cy="566" r="114"/>
<path style="fill:#FF1A51;stroke:#FFFFFF;stroke-width:10;stroke-linecap:round;stroke-linejoin:round;stroke-miterlimit:10;" d="
	M493,473c0,0,100.5-10,100.5,100.5"/>
<circle style="fill:#FF1A51;stroke:#353535;stroke-width:10;stroke-miterlimit:10;" cx="275" cy="566" r="114"/>
<path style="fill:#FF1A51;stroke:#FFFFFF;stroke-width:10;stroke-linecap:round;stroke-linejoin:round;stroke-miterlimit:10;" d="
	M265,473c0,0,100.5-10,100.5,100.5"/>
</svg>
