<?xml version="1.0" encoding="iso-8859-1"?>
<!-- Generator: Adobe Illustrator 24.0.1, SVG Export Plug-In . SVG Version: 6.00 Build 0)  -->
<svg version="1.1" id="Layer_1" xmlns="http://www.w3.org/2000/svg" xmlns:xlink="http://www.w3.org/1999/xlink" x="0px" y="0px"
	 viewBox="0 0 125.311 100" style="enable-background:new 0 0 125.311 100;" xml:space="preserve">
<g>
	
		<linearGradient id="SVGID_1_" gradientUnits="userSpaceOnUse" x1="-4167.7783" y1="16.1416" x2="-4165.4971" y2="16.1416" gradientTransform="matrix(-1 0 0 1 -4089.2766 0)">
		<stop  offset="0" style="stop-color:#943ADE"/>
		<stop  offset="1" style="stop-color:#531ED9"/>
	</linearGradient>
	<path style="fill:url(#SVGID_1_);" d="M77.54,14.402c0,0-0.532,0.771,0.339,1.673c0.871,0.902,0.574,1.377,0.574,1.377
		l-0.484,0.438c0,0,0.011,0.363-0.68-0.224c-0.691-0.587-1.574-2.73-0.709-3.107C77.739,14.051,77.54,14.402,77.54,14.402z"/>
	
		<linearGradient id="SVGID_2_" gradientUnits="userSpaceOnUse" x1="-4168.6543" y1="14.8659" x2="-4165.6196" y2="14.8659" gradientTransform="matrix(-1 0 0 1 -4089.2766 0)">
		<stop  offset="0" style="stop-color:#B459FF"/>
		<stop  offset="1" style="stop-color:#7C48FF"/>
	</linearGradient>
	<path style="fill:url(#SVGID_2_);" d="M76.343,14.764c0,0,0.324-0.536,0.994-0.985c0.326-0.219,1.534-0.063,2,0.972
		c0,0,0.132,0.125-0.084,0.557c-0.216,0.432-0.402,0.758-0.543,0.73c0,0-0.039-0.327-0.346-0.637
		c-0.194-0.195-0.364-0.289-0.793-0.513C76.88,14.526,76.448,14.591,76.343,14.764z"/>
	
		<linearGradient id="SVGID_3_" gradientUnits="userSpaceOnUse" x1="-4168.0479" y1="16.5759" x2="-4164.0581" y2="16.5759" gradientTransform="matrix(-1 0 0 1 -4089.2766 0)">
		<stop  offset="0" style="stop-color:#B459FF"/>
		<stop  offset="1" style="stop-color:#7C48FF"/>
	</linearGradient>
	<path style="fill:url(#SVGID_3_);" d="M77.889,17.994c0,0,0.256,0.062,0.737-0.709c0.221-0.354,0.192-0.822-0.096-1.124
		c-0.1-0.105-0.228-0.221-0.392-0.346c-0.863-0.657-1.86-0.832-2.264-0.48c-0.822,0.716-1.035,1.153-1.092,1.377
		c0,0,0.32-0.735,1.443-0.433C77.505,16.623,78.289,17.685,77.889,17.994z"/>
</g>
<linearGradient id="SVGID_4_" gradientUnits="userSpaceOnUse" x1="-4149.917" y1="19.6036" x2="-4146.3809" y2="19.6036" gradientTransform="matrix(-1 0 0 1 -4089.2766 0)">
	<stop  offset="0" style="stop-color:#B459FF"/>
	<stop  offset="1" style="stop-color:#7C48FF"/>
</linearGradient>
<path style="fill:url(#SVGID_4_);" d="M60.582,18.964c0,0-0.239,0.554-1.129,0.846c-0.89,0.292-1.541-0.029-2.348,1.073
	c0,0,0.257-1.154,1.287-1.543c1.03-0.389,1.799-0.168,2.249-1.016L60.582,18.964z"/>
<linearGradient id="SVGID_5_" gradientUnits="userSpaceOnUse" x1="-4105.7007" y1="22.4296" x2="-4102.2988" y2="22.4296" gradientTransform="matrix(-1 0 0 1 -4089.2766 0)">
	<stop  offset="0" style="stop-color:#FF616D"/>
	<stop  offset="1" style="stop-color:#FF3B5D"/>
</linearGradient>
<path style="fill:url(#SVGID_5_);" d="M13.022,22.909c1.221-0.544,1.798-0.954,2.713-1.928c0.276,0.388,0.413,0.581,0.689,0.969
	c-0.914,0.974-1.492,1.385-2.713,1.928C13.436,23.49,13.298,23.297,13.022,22.909z"/>
<linearGradient id="SVGID_6_" gradientUnits="userSpaceOnUse" x1="-4134.0889" y1="9.7591" x2="-4131.7329" y2="9.7591" gradientTransform="matrix(-1 0 0 1 -4089.2766 0)">
	<stop  offset="0" style="stop-color:#FF616D"/>
	<stop  offset="1" style="stop-color:#FF3B5D"/>
</linearGradient>
<path style="fill:url(#SVGID_6_);" d="M44.699,6.983c-0.393,2.179-0.369,3.351,0.113,5.512c-0.788,0.016-1.181,0.024-1.969,0.041
	c-0.482-2.161-0.507-3.334-0.113-5.512C43.518,7.007,43.912,6.999,44.699,6.983z"/>
<linearGradient id="SVGID_7_" gradientUnits="userSpaceOnUse" x1="-4185.6001" y1="6.1514" x2="-4182.2769" y2="6.1514" gradientTransform="matrix(-1 0 0 1 -4089.2766 0)">
	<stop  offset="0" style="stop-color:#FF616D"/>
	<stop  offset="1" style="stop-color:#FF3B5D"/>
</linearGradient>
<path style="fill:url(#SVGID_7_);" d="M93.83,4.545c0.797,1.112,1.328,1.606,2.494,2.321c-0.332,0.357-0.498,0.535-0.83,0.891
	C94.328,7.042,93.797,6.548,93,5.436C93.332,5.08,93.498,4.901,93.83,4.545z"/>
<linearGradient id="SVGID_8_" gradientUnits="userSpaceOnUse" x1="-4094.6606" y1="42.3275" x2="-4093.136" y2="42.3275" gradientTransform="matrix(-1 0 0 1 -4089.2766 0)">
	<stop  offset="0" style="stop-color:#FF9D00"/>
	<stop  offset="1" style="stop-color:#FFCB00"/>
</linearGradient>
<path style="fill:url(#SVGID_8_);" d="M3.859,41.88c0.522,0.418,0.749,0.69,1.068,1.278c0.182-0.153,0.274-0.229,0.456-0.382
	c-0.319-0.588-0.546-0.859-1.068-1.278C4.133,41.651,4.042,41.727,3.859,41.88z"/>
<linearGradient id="SVGID_9_" gradientUnits="userSpaceOnUse" x1="-4143.8477" y1="36.64" x2="-4142.8521" y2="36.64" gradientTransform="matrix(-1 0 0 1 -4089.2766 0)">
	<stop  offset="0" style="stop-color:#FF9D00"/>
	<stop  offset="1" style="stop-color:#FFCB00"/>
</linearGradient>
<path style="fill:url(#SVGID_9_);" d="M53.575,36.213c0.326,0.373,0.456,0.601,0.612,1.072c0.153-0.087,0.23-0.131,0.383-0.219
	c-0.156-0.47-0.286-0.699-0.613-1.072C53.805,36.082,53.729,36.126,53.575,36.213z"/>
<linearGradient id="SVGID_10_" gradientUnits="userSpaceOnUse" x1="-4099.1641" y1="21.5041" x2="-4098.6621" y2="21.5041" gradientTransform="matrix(-1 0 0 1 -4089.2766 0)">
	<stop  offset="0" style="stop-color:#FF616D"/>
	<stop  offset="1" style="stop-color:#FF3B5D"/>
</linearGradient>
<path style="fill:url(#SVGID_10_);" d="M9.769,21.291c-0.124,0.13-0.206,0.174-0.384,0.206c0.048,0.088,0.071,0.132,0.118,0.22
	c0.177-0.032,0.259-0.076,0.384-0.206C9.84,21.423,9.816,21.379,9.769,21.291z"/>
<linearGradient id="SVGID_11_" gradientUnits="userSpaceOnUse" x1="-4092.5022" y1="6.8215" x2="-4090.7478" y2="6.8215" gradientTransform="matrix(-1 0 0 1 -4089.2766 0)">
	<stop  offset="0" style="stop-color:#FF616D"/>
	<stop  offset="1" style="stop-color:#FF3B5D"/>
</linearGradient>
<path style="fill:url(#SVGID_11_);" d="M3.226,7.434C2.7,6.874,2.532,6.517,2.436,5.755C2.05,5.936,1.857,6.027,1.471,6.208
	c0.097,0.762,0.265,1.119,0.79,1.68C2.647,7.707,2.84,7.616,3.226,7.434z"/>
<linearGradient id="SVGID_12_" gradientUnits="userSpaceOnUse" x1="-4093.1292" y1="32.7186" x2="-4092.4783" y2="32.7186" gradientTransform="matrix(-1 0 0 1 -4089.2766 0)">
	<stop  offset="0" style="stop-color:#FF616D"/>
	<stop  offset="1" style="stop-color:#FF3B5D"/>
</linearGradient>
<path style="fill:url(#SVGID_12_);" d="M3.202,32.451c0.189,0.236,0.244,0.382,0.259,0.684c0.157-0.06,0.235-0.089,0.392-0.148
	c-0.014-0.302-0.069-0.448-0.259-0.684C3.437,32.362,3.359,32.391,3.202,32.451z"/>
<linearGradient id="SVGID_13_" gradientUnits="userSpaceOnUse" x1="-4098.1104" y1="13.663" x2="-4097.4604" y2="13.663" gradientTransform="matrix(-1 0 0 1 -4089.2766 0)">
	<stop  offset="0" style="stop-color:#FF616D"/>
	<stop  offset="1" style="stop-color:#FF3B5D"/>
</linearGradient>
<path style="fill:url(#SVGID_13_);" d="M8.834,13.844c-0.201-0.175-0.273-0.293-0.333-0.553c-0.127,0.076-0.19,0.114-0.317,0.191
	c0.06,0.26,0.131,0.378,0.332,0.553C8.643,13.959,8.706,13.92,8.834,13.844z"/>
<linearGradient id="SVGID_14_" gradientUnits="userSpaceOnUse" x1="-4097.8628" y1="20.7437" x2="-4095.7773" y2="20.7437" gradientTransform="matrix(-1 0 0 1 -4089.2766 0)">
	<stop  offset="0" style="stop-color:#FF616D"/>
	<stop  offset="1" style="stop-color:#FF3B5D"/>
</linearGradient>
<path style="fill:url(#SVGID_14_);" d="M8.586,21.219c-0.662-0.488-0.908-0.832-1.158-1.616c-0.371,0.266-0.556,0.399-0.927,0.665
	c0.249,0.784,0.496,1.127,1.158,1.615C8.03,21.618,8.215,21.485,8.586,21.219z"/>
<linearGradient id="SVGID_15_" gradientUnits="userSpaceOnUse" x1="-4109.748" y1="18.4799" x2="-4108.4487" y2="18.4799" gradientTransform="matrix(-1 0 0 1 -4089.2766 0)">
	<stop  offset="0" style="stop-color:#FF9D00"/>
	<stop  offset="1" style="stop-color:#FFCB00"/>
</linearGradient>
<path style="fill:url(#SVGID_15_);" d="M19.172,18.135c0.405,0.338,0.549,0.568,0.679,1.08c0.248-0.156,0.372-0.234,0.62-0.39
	c-0.13-0.512-0.274-0.742-0.679-1.08C19.545,17.901,19.42,17.979,19.172,18.135z"/>
<linearGradient id="SVGID_16_" gradientUnits="userSpaceOnUse" x1="-4120.7725" y1="25.2269" x2="-4118.1416" y2="25.2269" gradientTransform="matrix(-1 0 0 1 -4089.2766 0)">
	<stop  offset="0" style="stop-color:#FF616D"/>
	<stop  offset="1" style="stop-color:#FF3B5D"/>
</linearGradient>
<path style="fill:url(#SVGID_16_);" d="M31.496,25.242c-0.922-0.205-1.34-0.451-1.966-1.158c-0.266,0.451-0.399,0.677-0.665,1.128
	c0.626,0.706,1.044,0.953,1.966,1.158C31.097,25.918,31.23,25.693,31.496,25.242z"/>
<linearGradient id="SVGID_17_" gradientUnits="userSpaceOnUse" x1="-4146.4307" y1="11.7768" x2="-4144.9448" y2="11.7768" gradientTransform="matrix(-1 0 0 1 -4089.2766 0)">
	<stop  offset="0" style="stop-color:#FF9D00"/>
	<stop  offset="1" style="stop-color:#FFCB00"/>
</linearGradient>
<path style="fill:url(#SVGID_17_);" d="M57.01,11.251c-0.496,0.271-0.782,0.324-1.341,0.252c0.058,0.308,0.087,0.462,0.144,0.77
	c0.561,0.072,0.846,0.018,1.341-0.252C57.096,11.713,57.067,11.559,57.01,11.251z"/>
<linearGradient id="SVGID_18_" gradientUnits="userSpaceOnUse" x1="-4155.7466" y1="32.7212" x2="-4155.229" y2="32.7212" gradientTransform="matrix(-1 0 0 1 -4089.2766 0)">
	<stop  offset="0" style="stop-color:#FF616D"/>
	<stop  offset="1" style="stop-color:#FF3B5D"/>
</linearGradient>
<path style="fill:url(#SVGID_18_);" d="M65.99,32.9c0.181-0.086,0.283-0.1,0.48-0.064c-0.015-0.11-0.022-0.166-0.037-0.276
	c-0.197-0.036-0.3-0.022-0.48,0.064C65.967,32.735,65.975,32.791,65.99,32.9z"/>
<linearGradient id="SVGID_19_" gradientUnits="userSpaceOnUse" x1="-4161.9038" y1="9.9145" x2="-4159.6865" y2="9.9145" gradientTransform="matrix(-1 0 0 1 -4089.2766 0)">
	<stop  offset="0" style="stop-color:#FF616D"/>
	<stop  offset="1" style="stop-color:#FF3B5D"/>
</linearGradient>
<path style="fill:url(#SVGID_19_);" d="M71.474,11.172c0.217-0.877,0.462-1.271,1.153-1.854c-0.426-0.265-0.639-0.397-1.064-0.662
	c-0.691,0.583-0.936,0.977-1.153,1.854C70.836,10.775,71.049,10.908,71.474,11.172z"/>
<linearGradient id="SVGID_20_" gradientUnits="userSpaceOnUse" x1="-4153.0459" y1="32.9538" x2="-4152.5205" y2="32.9538" gradientTransform="matrix(-1 0 0 1 -4089.2766 0)">
	<stop  offset="0" style="stop-color:#FF616D"/>
	<stop  offset="1" style="stop-color:#FF3B5D"/>
</linearGradient>
<path style="fill:url(#SVGID_20_);" d="M63.769,33.254c-0.135-0.248-0.161-0.392-0.125-0.672c-0.154,0.029-0.231,0.042-0.385,0.071
	c-0.037,0.28-0.011,0.423,0.124,0.672C63.538,33.297,63.615,33.282,63.769,33.254z"/>
<linearGradient id="SVGID_21_" gradientUnits="userSpaceOnUse" x1="-4159.4395" y1="20.0446" x2="-4158.2876" y2="20.0446" gradientTransform="matrix(-1 0 0 1 -4089.2766 0)">
	<stop  offset="0" style="stop-color:#FF616D"/>
	<stop  offset="1" style="stop-color:#FF3B5D"/>
</linearGradient>
<path style="fill:url(#SVGID_21_);" d="M69.643,19.411c-0.133,0.437-0.269,0.629-0.632,0.905c0.208,0.145,0.311,0.218,0.519,0.363
	c0.364-0.275,0.499-0.468,0.633-0.905C69.955,19.628,69.851,19.556,69.643,19.411z"/>
<linearGradient id="SVGID_22_" gradientUnits="userSpaceOnUse" x1="-4171.7178" y1="33.3264" x2="-4170.0728" y2="33.3264" gradientTransform="matrix(-1 0 0 1 -4089.2766 0)">
	<stop  offset="0" style="stop-color:#FF616D"/>
	<stop  offset="1" style="stop-color:#FF3B5D"/>
</linearGradient>
<path style="fill:url(#SVGID_22_);" d="M82.441,33.291c-0.583-0.097-0.853-0.237-1.268-0.658c-0.151,0.291-0.226,0.437-0.377,0.728
	c0.415,0.421,0.685,0.561,1.268,0.658C82.214,33.728,82.29,33.583,82.441,33.291z"/>
<linearGradient id="SVGID_23_" gradientUnits="userSpaceOnUse" x1="-4195.1748" y1="22.3112" x2="-4192.854" y2="22.3112" gradientTransform="matrix(-1 0 0 1 -4089.2766 0)">
	<stop  offset="0" style="stop-color:#FF616D"/>
	<stop  offset="1" style="stop-color:#FF3B5D"/>
</linearGradient>
<path style="fill:url(#SVGID_23_);" d="M105.898,22.379c-0.805-0.219-1.164-0.455-1.687-1.104c-0.254,0.387-0.381,0.581-0.634,0.968
	c0.523,0.65,0.882,0.885,1.687,1.105C105.518,22.96,105.645,22.767,105.898,22.379z"/>
<linearGradient id="SVGID_24_" gradientUnits="userSpaceOnUse" x1="-4206.8442" y1="32.4679" x2="-4206.3667" y2="32.4679" gradientTransform="matrix(-1 0 0 1 -4089.2766 0)">
	<stop  offset="0" style="stop-color:#FF616D"/>
	<stop  offset="1" style="stop-color:#FF3B5D"/>
</linearGradient>
<path style="fill:url(#SVGID_24_);" d="M117.307,32.731c0.055-0.182,0.11-0.262,0.261-0.376c-0.086-0.06-0.13-0.09-0.216-0.15
	c-0.15,0.115-0.206,0.195-0.261,0.376C117.177,32.641,117.22,32.671,117.307,32.731z"/>
<linearGradient id="SVGID_25_" gradientUnits="userSpaceOnUse" x1="-4213.7275" y1="19.5084" x2="-4212.5918" y2="19.5084" gradientTransform="matrix(-1 0 0 1 -4089.2766 0)">
	<stop  offset="0" style="stop-color:#FF616D"/>
	<stop  offset="1" style="stop-color:#FF3B5D"/>
</linearGradient>
<path style="fill:url(#SVGID_25_);" d="M123.994,18.915c-0.166,0.4-0.31,0.57-0.678,0.796c0.183,0.156,0.274,0.234,0.457,0.39
	c0.368-0.227,0.513-0.396,0.679-0.796C124.268,19.149,124.176,19.071,123.994,18.915z"/>
<linearGradient id="SVGID_26_" gradientUnits="userSpaceOnUse" x1="-4209.2588" y1="22.8389" x2="-4208.3652" y2="22.8389" gradientTransform="matrix(-1 0 0 1 -4089.2766 0)">
	<stop  offset="0" style="stop-color:#FF616D"/>
	<stop  offset="1" style="stop-color:#FF3B5D"/>
</linearGradient>
<path style="fill:url(#SVGID_26_);" d="M119.089,22.279c0.213,0.456,0.245,0.713,0.15,1.207c0.277-0.035,0.416-0.052,0.693-0.086
	c0.095-0.494,0.063-0.751-0.15-1.207C119.504,22.227,119.366,22.244,119.089,22.279z"/>
<linearGradient id="SVGID_27_" gradientUnits="userSpaceOnUse" x1="-4202.562" y1="46.8868" x2="-4200.9712" y2="46.8868" gradientTransform="matrix(-1 0 0 1 -4089.2766 0)">
	<stop  offset="0" style="stop-color:#FF616D"/>
	<stop  offset="1" style="stop-color:#FF3B5D"/>
</linearGradient>
<path style="fill:url(#SVGID_27_);" d="M112.521,45.984c-0.155,0.63-0.331,0.913-0.827,1.331c0.306,0.19,0.459,0.285,0.764,0.475
	c0.495-0.419,0.671-0.702,0.827-1.332C112.98,46.268,112.827,46.173,112.521,45.984z"/>
<linearGradient id="SVGID_28_" gradientUnits="userSpaceOnUse" x1="-4164.5234" y1="0.6976" x2="-4163.2061" y2="0.6976" gradientTransform="matrix(-1 0 0 1 -4089.2766 0)">
	<stop  offset="0" style="stop-color:#FF616D"/>
	<stop  offset="1" style="stop-color:#FF3B5D"/>
</linearGradient>
<path style="fill:url(#SVGID_28_);" d="M73.929-0.239c0.272,0.744,0.287,1.151,0.07,1.913c0.439-0.016,0.659-0.024,1.098-0.04
	c0.217-0.762,0.201-1.169-0.07-1.913C74.589-0.263,74.369-0.255,73.929-0.239z"/>
<linearGradient id="SVGID_29_" gradientUnits="userSpaceOnUse" x1="-4212.3398" y1="32.2048" x2="-4210.6377" y2="32.2048" gradientTransform="matrix(-1 0 0 1 -4089.2766 0)">
	<stop  offset="0" style="stop-color:#FF616D"/>
	<stop  offset="1" style="stop-color:#FF3B5D"/>
</linearGradient>
<path style="fill:url(#SVGID_29_);" d="M122.333,33.261c0.071-0.759,0.227-1.12,0.73-1.693c-0.389-0.168-0.583-0.252-0.972-0.419
	c-0.503,0.573-0.659,0.933-0.73,1.693C121.75,33.009,121.944,33.093,122.333,33.261z"/>
<linearGradient id="SVGID_30_" gradientUnits="userSpaceOnUse" x1="-4181.9712" y1="15.851" x2="-4179.9502" y2="15.851" gradientTransform="matrix(-1 0 0 1 -4089.2766 0)">
	<stop  offset="0" style="stop-color:#FF616D"/>
	<stop  offset="1" style="stop-color:#FF3B5D"/>
</linearGradient>
<path style="fill:url(#SVGID_30_);" d="M91.856,17.122c0.067-0.918,0.245-1.357,0.838-2.061c-0.473-0.193-0.71-0.289-1.183-0.481
	c-0.593,0.704-0.771,1.142-0.838,2.061C91.147,16.833,91.383,16.929,91.856,17.122z"/>
<linearGradient id="SVGID_31_" gradientUnits="userSpaceOnUse" x1="-4185.9712" y1="37.0576" x2="-4184.9028" y2="37.0576" gradientTransform="matrix(-1 0 0 1 -4089.2766 0)">
	<stop  offset="0" style="stop-color:#FF616D"/>
	<stop  offset="1" style="stop-color:#FF3B5D"/>
</linearGradient>
<path style="fill:url(#SVGID_31_);" d="M96.695,37.049c-0.377-0.073-0.549-0.168-0.811-0.448c-0.103,0.186-0.155,0.279-0.258,0.466
	c0.262,0.28,0.435,0.375,0.811,0.448C96.54,37.328,96.592,37.235,96.695,37.049z"/>
<linearGradient id="SVGID_32_" gradientUnits="userSpaceOnUse" x1="-4133.0728" y1="1.6631" x2="-4130.7861" y2="1.6631" gradientTransform="matrix(-1 0 0 1 -4089.2766 0)">
	<stop  offset="0" style="stop-color:#FF616D"/>
	<stop  offset="1" style="stop-color:#FF3B5D"/>
</linearGradient>
<path style="fill:url(#SVGID_32_);" d="M42.039,2.629c0.574-0.587,0.948-0.784,1.757-0.923c-0.212-0.403-0.318-0.605-0.53-1.009
	c-0.809,0.139-1.183,0.335-1.757,0.923C41.721,2.024,41.827,2.225,42.039,2.629z"/>
<linearGradient id="SVGID_33_" gradientUnits="userSpaceOnUse" x1="-4148.1489" y1="2.6491" x2="-4145.9268" y2="2.6491" gradientTransform="matrix(-1 0 0 1 -4089.2766 0)">
	<stop  offset="0" style="stop-color:#FF616D"/>
	<stop  offset="1" style="stop-color:#FF3B5D"/>
</linearGradient>
<path style="fill:url(#SVGID_33_);" d="M58.369,1.718c-0.565,0.564-0.93,0.751-1.719,0.876c0.201,0.395,0.302,0.592,0.503,0.986
	c0.788-0.126,1.154-0.312,1.719-0.876C58.671,2.309,58.57,2.112,58.369,1.718z"/>
<linearGradient id="SVGID_34_" gradientUnits="userSpaceOnUse" x1="-4142.1626" y1="20.1907" x2="-4140.8921" y2="20.1907" gradientTransform="matrix(-1 0 0 1 -4089.2766 0)">
	<stop  offset="0" style="stop-color:#FF616D"/>
	<stop  offset="1" style="stop-color:#FF3B5D"/>
</linearGradient>
<path style="fill:url(#SVGID_34_);" d="M51.615,19.684c0.371,0.45,0.482,0.729,0.518,1.311c0.301-0.119,0.451-0.179,0.753-0.298
	c-0.037-0.582-0.147-0.861-0.518-1.311C52.067,19.505,51.917,19.565,51.615,19.684z"/>
<linearGradient id="SVGID_35_" gradientUnits="userSpaceOnUse" x1="-4158.4028" y1="2.2232" x2="-4156.2329" y2="2.2232" gradientTransform="matrix(-1 0 0 1 -4089.2766 0)">
	<stop  offset="0" style="stop-color:#FF9D00"/>
	<stop  offset="1" style="stop-color:#FFCB00"/>
</linearGradient>
<path style="fill:url(#SVGID_35_);" d="M66.958,2.95c0.853-0.278,1.315-0.279,2.169-0.003c0-0.498-0.001-0.747-0.002-1.245
	c-0.854-0.276-1.315-0.275-2.169,0.003C66.957,2.203,66.957,2.452,66.958,2.95z"/>
<linearGradient id="SVGID_36_" gradientUnits="userSpaceOnUse" x1="-4123.876" y1="8.8197" x2="-4121.9478" y2="8.8197" gradientTransform="matrix(-1 0 0 1 -4089.2766 0)">
	<stop  offset="0" style="stop-color:#FF616D"/>
	<stop  offset="1" style="stop-color:#FF3B5D"/>
</linearGradient>
<path style="fill:url(#SVGID_36_);" d="M32.882,9.509c0.629-0.364,0.994-0.442,1.717-0.368c-0.085-0.394-0.127-0.591-0.211-0.985
	C33.665,8.082,33.3,8.16,32.671,8.524C32.756,8.918,32.799,9.115,32.882,9.509z"/>
<linearGradient id="SVGID_37_" gradientUnits="userSpaceOnUse" x1="-4163.1514" y1="39.0999" x2="-4162.2915" y2="39.0999" gradientTransform="matrix(-1 0 0 1 -4089.2766 0)">
	<stop  offset="0" style="stop-color:#FF616D"/>
	<stop  offset="1" style="stop-color:#FF3B5D"/>
</linearGradient>
<path style="fill:url(#SVGID_37_);" d="M73.209,38.489c0.065,0.462,0.024,0.699-0.194,1.111c0.255,0.045,0.382,0.067,0.637,0.111
	c0.218-0.412,0.259-0.648,0.194-1.111C73.592,38.556,73.464,38.533,73.209,38.489z"/>
<linearGradient id="SVGID_38_" gradientUnits="userSpaceOnUse" x1="-4138.7681" y1="1.2929" x2="-4137.6812" y2="1.2929" gradientTransform="matrix(-1 0 0 1 -4089.2766 0)">
	<stop  offset="0" style="stop-color:#FF9D00"/>
	<stop  offset="1" style="stop-color:#FFCB00"/>
</linearGradient>
<path style="fill:url(#SVGID_38_);" d="M48.405,1.584c0.42-0.102,0.642-0.085,1.042,0.079c0.018-0.239,0.028-0.359,0.045-0.598
	c-0.4-0.164-0.622-0.181-1.042-0.079C48.432,1.225,48.423,1.345,48.405,1.584z"/>
<linearGradient id="SVGID_39_" gradientUnits="userSpaceOnUse" x1="-4109.6504" y1="45.4109" x2="-4107.2476" y2="45.4109" gradientTransform="matrix(-1 0 0 1 -4089.2766 0)">
	<stop  offset="0" style="stop-color:#FF616D"/>
	<stop  offset="1" style="stop-color:#FF3B5D"/>
</linearGradient>
<path style="fill:url(#SVGID_39_);" d="M19.915,44.453c-0.664,0.563-1.078,0.732-1.945,0.799c0.183,0.446,0.275,0.67,0.459,1.116
	c0.867-0.066,1.281-0.236,1.944-0.799C20.191,45.123,20.098,44.9,19.915,44.453z"/>
<linearGradient id="SVGID_40_" gradientUnits="userSpaceOnUse" x1="-4199.1343" y1="5.4363" x2="-4197.3989" y2="5.4363" gradientTransform="matrix(-1 0 0 1 -4089.2766 0)">
	<stop  offset="0" style="stop-color:#FF616D"/>
	<stop  offset="1" style="stop-color:#FF3B5D"/>
</linearGradient>
<path style="fill:url(#SVGID_40_);" d="M109.179,4.541c-0.265,0.601-0.49,0.852-1.057,1.183c0.272,0.243,0.407,0.364,0.679,0.607
	c0.567-0.331,0.792-0.582,1.056-1.183C109.586,4.906,109.45,4.785,109.179,4.541z"/>
<linearGradient id="SVGID_41_" gradientUnits="userSpaceOnUse" x1="-4185.4595" y1="46.3683" x2="-4184.3462" y2="46.3683" gradientTransform="matrix(-1 0 0 1 -4089.2766 0)">
	<stop  offset="0" style="stop-color:#FF616D"/>
	<stop  offset="1" style="stop-color:#FF3B5D"/>
</linearGradient>
<path style="fill:url(#SVGID_41_);" d="M95.41,46.887c0.228-0.332,0.393-0.459,0.773-0.593c-0.137-0.178-0.204-0.266-0.341-0.444
	c-0.38,0.135-0.545,0.261-0.773,0.593C95.206,46.62,95.274,46.709,95.41,46.887z"/>
<linearGradient id="SVGID_42_" gradientUnits="userSpaceOnUse" x1="-4211.7407" y1="6.8215" x2="-4209.5342" y2="6.8215" gradientTransform="matrix(-1 0 0 1 -4089.2766 0)">
	<stop  offset="0" style="stop-color:#FF616D"/>
	<stop  offset="1" style="stop-color:#FF3B5D"/>
</linearGradient>
<path style="fill:url(#SVGID_42_);" d="M121.25,8.035c0.257-0.835,0.516-1.204,1.214-1.729c-0.397-0.279-0.595-0.418-0.992-0.697
	c-0.699,0.525-0.957,0.893-1.214,1.729C120.655,7.617,120.853,7.756,121.25,8.035z"/>
<linearGradient id="SVGID_43_" gradientUnits="userSpaceOnUse" x1="-4195.7495" y1="0.9226" x2="-4194.6006" y2="0.9226" gradientTransform="matrix(-1 0 0 1 -4089.2766 0)">
	<stop  offset="0" style="stop-color:#FF616D"/>
	<stop  offset="1" style="stop-color:#FF3B5D"/>
</linearGradient>
<path style="fill:url(#SVGID_43_);" d="M105.692,0.142c0.027,0.578-0.051,0.866-0.368,1.351c0.31,0.084,0.466,0.127,0.776,0.211
	c0.317-0.485,0.396-0.772,0.368-1.351C106.158,0.269,106.003,0.226,105.692,0.142z"/>
<linearGradient id="SVGID_44_" gradientUnits="userSpaceOnUse" x1="-4112.4551" y1="37.0576" x2="-4111.4531" y2="37.0576" gradientTransform="matrix(-1 0 0 1 -4089.2766 0)">
	<stop  offset="0" style="stop-color:#4D79F9"/>
	<stop  offset="1" style="stop-color:#01B5D6"/>
</linearGradient>
<path style="fill:url(#SVGID_44_);" d="M23.178,37.263c-0.321-0.218-0.444-0.376-0.577-0.741c-0.17,0.132-0.255,0.199-0.425,0.331
	c0.132,0.365,0.255,0.523,0.577,0.741C22.923,37.461,23.008,37.395,23.178,37.263z"/>
<linearGradient id="SVGID_45_" gradientUnits="userSpaceOnUse" x1="-4209.1738" y1="3.3328" x2="-4208.2427" y2="3.3328" gradientTransform="matrix(-1 0 0 1 -4089.2766 0)">
	<stop  offset="0" style="stop-color:#4D79F9"/>
	<stop  offset="1" style="stop-color:#01B5D6"/>
</linearGradient>
<path style="fill:url(#SVGID_45_);" d="M118.966,3.342c0.328,0.062,0.479,0.145,0.708,0.388c0.089-0.163,0.134-0.244,0.223-0.407
	c-0.229-0.243-0.38-0.326-0.708-0.388C119.1,3.098,119.055,3.179,118.966,3.342z"/>
<linearGradient id="SVGID_46_" gradientUnits="userSpaceOnUse" x1="-4190.4175" y1="3.3737" x2="-4188.3423" y2="3.3737" gradientTransform="matrix(-1 0 0 1 -4089.2766 0)">
	<stop  offset="0" style="stop-color:#4D79F9"/>
	<stop  offset="1" style="stop-color:#01B5D6"/>
</linearGradient>
<path style="fill:url(#SVGID_46_);" d="M100.317,2.297c-0.309,0.724-0.575,1.03-1.251,1.435C99.395,4.02,99.56,4.163,99.89,4.45
	c0.676-0.406,0.942-0.711,1.251-1.435C100.811,2.728,100.646,2.584,100.317,2.297z"/>
<linearGradient id="SVGID_47_" gradientUnits="userSpaceOnUse" x1="-4197.1489" y1="13.4431" x2="-4195.0898" y2="13.4431" gradientTransform="matrix(-1 0 0 1 -4089.2766 0)">
	<stop  offset="0" style="stop-color:#4D79F9"/>
	<stop  offset="1" style="stop-color:#01B5D6"/>
</linearGradient>
<path style="fill:url(#SVGID_47_);" d="M107.245,12.485c-0.424,0.613-0.729,0.846-1.432,1.094c0.251,0.328,0.377,0.493,0.628,0.821
	c0.703-0.248,1.008-0.481,1.431-1.094C107.621,12.978,107.496,12.814,107.245,12.485z"/>
<linearGradient id="SVGID_48_" gradientUnits="userSpaceOnUse" x1="-4170.707" y1="22.2648" x2="-4168.6167" y2="22.2648" gradientTransform="matrix(-1 0 0 1 -4089.2766 0)">
	<stop  offset="0" style="stop-color:#4D79F9"/>
	<stop  offset="1" style="stop-color:#01B5D6"/>
</linearGradient>
<path style="fill:url(#SVGID_48_);" d="M80.021,20.848c0.044,1.049-0.101,1.568-0.681,2.444c0.561,0.156,0.842,0.234,1.403,0.39
	c0.579-0.875,0.724-1.395,0.68-2.443C80.862,21.082,80.581,21.004,80.021,20.848z"/>
<linearGradient id="SVGID_49_" gradientUnits="userSpaceOnUse" x1="-4127.7183" y1="2.6672" x2="-4126.1987" y2="2.6672" gradientTransform="matrix(-1 0 0 1 -4089.2766 0)">
	<stop  offset="0" style="stop-color:#4D79F9"/>
	<stop  offset="1" style="stop-color:#01B5D6"/>
</linearGradient>
<path style="fill:url(#SVGID_49_);" d="M36.922,2.765c0.548,0.044,0.809,0.152,1.227,0.509c0.117-0.281,0.176-0.422,0.293-0.704
	c-0.418-0.357-0.679-0.466-1.227-0.51C37.098,2.342,37.039,2.483,36.922,2.765z"/>
<linearGradient id="SVGID_50_" gradientUnits="userSpaceOnUse" x1="-4109.3921" y1="6.4831" x2="-4107.7549" y2="6.4831" gradientTransform="matrix(-1 0 0 1 -4089.2766 0)">
	<stop  offset="0" style="stop-color:#4D79F9"/>
	<stop  offset="1" style="stop-color:#01B5D6"/>
</linearGradient>
<path style="fill:url(#SVGID_50_);" d="M20.115,6.202c-0.615,0.067-0.926,0.003-1.463-0.303c-0.07,0.336-0.105,0.504-0.174,0.84
	c0.537,0.306,0.848,0.371,1.463,0.304C20.011,6.707,20.046,6.539,20.115,6.202z"/>
<linearGradient id="SVGID_51_" gradientUnits="userSpaceOnUse" x1="-4131.6675" y1="20.8479" x2="-4129.5898" y2="20.8479" gradientTransform="matrix(-1 0 0 1 -4089.2766 0)">
	<stop  offset="0" style="stop-color:#4D79F9"/>
	<stop  offset="1" style="stop-color:#01B5D6"/>
</linearGradient>
<path style="fill:url(#SVGID_51_);" d="M41.448,19.701c-0.237,0.791-0.479,1.141-1.135,1.642c0.377,0.26,0.566,0.391,0.943,0.651
	c0.656-0.501,0.898-0.851,1.135-1.642C42.014,20.092,41.825,19.962,41.448,19.701z"/>
<linearGradient id="SVGID_52_" gradientUnits="userSpaceOnUse" x1="-4175.1035" y1="44.4534" x2="-4173.4082" y2="44.4534" gradientTransform="matrix(-1 0 0 1 -4089.2766 0)">
	<stop  offset="0" style="stop-color:#4D79F9"/>
	<stop  offset="1" style="stop-color:#01B5D6"/>
</linearGradient>
<path style="fill:url(#SVGID_52_);" d="M84.963,45.425c0.155-0.68,0.339-0.988,0.864-1.448c-0.332-0.199-0.499-0.298-0.831-0.496
	c-0.525,0.46-0.709,0.768-0.864,1.448C84.464,45.128,84.631,45.227,84.963,45.425z"/>
<linearGradient id="SVGID_53_" gradientUnits="userSpaceOnUse" x1="-4179.0693" y1="1.2602" x2="-4177.3398" y2="1.2602" gradientTransform="matrix(-1 0 0 1 -4089.2766 0)">
	<stop  offset="0" style="stop-color:#4D79F9"/>
	<stop  offset="1" style="stop-color:#01B5D6"/>
</linearGradient>
<path style="fill:url(#SVGID_53_);" d="M88.893,2.241c0.17-0.684,0.361-0.991,0.9-1.445c-0.331-0.207-0.498-0.31-0.829-0.517
	c-0.539,0.454-0.73,0.761-0.9,1.445C88.395,1.931,88.56,2.035,88.893,2.241z"/>
<linearGradient id="SVGID_54_" gradientUnits="userSpaceOnUse" x1="-4186.8647" y1="28.9668" x2="-4184.9028" y2="28.9668" gradientTransform="matrix(-1 0 0 1 -4089.2766 0)">
	<stop  offset="0" style="stop-color:#4D79F9"/>
	<stop  offset="1" style="stop-color:#01B5D6"/>
</linearGradient>
<path style="fill:url(#SVGID_54_);" d="M95.819,29.661c0.654-0.358,1.031-0.429,1.769-0.336c-0.077-0.406-0.116-0.609-0.193-1.016
	c-0.739-0.094-1.115-0.022-1.769,0.336C95.703,29.052,95.742,29.255,95.819,29.661z"/>
<linearGradient id="SVGID_55_" gradientUnits="userSpaceOnUse" x1="-4199.0996" y1="40.7556" x2="-4197.8071" y2="40.7556" gradientTransform="matrix(-1 0 0 1 -4089.2766 0)">
	<stop  offset="0" style="stop-color:#4D79F9"/>
	<stop  offset="1" style="stop-color:#01B5D6"/>
</linearGradient>
<path style="fill:url(#SVGID_55_);" d="M109.797,40.319c-0.493,0.18-0.762,0.189-1.266,0.046c0.01,0.291,0.015,0.436,0.026,0.727
	c0.504,0.144,0.774,0.134,1.266-0.046C109.813,40.756,109.808,40.61,109.797,40.319z"/>
<linearGradient id="SVGID_56_" gradientUnits="userSpaceOnUse" x1="-4209.1689" y1="11.2512" x2="-4207.418" y2="11.2512" gradientTransform="matrix(-1 0 0 1 -4089.2766 0)">
	<stop  offset="0" style="stop-color:#4D79F9"/>
	<stop  offset="1" style="stop-color:#01B5D6"/>
</linearGradient>
<path style="fill:url(#SVGID_56_);" d="M118.141,11.617c0.665-0.109,1.008-0.057,1.61,0.245c0.057-0.37,0.085-0.555,0.141-0.924
	c-0.603-0.302-0.945-0.354-1.611-0.245C118.225,11.063,118.197,11.248,118.141,11.617z"/>
<path style="fill:#65E200;" d="M1.537,24.672c-0.271-0.478-0.328-0.755-0.267-1.301c-0.298,0.062-0.448,0.092-0.746,0.154
	c-0.061,0.546-0.004,0.823,0.267,1.3C1.089,24.764,1.238,24.734,1.537,24.672z"/>
<path style="fill:#65E200;" d="M47.425,34.197c0.126-1.002,0.346-1.472,1.036-2.209c-0.507-0.238-0.761-0.357-1.268-0.594
	c-0.69,0.737-0.91,1.207-1.036,2.21C46.664,33.84,46.917,33.959,47.425,34.197z"/>
<path style="fill:#65E200;" d="M29.362,3.181c0.115-1.059,0.34-1.558,1.054-2.347c-0.539-0.242-0.808-0.363-1.347-0.605
	c-0.714,0.789-0.939,1.289-1.054,2.347C28.553,2.818,28.823,2.939,29.362,3.181z"/>
<path style="fill:#65E200;" d="M114.849,0.86c-1.064-0.011-1.582-0.184-2.437-0.817c-0.188,0.559-0.282,0.839-0.469,1.399
	c0.855,0.632,1.373,0.806,2.437,0.817C114.568,1.699,114.662,1.419,114.849,0.86z"/>
<g>
	<path style="fill:#E32A3A;" d="M111.911,22.198c0,0-0.458-0.686,0.36-1.052c0,0,0.416-0.162,2.665,0.954l0.432,0.87l-0.11,0.173
		c0.068-0.005-0.01,0.042-0.47-0.158C114.363,22.798,113.123,22.174,111.911,22.198z"/>
	
		<linearGradient id="SVGID_57_" gradientUnits="userSpaceOnUse" x1="-4203.1528" y1="23.5217" x2="-4200.6289" y2="23.5217" gradientTransform="matrix(-1 0 0 1 -4089.2766 0)">
		<stop  offset="0" style="stop-color:#FF616D"/>
		<stop  offset="1" style="stop-color:#FF3B5D"/>
	</linearGradient>
	<path style="fill:url(#SVGID_57_);" d="M113.876,25.077c0,0-0.051,0.291-0.668,0.821c0,0,0.146-0.478-0.363-1.056
		c-0.508-0.577-1.591-1.676-1.486-2.473c0,0,0.016-0.227,0.12-0.461c0.099-0.223,0.434-0.675,0.793-0.762
		c0,0-0.658,0.219-0.182,1.25C112.339,22.935,113.774,24.721,113.876,25.077z"/>
	<path style="fill:#E32A3A;" d="M113.923,19.493c0,0-0.458-0.686,0.36-1.052c0,0,0.416-0.162,2.665,0.954l0.449,0.558l-0.127,0.485
		c0.068-0.005-0.01,0.042-0.47-0.159C116.375,20.094,115.134,19.469,113.923,19.493z"/>
	
		<linearGradient id="SVGID_58_" gradientUnits="userSpaceOnUse" x1="-4205.1641" y1="20.8173" x2="-4202.6401" y2="20.8173" gradientTransform="matrix(-1 0 0 1 -4089.2766 0)">
		<stop  offset="0" style="stop-color:#FF616D"/>
		<stop  offset="1" style="stop-color:#FF3B5D"/>
	</linearGradient>
	<path style="fill:url(#SVGID_58_);" d="M115.887,22.373c0,0-0.051,0.291-0.668,0.821c0,0,0.146-0.479-0.363-1.056
		c-0.508-0.577-1.59-1.676-1.486-2.473c0,0,0.016-0.227,0.12-0.461c0.099-0.223,0.434-0.675,0.793-0.763c0,0-0.658,0.219-0.182,1.25
		C114.35,20.231,115.785,22.017,115.887,22.373z"/>
	
		<linearGradient id="SVGID_59_" gradientUnits="userSpaceOnUse" x1="-4207.2007" y1="18.4198" x2="-4204.6763" y2="18.4198" gradientTransform="matrix(-1 0 0 1 -4089.2766 0)">
		<stop  offset="0" style="stop-color:#FF616D"/>
		<stop  offset="1" style="stop-color:#FF3B5D"/>
	</linearGradient>
	<path style="fill:url(#SVGID_59_);" d="M117.924,19.629c0,0-0.051,0.291-0.668,0.821c0,0,0.145-0.478-0.363-1.056
		c-0.508-0.577-1.591-1.677-1.486-2.473l0.563-0.531c0.015,0.152,0.065,0.336,0.167,0.557
		C116.386,17.487,117.822,19.273,117.924,19.629z"/>
</g>
<linearGradient id="SVGID_60_" gradientUnits="userSpaceOnUse" x1="-4175.4858" y1="7.0162" x2="-4172.4653" y2="7.0162" gradientTransform="matrix(-1 0 0 1 -4089.2766 0)">
	<stop  offset="0" style="stop-color:#2657E3"/>
	<stop  offset="1" style="stop-color:#019BB8"/>
</linearGradient>
<path style="fill:url(#SVGID_60_);" d="M83.568,8.596c-0.111-0.295,2.771-1.76,2.637-2.162l-0.364-0.998
	c0.09,0.227-2.778,1.734-2.648,2.129L83.568,8.596z"/>
<linearGradient id="SVGID_61_" gradientUnits="userSpaceOnUse" x1="-4174.918" y1="5.0668" x2="-4171.3105" y2="5.0668" gradientTransform="matrix(-1 0 0 1 -4089.2766 0)">
	<stop  offset="0" style="stop-color:#2657E3"/>
	<stop  offset="1" style="stop-color:#019BB8"/>
</linearGradient>
<path style="fill:url(#SVGID_61_);" d="M82.412,7.006c-0.111-0.295,3.359-2.48,3.225-2.882l-0.364-0.997
	c0.09,0.227-3.366,2.454-3.237,2.848L82.412,7.006z"/>
<linearGradient id="SVGID_62_" gradientUnits="userSpaceOnUse" x1="-4175.4771" y1="6.1595" x2="-4171.314" y2="6.1595" gradientTransform="matrix(-1 0 0 1 -4089.2766 0)">
	<stop  offset="0" style="stop-color:#4D79F9"/>
	<stop  offset="1" style="stop-color:#01B5D6"/>
</linearGradient>
<path style="fill:url(#SVGID_62_);" d="M82.408,6.995c0.06,0.165,0.862-0.034,1.856-0.396c0.994-0.362,1.881-0.328,1.936-0.178
	c0,0-0.285-0.783-0.371-1.021c-0.079-0.217-0.942-0.183-1.936,0.179c-0.994,0.362-1.791,0.577-1.856,0.398
	C82.038,5.976,82.344,6.82,82.408,6.995z"/>
<linearGradient id="SVGID_63_" gradientUnits="userSpaceOnUse" x1="-4174.9229" y1="3.4326" x2="-4171.6064" y2="3.4326" gradientTransform="matrix(-1 0 0 1 -4089.2766 0)">
	<stop  offset="0" style="stop-color:#4D79F9"/>
	<stop  offset="1" style="stop-color:#01B5D6"/>
</linearGradient>
<path style="fill:url(#SVGID_63_);" d="M82.701,4.148c0.894-0.491,2.731-0.588,2.945-0.001c0,0-0.285-0.783-0.371-1.021
	c-0.223-0.613-1.981-0.474-2.945,0L82.701,4.148z"/>
<linearGradient id="SVGID_64_" gradientUnits="userSpaceOnUse" x1="-4176.1592" y1="8.8666" x2="-4173.1382" y2="8.8666" gradientTransform="matrix(-1 0 0 1 -4089.2766 0)">
	<stop  offset="0" style="stop-color:#2657E3"/>
	<stop  offset="1" style="stop-color:#019BB8"/>
</linearGradient>
<path style="fill:url(#SVGID_64_);" d="M84.241,10.447c-0.111-0.295,2.771-1.76,2.637-2.162l-0.364-0.997
	c0.09,0.227-2.778,1.734-2.648,2.129L84.241,10.447z"/>
<linearGradient id="SVGID_65_" gradientUnits="userSpaceOnUse" x1="-4176.8315" y1="10.3603" x2="-4174.3721" y2="10.3603" gradientTransform="matrix(-1 0 0 1 -4089.2766 0)">
	<stop  offset="0" style="stop-color:#2657E3"/>
	<stop  offset="1" style="stop-color:#019BB8"/>
</linearGradient>
<path style="fill:url(#SVGID_65_);" d="M85.501,11.589c0,0,2.182-1.059,2.048-1.46l-0.364-0.998c0.201,0.553-2.09,1.599-2.09,1.599
	L85.501,11.589z"/>
<linearGradient id="SVGID_66_" gradientUnits="userSpaceOnUse" x1="-4176.8374" y1="9.7596" x2="-4173.1499" y2="9.7596" gradientTransform="matrix(-1 0 0 1 -4089.2766 0)">
	<stop  offset="0" style="stop-color:#4D79F9"/>
	<stop  offset="1" style="stop-color:#01B5D6"/>
</linearGradient>
<path style="fill:url(#SVGID_66_);" d="M84.244,10.455c0.06,0.165,0.656,0.149,1.65-0.213c0.994-0.362,1.612-0.231,1.666-0.081
	c0,0-0.285-0.783-0.371-1.021c-0.079-0.217-0.672-0.281-1.666,0.081c-0.994,0.362-1.584,0.395-1.65,0.215
	C83.873,9.436,84.18,10.28,84.244,10.455z"/>
<linearGradient id="SVGID_67_" gradientUnits="userSpaceOnUse" x1="-4176.1499" y1="7.8697" x2="-4172.4624" y2="7.8697" gradientTransform="matrix(-1 0 0 1 -4089.2766 0)">
	<stop  offset="0" style="stop-color:#4D79F9"/>
	<stop  offset="1" style="stop-color:#01B5D6"/>
</linearGradient>
<path style="fill:url(#SVGID_67_);" d="M83.557,8.565c0.06,0.165,0.656,0.149,1.65-0.213c0.994-0.362,1.612-0.231,1.666-0.08
	c0,0-0.285-0.783-0.371-1.021c-0.079-0.217-0.672-0.281-1.666,0.081c-0.994,0.362-1.584,0.395-1.65,0.215
	C83.186,7.546,83.493,8.39,83.557,8.565z"/>
<g>
	<path style="fill:#E32A3A;" d="M9.204,40.542c0.159-0.283,3.228,1.017,3.456,0.644l0.545-0.949
		c-0.119,0.222-3.212-1.039-3.437-0.675L9.204,40.542z"/>
	
		<linearGradient id="SVGID_68_" gradientUnits="userSpaceOnUse" x1="-2882.3911" y1="769.0545" x2="-2880.4731" y2="769.0545" gradientTransform="matrix(-0.9692 0.2461 0.2461 0.9692 -2971.7488 4.6437)">
		<stop  offset="0" style="stop-color:#FF616D"/>
		<stop  offset="1" style="stop-color:#FF3B5D"/>
	</linearGradient>
	<path style="fill:url(#SVGID_68_);" d="M9.199,40.55c-0.201,0.349,0.568,1.09,1.513,1.633l0.559-0.97
		c-0.945-0.544-1.73-1.257-1.514-1.632C9.757,39.581,9.295,40.383,9.199,40.55z"/>
</g>
<path style="fill:#E32A3A;" d="M10.22,38.776c0.159-0.283,3.228,1.017,3.456,0.644l0.545-0.949
	c-0.119,0.222-3.212-1.039-3.437-0.675L10.22,38.776z"/>
<path style="fill:#E32A3A;" d="M11.674,36.249c0.375-0.652,3.313-1.154,3.754-1.922l0.545-0.949
	c-0.469,0.816-3.227,1.008-3.735,1.891L11.674,36.249z"/>
<path style="fill:#E32A3A;" d="M16.258,28.782c0.375-0.652,3.313-1.154,3.754-1.922l0.545-0.949
	c-0.469,0.816-3.227,1.009-3.736,1.891L16.258,28.782z"/>
<linearGradient id="SVGID_69_" gradientUnits="userSpaceOnUse" x1="-2884.5625" y1="768.0878" x2="-2881.9375" y2="768.0878" gradientTransform="matrix(-0.9692 0.2461 0.2461 0.9692 -2971.7488 4.6437)">
	<stop  offset="0" style="stop-color:#FF616D"/>
	<stop  offset="1" style="stop-color:#FF3B5D"/>
</linearGradient>
<path style="fill:url(#SVGID_69_);" d="M10.216,38.784c-0.09,0.157,0.318,0.616,1.264,1.16c0.945,0.544,1.252,1.118,1.17,1.261
	c0,0,0.428-0.744,0.558-0.97c0.119-0.206-0.225-0.717-1.17-1.261c-0.945-0.544-1.363-0.987-1.264-1.159
	C10.773,37.815,10.312,38.617,10.216,38.784z"/>
<linearGradient id="SVGID_70_" gradientUnits="userSpaceOnUse" x1="-2885.9934" y1="766.2678" x2="-2883.936" y2="766.2678" gradientTransform="matrix(-0.9692 0.2461 0.2461 0.9692 -2971.7488 4.6437)">
	<stop  offset="0" style="stop-color:#FF616D"/>
	<stop  offset="1" style="stop-color:#FF3B5D"/>
</linearGradient>
<path style="fill:url(#SVGID_70_);" d="M11.713,36.182c-0.173,0.301,0.098,0.901,0.836,1.718c0.731,0.809,1.217,1.365,1.135,1.508
	c0,0,0.428-0.744,0.558-0.97c0.119-0.206-0.394-0.707-1.135-1.507c-0.732-0.792-0.995-1.44-0.837-1.716
	C12.27,35.214,11.809,36.016,11.713,36.182z"/>
<linearGradient id="SVGID_71_" gradientUnits="userSpaceOnUse" x1="-2891.1272" y1="760.9697" x2="-2888.0974" y2="760.9697" gradientTransform="matrix(-0.9692 0.2461 0.2461 0.9692 -2971.7488 4.6437)">
	<stop  offset="0" style="stop-color:#FF616D"/>
	<stop  offset="1" style="stop-color:#FF3B5D"/>
</linearGradient>
<path style="fill:url(#SVGID_71_);" d="M16.302,28.704c-0.672,1.571,0.045,4.027-0.887,5.646c0,0,0.428-0.744,0.558-0.97
	c1.018-1.769,0.513-4.996,0.887-5.647L16.302,28.704z"/>
<linearGradient id="SVGID_72_" gradientUnits="userSpaceOnUse" x1="-4119.5122" y1="9.7997" x2="-4114.0859" y2="9.7997" gradientTransform="matrix(-1 0 0 1 -4089.2766 0)">
	<stop  offset="0" style="stop-color:#943ADE"/>
	<stop  offset="1" style="stop-color:#531ED9"/>
</linearGradient>
<path style="fill:url(#SVGID_72_);" d="M30.004,7.622c1.361,1.27-3.692,3.061-4.268,4.868c-0.332-0.202-0.612-0.474-0.806-0.837
	c-0.847-1.585,3-3.213,4.128-4.543C29.406,7.201,29.726,7.363,30.004,7.622z"/>
<linearGradient id="SVGID_73_" gradientUnits="userSpaceOnUse" x1="-4119.457" y1="6.6188" x2="-4110.875" y2="6.6188" gradientTransform="matrix(-1 0 0 1 -4089.2766 0)">
	<stop  offset="0" style="stop-color:#B459FF"/>
	<stop  offset="1" style="stop-color:#7C48FF"/>
</linearGradient>
<path style="fill:url(#SVGID_73_);" d="M21.598,5.444c0,0,0.322,0.597,0.852,0.689c1.669,0.356,4.969-1.737,6.68-0.14
	c0.063,0.059,0.112,0.119,0.148,0.179c0.001,0,0.001-0.001,0.001-0.001l0.901,1.68c0,0-0.659-0.662-1.122-0.742
	c-0.016-0.003-0.03-0.006-0.043-0.011c-2.213-0.539-5.526,1.715-6.459,0.129c0,0.001,0,0.001,0,0.001L21.598,5.444z"/>
<linearGradient id="SVGID_74_" gradientUnits="userSpaceOnUse" x1="-4120.3291" y1="13.1075" x2="-4114.1577" y2="13.1075" gradientTransform="matrix(-1 0 0 1 -4089.2766 0)">
	<stop  offset="0" style="stop-color:#B459FF"/>
	<stop  offset="1" style="stop-color:#7C48FF"/>
</linearGradient>
<path style="fill:url(#SVGID_74_);" d="M24.881,11.562c0,0,0.429,0.688,0.855,0.928c0.008,0.004,0.015,0.009,0.022,0.013
	c1.617,0.964,4.42,0.298,4.42,0.298l0.874,1.628c0,0-4.037,0.96-5.217-1.091c0,0.001-0.001,0.001-0.001,0.001L24.881,11.562z"/>
<linearGradient id="SVGID_75_" gradientUnits="userSpaceOnUse" x1="-4095.5352" y1="13.6426" x2="-4092.2788" y2="13.6426" gradientTransform="matrix(-1 0 0 1 -4089.2766 0)">
	<stop  offset="0" style="stop-color:#FF7300"/>
	<stop  offset="1" style="stop-color:#FFB500"/>
</linearGradient>
<path style="fill:url(#SVGID_75_);" d="M3.002,13.8c0.116-0.231,2.688,0.79,2.856,0.485l0.4-0.775
	c-0.087,0.181-2.676-0.808-2.842-0.511L3.002,13.8z"/>
<linearGradient id="SVGID_76_" gradientUnits="userSpaceOnUse" x1="-4094.0007" y1="14.0644" x2="-4092.2549" y2="14.0644" gradientTransform="matrix(-1 0 0 1 -4089.2766 0)">
	<stop  offset="0" style="stop-color:#FF9D00"/>
	<stop  offset="1" style="stop-color:#FFCB00"/>
</linearGradient>
<path style="fill:url(#SVGID_76_);" d="M2.999,13.806c-0.148,0.285,0.516,0.877,1.316,1.308l0.41-0.792
	c-0.799-0.431-1.474-1-1.316-1.306C3.408,13.015,3.069,13.67,2.999,13.806z"/>
<linearGradient id="SVGID_77_" gradientUnits="userSpaceOnUse" x1="-4096.2813" y1="12.2008" x2="-4093.0249" y2="12.2008" gradientTransform="matrix(-1 0 0 1 -4089.2766 0)">
	<stop  offset="0" style="stop-color:#FF7300"/>
	<stop  offset="1" style="stop-color:#FFB500"/>
</linearGradient>
<path style="fill:url(#SVGID_77_);" d="M3.748,12.358c0.116-0.231,2.688,0.79,2.856,0.485l0.4-0.775
	c-0.087,0.181-2.676-0.808-2.842-0.511L3.748,12.358z"/>
<linearGradient id="SVGID_78_" gradientUnits="userSpaceOnUse" x1="-4097.4692" y1="9.1088" x2="-4094.0923" y2="9.1088" gradientTransform="matrix(-1 0 0 1 -4089.2766 0)">
	<stop  offset="0" style="stop-color:#FF7300"/>
	<stop  offset="1" style="stop-color:#FFB500"/>
</linearGradient>
<path style="fill:url(#SVGID_78_);" d="M4.816,10.295c0.275-0.532,2.653-0.97,2.977-1.597l0.4-0.775
	C7.849,8.589,5.603,8.774,5.23,9.495L4.816,10.295z"/>
<linearGradient id="SVGID_79_" gradientUnits="userSpaceOnUse" x1="-4095.5518" y1="12.9367" x2="-4093.0139" y2="12.9367" gradientTransform="matrix(-1 0 0 1 -4089.2766 0)">
	<stop  offset="0" style="stop-color:#FF9D00"/>
	<stop  offset="1" style="stop-color:#FFCB00"/>
</linearGradient>
<path style="fill:url(#SVGID_79_);" d="M3.745,12.364c-0.066,0.128,0.29,0.496,1.089,0.927c0.799,0.431,1.077,0.893,1.017,1.009
	c0,0,0.314-0.608,0.41-0.792c0.087-0.168-0.218-0.578-1.017-1.009c-0.799-0.431-1.162-0.786-1.089-0.925
	C4.154,11.573,3.815,12.228,3.745,12.364z"/>
<linearGradient id="SVGID_80_" gradientUnits="userSpaceOnUse" x1="-4096.3071" y1="11.1412" x2="-4094.0884" y2="11.1412" gradientTransform="matrix(-1 0 0 1 -4089.2766 0)">
	<stop  offset="0" style="stop-color:#FF9D00"/>
	<stop  offset="1" style="stop-color:#FFCB00"/>
</linearGradient>
<path style="fill:url(#SVGID_80_);" d="M4.844,10.24c-0.127,0.246,0.123,0.729,0.766,1.383c0.637,0.648,1.06,1.093,1,1.21
	c0,0,0.315-0.608,0.41-0.792c0.087-0.168-0.357-0.568-1-1.21c-0.636-0.634-0.883-1.156-0.766-1.382
	C5.253,9.449,4.914,10.104,4.844,10.24z"/>
<linearGradient id="SVGID_81_" gradientUnits="userSpaceOnUse" x1="-4102.999" y1="4.5438" x2="-4101.5566" y2="4.5438" gradientTransform="matrix(-1 0 0 1 -4089.2766 0)">
	<stop  offset="0" style="stop-color:#2657E3"/>
	<stop  offset="1" style="stop-color:#019BB8"/>
</linearGradient>
<path style="fill:url(#SVGID_81_);" d="M12.764,5.714c-0.136-0.138,1.117-1.679,0.942-1.871l-0.453-0.47
	c0.107,0.105-1.128,1.665-0.957,1.855L12.764,5.714z"/>
<linearGradient id="SVGID_82_" gradientUnits="userSpaceOnUse" x1="-4102.104" y1="3.6637" x2="-4100.5137" y2="3.6637" gradientTransform="matrix(-1 0 0 1 -4089.2766 0)">
	<stop  offset="0" style="stop-color:#2657E3"/>
	<stop  offset="1" style="stop-color:#019BB8"/>
</linearGradient>
<path style="fill:url(#SVGID_82_);" d="M11.719,5.109c-0.136-0.138,1.269-2.229,1.093-2.421l-0.452-0.47
	c0.107,0.105-1.279,2.216-1.108,2.406L11.719,5.109z"/>
<linearGradient id="SVGID_83_" gradientUnits="userSpaceOnUse" x1="-4102.9766" y1="4.2243" x2="-4100.5283" y2="4.2243" gradientTransform="matrix(-1 0 0 1 -4089.2766 0)">
	<stop  offset="0" style="stop-color:#4D79F9"/>
	<stop  offset="1" style="stop-color:#01B5D6"/>
</linearGradient>
<path style="fill:url(#SVGID_83_);" d="M11.714,5.104c0.075,0.078,0.476-0.234,0.944-0.685c0.468-0.451,0.974-0.653,1.042-0.582
	c0,0-0.355-0.369-0.463-0.481c-0.098-0.102-0.574,0.132-1.042,0.582c-0.468,0.451-0.862,0.77-0.943,0.685
	C11.252,4.624,11.634,5.021,11.714,5.104z"/>
<linearGradient id="SVGID_84_" gradientUnits="userSpaceOnUse" x1="-4102.0991" y1="2.7837" x2="-4099.9829" y2="2.7837" gradientTransform="matrix(-1 0 0 1 -4089.2766 0)">
	<stop  offset="0" style="stop-color:#4D79F9"/>
	<stop  offset="1" style="stop-color:#01B5D6"/>
</linearGradient>
<path style="fill:url(#SVGID_84_);" d="M11.169,3.432c0.38-0.498,1.387-1.011,1.653-0.734c0,0-0.355-0.368-0.463-0.48
	c-0.278-0.289-1.23,0.227-1.653,0.734L11.169,3.432z"/>
<path style="fill:#53BA00;" d="M48.231,15.846c0.033-0.313,3.261-0.325,3.322-0.744l0.123-1.053
	c-0.021,0.243-3.255,0.299-3.317,0.709L48.231,15.846z"/>
<path style="fill:#65E200;" d="M48.23,15.855c-0.046,0.388,0.921,0.753,1.97,0.877l0.127-1.077c-1.049-0.124-2.019-0.46-1.97-0.875
	C48.357,14.78,48.252,15.67,48.23,15.855z"/>
<path style="fill:#53BA00;" d="M48.462,13.886c0.033-0.313,3.261-0.325,3.322-0.744l0.123-1.053
	c-0.021,0.243-3.255,0.299-3.317,0.709L48.462,13.886z"/>
<path style="fill:#53BA00;" d="M48.794,11.083c0.086-0.724,2.509-2.29,2.61-3.142l0.123-1.053c-0.106,0.905-2.489,2.128-2.604,3.108
	L48.794,11.083z"/>
<path style="fill:#65E200;" d="M48.461,13.895c-0.021,0.174,0.518,0.427,1.567,0.551c1.049,0.124,1.541,0.518,1.522,0.676
	c0,0,0.097-0.826,0.127-1.077c0.027-0.229-0.473-0.552-1.522-0.676c-1.049-0.124-1.59-0.359-1.567-0.549
	C48.588,12.82,48.483,13.71,48.461,13.895z"/>
<path style="fill:#65E200;" d="M48.802,11.009c-0.039,0.334,0.43,0.765,1.399,1.211c0.959,0.441,1.604,0.751,1.585,0.909
	c0,0,0.098-0.826,0.127-1.077c0.027-0.229-0.621-0.479-1.585-0.909c-0.954-0.426-1.435-0.903-1.399-1.209
	C48.929,9.934,48.824,10.824,48.802,11.009z"/>
<path style="fill:#672AE3;" d="M96.794,19.277c0.075-0.24,2.605,0.251,2.718-0.068l0.26-0.805c-0.054,0.187-2.596-0.271-2.708,0.041
	L96.794,19.277z"/>
<linearGradient id="SVGID_85_" gradientUnits="userSpaceOnUse" x1="-4187.7417" y1="19.3683" x2="-4186.0596" y2="19.3683" gradientTransform="matrix(-1 0 0 1 -4089.2766 0)">
	<stop  offset="0" style="stop-color:#B459FF"/>
	<stop  offset="1" style="stop-color:#7C48FF"/>
</linearGradient>
<path style="fill:url(#SVGID_85_);" d="M96.792,19.283c-0.096,0.297,0.604,0.733,1.407,0.993l0.267-0.824
	c-0.802-0.26-1.51-0.673-1.407-0.991C97.058,18.461,96.838,19.142,96.792,19.283z"/>
<path style="fill:#672AE3;" d="M97.279,17.777c0.074-0.24,2.605,0.251,2.717-0.068l0.26-0.805c-0.054,0.187-2.596-0.271-2.708,0.041
	L97.279,17.777z"/>
<path style="fill:#672AE3;" d="M97.974,15.633c0.179-0.554,2.32-1.405,2.531-2.057l0.26-0.805c-0.223,0.693-2.279,1.281-2.522,2.03
	L97.974,15.633z"/>
<path style="fill:#672AE3;" d="M100.242,9.248c0.179-0.553,2.321-1.405,2.531-2.057l0.26-0.805c-0.223,0.693-2.279,1.281-2.522,2.03
	L100.242,9.248z"/>
<linearGradient id="SVGID_86_" gradientUnits="userSpaceOnUse" x1="-4189.0557" y1="18.0931" x2="-4186.5503" y2="18.0931" gradientTransform="matrix(-1 0 0 1 -4089.2766 0)">
	<stop  offset="0" style="stop-color:#B459FF"/>
	<stop  offset="1" style="stop-color:#7C48FF"/>
</linearGradient>
<path style="fill:url(#SVGID_86_);" d="M97.277,17.784c-0.043,0.133,0.34,0.415,1.142,0.675c0.802,0.26,1.126,0.645,1.087,0.766
	c0,0,0.204-0.632,0.267-0.824c0.057-0.175-0.285-0.506-1.087-0.766c-0.802-0.26-1.189-0.528-1.142-0.673
	C97.544,16.962,97.323,17.643,97.277,17.784z"/>
<linearGradient id="SVGID_87_" gradientUnits="userSpaceOnUse" x1="-4189.5483" y1="16.2265" x2="-4187.2554" y2="16.2265" gradientTransform="matrix(-1 0 0 1 -4089.2766 0)">
	<stop  offset="0" style="stop-color:#B459FF"/>
	<stop  offset="1" style="stop-color:#7C48FF"/>
</linearGradient>
<path style="fill:url(#SVGID_87_);" d="M97.992,15.576c-0.083,0.256,0.219,0.666,0.908,1.165c0.683,0.495,1.139,0.837,1.1,0.958
	c0,0,0.205-0.632,0.267-0.824c0.057-0.175-0.412-0.471-1.1-0.958c-0.681-0.482-0.984-0.93-0.908-1.164
	C98.258,14.754,98.038,15.435,97.992,15.576z"/>
<linearGradient id="SVGID_88_" gradientUnits="userSpaceOnUse" x1="-4190.1875" y1="10.977" x2="-4189.4946" y2="10.977" gradientTransform="matrix(-1 0 0 1 -4089.2766 0)">
	<stop  offset="0" style="stop-color:#B459FF"/>
	<stop  offset="1" style="stop-color:#7C48FF"/>
</linearGradient>
<path style="fill:url(#SVGID_88_);" d="M100.263,9.182c-0.256,1.296,0.681,3.039,0.236,4.414c0,0,0.204-0.632,0.267-0.824
	c0.486-1.502-0.414-3.861-0.235-4.414L100.263,9.182z"/>
<g>
	
		<linearGradient id="SVGID_89_" gradientUnits="userSpaceOnUse" x1="-4157.2583" y1="24.0768" x2="-4154.6519" y2="24.0768" gradientTransform="matrix(-1 0 0 1 -4089.2766 0)">
		<stop  offset="0" style="stop-color:#FF7300"/>
		<stop  offset="1" style="stop-color:#FFB500"/>
	</linearGradient>
	<path style="fill:url(#SVGID_89_);" d="M67.982,24.67c-0.062-0.246-2.294-0.031-2.39-0.359l-0.217-0.828
		c0.044,0.192,2.286,0.011,2.382,0.332L67.982,24.67z"/>
	
		<linearGradient id="SVGID_90_" gradientUnits="userSpaceOnUse" x1="-4157.2661" y1="24.7158" x2="-4155.561" y2="24.7158" gradientTransform="matrix(-1 0 0 1 -4089.2766 0)">
		<stop  offset="0" style="stop-color:#FF9D00"/>
		<stop  offset="1" style="stop-color:#FFCB00"/>
	</linearGradient>
	<path style="fill:url(#SVGID_90_);" d="M67.983,24.677c0.08,0.305-0.652,0.706-1.476,0.922l-0.222-0.847
		c0.825-0.217,1.563-0.594,1.477-0.921C67.761,23.832,67.945,24.532,67.983,24.677z"/>
	
		<linearGradient id="SVGID_91_" gradientUnits="userSpaceOnUse" x1="-4157.1221" y1="22.0689" x2="-4153.9639" y2="22.0689" gradientTransform="matrix(-1 0 0 1 -4089.2766 0)">
		<stop  offset="0" style="stop-color:#FF7300"/>
		<stop  offset="1" style="stop-color:#FFB500"/>
	</linearGradient>
	<path style="fill:url(#SVGID_91_);" d="M67.846,23.077c-0.117-0.445-2.825-0.742-2.942-1.188l-0.217-0.828
		c0.044,0.192,2.798,0.644,2.934,1.16L67.846,23.077z"/>
	
		<linearGradient id="SVGID_92_" gradientUnits="userSpaceOnUse" x1="-4156.3149" y1="17.1269" x2="-4153.0503" y2="17.1269" gradientTransform="matrix(-1 0 0 1 -4089.2766 0)">
		<stop  offset="0" style="stop-color:#FF7300"/>
		<stop  offset="1" style="stop-color:#FFB500"/>
	</linearGradient>
	<path style="fill:url(#SVGID_92_);" d="M67.038,19.81c-0.149-0.569-2.584-2.433-3.048-4.538l-0.217-0.828
		c0.186,0.712,2.571,2.729,3.04,4.511L67.038,19.81z"/>
	
		<linearGradient id="SVGID_93_" gradientUnits="userSpaceOnUse" x1="-4153.2573" y1="6.3962" x2="-4150.0684" y2="6.3962" gradientTransform="matrix(-1 0 0 1 -4089.2766 0)">
		<stop  offset="0" style="stop-color:#FF7300"/>
		<stop  offset="1" style="stop-color:#FFB500"/>
	</linearGradient>
	<path style="fill:url(#SVGID_93_);" d="M63.981,8.934c-0.15-0.569-2.431-2.187-2.972-4.249l-0.217-0.828
		c0.283,1.077,2.595,2.816,2.964,4.221L63.981,8.934z"/>
	
		<linearGradient id="SVGID_94_" gradientUnits="userSpaceOnUse" x1="-4157.1133" y1="23.2665" x2="-4154.6509" y2="23.2665" gradientTransform="matrix(-1 0 0 1 -4089.2766 0)">
		<stop  offset="0" style="stop-color:#FF9D00"/>
		<stop  offset="1" style="stop-color:#FFCB00"/>
	</linearGradient>
	<path style="fill:url(#SVGID_94_);" d="M67.834,23.035c0.035,0.131-0.352,0.384-1.145,0.593c-0.793,0.208-1.128,0.565-1.097,0.684
		c0,0-0.164-0.624-0.214-0.814c-0.045-0.173,0.304-0.476,1.097-0.684c0.793-0.208,1.184-0.448,1.146-0.591
		C67.621,22.222,67.798,22.895,67.834,23.035z"/>
	
		<linearGradient id="SVGID_95_" gradientUnits="userSpaceOnUse" x1="-4156.3345" y1="20.4408" x2="-4153.9521" y2="20.4408" gradientTransform="matrix(-1 0 0 1 -4089.2766 0)">
		<stop  offset="0" style="stop-color:#FF9D00"/>
		<stop  offset="1" style="stop-color:#FFCB00"/>
	</linearGradient>
	<path style="fill:url(#SVGID_95_);" d="M67.049,19.849c0.069,0.263-0.258,0.66-0.982,1.125c-0.717,0.461-1.198,0.781-1.165,0.905
		c0,0-0.171-0.649-0.222-0.847c-0.047-0.18,0.442-0.452,1.165-0.905c0.715-0.447,1.046-0.882,0.983-1.123
		C66.827,19.003,67.011,19.703,67.049,19.849z"/>
	
		<linearGradient id="SVGID_96_" gradientUnits="userSpaceOnUse" x1="-4153.4023" y1="11.7048" x2="-4152.6865" y2="11.7048" gradientTransform="matrix(-1 0 0 1 -4089.2766 0)">
		<stop  offset="0" style="stop-color:#FF9D00"/>
		<stop  offset="1" style="stop-color:#FFCB00"/>
	</linearGradient>
	<path style="fill:url(#SVGID_96_);" d="M63.963,8.867c0.489,1.86-0.313,5.11,0.059,6.523c0,0-0.171-0.649-0.222-0.846
		c-0.915-3.48,0.09-5.955-0.059-6.523L63.963,8.867z"/>
</g>
<path style="fill:#E32A3A;" d="M14.801,14.685c-0.522-0.204,0.693-1.267,0.653-1.836c0.115,0.02,0.224,0.065,0.319,0.144
	c0.413,0.349-0.482,1.233-0.65,1.73C15.015,14.736,14.907,14.727,14.801,14.685z"/>
<linearGradient id="SVGID_97_" gradientUnits="userSpaceOnUse" x1="-4106.6709" y1="14.4921" x2="-4104.0024" y2="14.4921" gradientTransform="matrix(-1 0 0 1 -4089.2766 0)">
	<stop  offset="0" style="stop-color:#FF616D"/>
	<stop  offset="1" style="stop-color:#FF3B5D"/>
</linearGradient>
<path style="fill:url(#SVGID_97_);" d="M17.395,14.36c0,0-0.156-0.128-0.315-0.098c-0.505,0.095-1.197,1.038-1.853,0.782
	c-0.024-0.009-0.045-0.02-0.062-0.033l0,0l-0.439-0.37c0,0,0.258,0.112,0.396,0.083c0.005-0.001,0.009-0.002,0.013-0.002
	c0.679-0.095,1.355-1.095,1.793-0.755l0,0L17.395,14.36z"/>
<linearGradient id="SVGID_98_" gradientUnits="userSpaceOnUse" x1="-4105.0723" y1="12.8668" x2="-4103.0269" y2="12.8668" gradientTransform="matrix(-1 0 0 1 -4089.2766 0)">
	<stop  offset="0" style="stop-color:#FF616D"/>
	<stop  offset="1" style="stop-color:#FF3B5D"/>
</linearGradient>
<path style="fill:url(#SVGID_98_);" d="M15.796,13.013c0,0-0.196-0.145-0.342-0.165c-0.003,0-0.005-0.001-0.008-0.001
	c-0.56-0.09-1.27,0.408-1.27,0.408l-0.426-0.358c0,0,1.023-0.718,1.581-0.275l0,0L15.796,13.013z"/>
</svg>
