<?xml version="1.0" encoding="iso-8859-1"?>
<!-- Generator: Adobe Illustrator 24.0.1, SVG Export Plug-In . SVG Version: 6.00 Build 0)  -->
<svg version="1.1" id="Layer_1" xmlns="http://www.w3.org/2000/svg" xmlns:xlink="http://www.w3.org/1999/xlink" x="0px" y="0px"
	 viewBox="0 0 1000 1000" style="enable-background:new 0 0 1000 1000;" xml:space="preserve">
<path style="fill:#FFFFFF;" d="M717.254,710.892c-0.059,0.53,0,0.979,0.14,1.396c0,0.055,0,0.086,0.027,0.113
	c0.109-0.086,0.195-0.168,0.308-0.253C717.589,711.703,717.422,711.285,717.254,710.892"/>
<path d="M446.823,783.195c-4.098-8.23-11.174-14.573-18.924-19.431c-28.836-17.945-64.919-17.522-96.367-28.36
	c-20.497-7.103-40.264-17.076-56.409-31.588c-9.493-8.536-17.609-18.535-26.957-27.237c-12.328-11.484-29.426-20.331-46.358-20.331
	c-8.029,0-16.032,1.996-23.476,6.627c-6.989,4.351-11.511,10.279-14.149,17.098c-7.051,18.225-1.066,42.736,5.587,59.755
	c16.395,41.67,49.223,76.373,88.7,97.376c27.521,14.63,62.141,24.205,95.777,24.205c21.929,0,43.466-4.071,62.337-13.477
	c11.847-5.897,22.489-14.769,28.696-26.481C451.432,809.676,452.694,795.016,446.823,783.195 M354.248,849.826
	c-30.103,0-63.067-8.339-90.387-22.882c-21.143-11.262-39.901-26.512-54.924-44.339c15.137-5.111,114.426-34.034,195.6,58.065
	C389.767,846.738,372.892,849.826,354.248,849.826"/>
<g>
	<path d="M351.694,607.253c-30.129,0-54.531,24.402-54.531,54.526c0,30.133,24.402,54.557,54.531,54.557
		s54.531-24.424,54.531-54.557C406.225,631.655,381.823,607.253,351.694,607.253z M383.675,679.808
		c-1.18,1.236-2.752,1.852-4.325,1.852c-1.49,0-2.949-0.533-4.128-1.625c-2.411-2.28-2.499-6.068-0.223-8.457
		c3.342-3.565,3.704-13.053,3.425-16.731c-0.564-6.714-7.02-13.031-9.436-14.883c-2.638-1.992-3.145-5.753-1.175-8.365
		c1.992-2.643,5.727-3.176,8.366-1.184c0.533,0.393,13.031,9.916,14.18,23.362C390.948,660.994,389.459,673.688,383.675,679.808z"/>
	<path d="M889.113,560.143c-9.204-29.399-27.905-49.223-59.358-54.95c-6.007-1.096-11.961-2.446-17.911-3.678
		c-1.769-0.367-3.543-0.734-5.308-1.07c-36.529-7.02-73.402-12.716-109.564-21.309c-57.169-13.533-110.237-37.682-162.046-65.198
		c-0.952-0.507-1.909-1.013-2.835-1.52c-58.882-31.531-113.439-68.794-160.303-116.584c-10.192-10.388-20.16-20.973-30.129-31.588
		c-15.809-16.875-31.505-33.89-47.677-50.459c-1.013-1.092-2.079-2.158-3.15-3.254c-9.964-10.139-21.196-20.051-33.694-26.507
		c-37.062-19.208-72.135-9.379-104.199,12.747c-24.485,16.879-37.429,41.701-36.166,71.603c0.673,15.752,4.155,32.038,9.715,46.838
		c13.673,36.559,39.648,64.438,68.287,89.993c0.196,0.166,0.424,0.306,0.646,0.446c-9.549,12.751-18.474,28.98-23.642,48.913
		c-7.107,27.237-7.217,61.437,7.636,103.195c-2.302,2.861-8.226,8.278-10.921,10.812c-3.032,2.774-4.831,4.403-5.814,5.613
		c-27.01,32.147-44.898,66.714-52.928,101.395c-5.644,24.258-6.43,48.577-2.189,72.162c6.54,35.943,24.878,70.537,52.954,100.019
		c55.343,57.951,139.693,90.806,226.432,90.806c10.698,0,21.423-0.367,32.064-1.402c37.516-3.678,74.944-15.053,108.834-31.483
		c23.393-11.34,45.912-25.21,65.26-42.509c20.409-18.251,38.158-39.394,53.124-62.28c3.621-5.526,7.077-11.148,10.305-16.901
		c3.224-5.753,6.291-11.594,9.152-17.552c0.17-0.336,0.337-0.699,0.533-1.066c13.647,4.299,29.544,0.533,39.844-9.431
		c10.305-9.969,14.63-25.726,10.812-39.538c-8.029-22.043-28.81-29.622-28.81-29.622c-8.649-4.351-18.422-6.373-28.049-5.81
		c-5.225,0.306-11.764,2.975-11.375,8.195c0.48,6.29,9.466,6.631,15.757,6.238c13.782-0.791,28.386,5.308,35.402,17.181
		c7.024,11.908,4.355,29.316-7.269,36.729c-13.787,8.816-32.772,0.926-43.549-11.375c-4.941-5.644-14.573-12.074-18.112-5.474
		c-1.883,3.482,0.503,7.723,3.058,10.755c5.701,6.85,12.664,12.69,20.387,17.128c-2.442,4.884-5.054,9.715-7.78,14.464
		c-5.897,10.192-12.38,20.042-19.426,29.482c-7.051,9.431-14.66,18.474-22.746,27.036c-8.086,8.536-16.683,16.652-25.664,24.262
		c-9.016,7.579-18.448,14.687-28.277,21.2c-9.798,6.513-19.99,12.498-30.465,17.858c-1.712,0.869-3.425,1.712-5.194,2.556
		c-11.934,5.98-24.402,11.231-37.175,15.163c-14.154,4.351-28.753,6.85-43.413,8.981c-12.297,1.8-24.681,2.896-37.118,3.285
		c-12.328,0.367-24.681,0.057-36.952-0.926c-12.188-1.009-24.288-2.665-36.28-4.993c-11.847-2.302-23.559-5.281-35.07-8.903
		c-11.345-3.569-22.519-7.776-33.388-12.638c-10.698-4.796-21.143-10.222-31.195-16.255c-9.886-5.985-19.4-12.555-28.473-19.771
		c-8.899-7.046-17.325-14.713-25.158-22.912c-26.254-27.547-43.326-59.694-49.363-92.968c-3.172-17.522-3.172-34.366-1.014-50.289
		c6.714-49.219,34.174-89.404,53.102-111.892c0.502-0.651,2.778-2.695,4.574-4.355c11.738-10.812,15.643-15.219,15.752-20.077
		c0.026-1.372,0.057-2.752,0.14-4.124c1.04-25.695,7.19-49.171,15.67-69.667c-1.376,10.471-2.162,21.034-2.473,31.649
		c-0.166,6.229,0.957,12.21,3.569,17.88c4.631,10.026,11.847,17.998,19.99,25.188c13.874,12.218,29.963,20.527,47.257,26.73
		c16.849,6.041,33.75,6.207,50.516,0.087c19.203-6.994,36.192-17.465,49.896-32.995c3.932-4.438,8.759-8.116,13.337-11.904
		c2.722-2.245,6.037-2.359,9.152-0.869c3.626,1.712,7.077,3.787,10.672,5.583c3.425,1.686,5.168,4.469,6.011,8.034
		c1.346,5.701,0.952,11.401-0.057,17.098c-2.219,12.695-3.399,25.446-2.389,38.333c1.04,13.083,3.962,25.691,11.319,36.668
		c18.474,27.63,44.588,43.579,77.299,48.437c16.202,2.416,31.758-0.28,45.938-9.043c8.51-5.246,15.359-12.467,22.069-19.767
		c6.544-7.129,13.031-14.35,19.771-21.283c0.926-0.952,1.905-1.878,2.918-2.726c0.563,24.371,1.433,48.607,0.537,73.459
		c-0.087,2.608-0.17,5.386,1.145,7.693c2.586,4.548,9.492,4.744,13.817,1.822c4.325-2.944,6.684-8.536,8.789-12.743
		c5.871-11.572,13-23.533,23.419-31.592c5.897-4.578,13.533-7.946,21.117-7.667c6.369,0.227,12.354,2.416,18.168,4.941
		c13.953,6.098,28.272,14.66,35.908,28.36c1.293,2.306,2.473,4.692,3.342,7.19c0,0.052,0,0.083,0.031,0.114
		c6.85-5.675,13.311-11.712,19.317-18.138c1.878,0.336,3.761,0.612,5.675,0.896c18.583,2.638,37.398,3.145,56.492,0.253
		c35.24-5.334,64.443-20.833,81.681-53.404C897.767,616.552,897.964,588.332,889.113,560.143z M378.246,536.837
		c-8.645,11.484-20.02,19.964-31.474,28.303c-6.208,4.548-13.005,8.003-20.3,10.475c-16.513,5.526-33.051,4.993-49.476-0.258
		c-16.342-5.19-30.802-13.813-43.3-25.437c-13.45-12.494-18.138-28.36-15.809-46.384c1.826-14.097,4.465-28.023,9.829-41.22
		c2.302-5.618,4.884-11.179,8.116-16.259c5.587-8.706,14.32-11.567,24.288-11.401c9.012,0.197,17.661,2.333,26.027,5.447
		c13.647,5.08,27.154,10.558,40.713,15.897c-0.083,0.192-0.166,0.419-0.223,0.616c17.915,8.846,33.781,20.47,47.087,35.432
		c2.276,2.586,4.351,5.421,6.177,8.344C387.822,513.082,387.232,524.929,378.246,536.837z M585.946,624.979
		c-5.447,13.026-13.616,24.284-23.135,34.563c-5.391,5.814-10.925,11.624-17.046,16.622c-12.804,10.388-27.656,13.734-43.776,10.082
		c-17.998-4.045-34.593-11.231-48.882-23.166c-17.972-15.049-27.661-34.253-28.25-57.755c-0.336-13.568-0.057-27.097,3.399-40.355
		c2.442-9.292,6.684-17.351,15.696-21.956c6.203-3.176,12.917-3.927,19.767-3.652c14.713,0.62,28.84,4.076,42.544,9.209
		c6.116,2.307,12.044,5.111,16.762,7.134c17.941,10.082,34.506,19.654,49.306,32.012c4.547,3.792,8.536,8.169,11.594,13.28
		C588.532,608.663,589.428,616.635,585.946,624.979z M596.981,523.754l-1.542,65.705c-0.502-0.367-0.983-0.76-1.49-1.127
		c-9.571-7.666-19.597-14.739-29.819-21.536c-16.932-11.288-35.69-18.443-54.92-24.454c-20.108-6.264-40.351-11.987-60.371-18.478
		c-20.558-6.653-39.678-16.285-56.693-29.736c-19.741-15.582-39.508-31.112-60.847-44.505
		c-14.066-8.815-28.417-17.185-44.309-22.152c-11.908-3.735-23.869-7.273-35.86-10.755c5.731-6.85,23.9-27.517,33.838-38.468
		c1.573,0.166,3.145,0.367,4.718,0.59c49.476,7.077,94.877,26.477,139.439,47.904c48.633,23.388,95.834,49.389,141.017,78.845
		c2.634,1.712,5.277,3.425,7.885,5.194c4.914,3.228,9.777,6.513,14.63,9.855c1.49,1.04,3.01,2.079,4.495,3.088L596.981,523.754z"/>
	<path d="M302.604,482.617c-12.76-5.146-26.756-5.006-39.416,0.384c-12.66,5.386-22.458,15.381-27.6,28.137
		c-1.35,3.359,0.271,7.177,3.63,8.527c3.359,1.359,7.173-0.271,8.527-3.63c7.911-19.636,30.325-29.177,49.961-21.265
		c19.636,7.907,29.177,30.321,21.265,49.962c-1.35,3.359,0.275,7.173,3.63,8.527c0.804,0.323,1.629,0.476,2.446,0.476
		c2.595,0,5.05-1.551,6.081-4.102C341.741,523.287,328.946,493.224,302.604,482.617z"/>
	<path d="M511.554,581.328c-12.76-5.142-26.761-5.006-39.416,0.385c-12.655,5.386-22.458,15.381-27.6,28.141
		c-1.35,3.359,0.275,7.173,3.635,8.523c3.351,1.354,7.169-0.271,8.523-3.63c3.831-9.514,11.139-16.963,20.575-20.982
		c9.436-4.015,19.872-4.115,29.386-0.284c9.514,3.831,16.967,11.139,20.981,20.575c4.019,9.436,4.12,19.876,0.284,29.386
		c-1.35,3.355,0.275,7.173,3.63,8.527c0.804,0.323,1.629,0.476,2.446,0.476c2.599,0,5.05-1.551,6.081-4.102
		c5.137-12.76,5.002-26.761-0.384-39.42C534.309,596.268,524.314,586.466,511.554,581.328z"/>
	<path d="M369.82,265.513c16.338,17.661,33.073,34.904,50.542,51.215c10.445,9.855,21.169,19.348,32.261,28.443
		c24.319,19.994,50.232,38.018,78.566,53.072c7.413,4.098,14.626,8.562,22.266,12.214c75.224,36.052,155.782,52.762,237.519,65.002
		c1.97,0.31,5.081-1.319,6.828-3.119c0.336-0.389,0.612-0.756,0.839-1.149c10.812-19.793,22.1-39.451,31.536-59.921
		c34.336-74.355,28.495-145.14-20.951-211.295c-23.415-31.308-53.067-55.819-85.782-76.849
		c-48.852-31.422-100.775-55.741-158.979-63.067c-64.076-8.06-121.638,7.19-169.599,52.167
		c-29.312,27.464-48.437,62.171-67.221,96.961c-0.14,0.249-0.223,0.533-0.28,0.843c-0.59,2.442,0.59,6.596,2.245,8.588
		C342.723,234.484,355.837,250.407,369.82,265.513z"/>
</g>
</svg>
