<?xml version="1.0" encoding="iso-8859-1"?>
<!-- Generator: Adobe Illustrator 24.0.1, SVG Export Plug-In . SVG Version: 6.00 Build 0)  -->
<svg version="1.1" id="Layer_1" xmlns="http://www.w3.org/2000/svg" xmlns:xlink="http://www.w3.org/1999/xlink" x="0px" y="0px"
	 viewBox="0 0 1000 1000" style="enable-background:new 0 0 1000 1000;" xml:space="preserve">
<g>
	<g>
		<path style="fill:#FFFFFF;" d="M218.037,516.728c-0.015,0.139,0,0.256,0.037,0.365c0,0.014,0,0.022,0.007,0.03
			c0.029-0.022,0.051-0.044,0.081-0.066C218.125,516.94,218.081,516.831,218.037,516.728"/>
	</g>
	<g>
		<path style="fill:#FFFFFF;" d="M256.703,494.459c-2.025,4.783-5.399,9.001-9.98,11.933c-4.882,3.127-10.616,4.698-16.374,5.037
			c-7.54,0.442-11.496-0.235-13.678,8.021c-1.448,5.477-7.414,9.331-12.992,7.867c-0.695-0.183-6.416,10.887-7.136,11.922
			c-19.751,28.41-61.176,38.098-92.641,25.346c-11.514-4.668-22.241-12.042-29.729-22.051c-7.23-9.666-11.272-21.934-9.959-33.932
			c1.213-11.09,6.769-21.114,13.227-29.996c2.002-2.753,3.23-3.545,2.642-6.934c-0.452-2.6-1.193-5.144-1.594-7.758
			c-0.642-4.198-0.672-8.326,0.405-12.458c1.205-4.628,1.433-8.346,4.233-12.18c0.276-0.382-3.083-3.46-3.393-3.77
			c-1.854-1.859-3.606-3.724-5.153-5.859c-4.816-6.639-8.405-14.91-7.893-23.242c0.46-7.477,3.946-14.997,9.765-19.797
			c6.737-5.555,15.842-7.081,24.075-4.372c5.262,1.731,10.007,4.71,14.728,7.615c2.409,1.477,12.569-17.474,14.267-19.504
			c6.199-7.413,14.88-12.615,24.148-15.195c25.875-7.204,58.385,4.522,77.272,22.734c15.633,15.074,23.118,37.163,17.049,58.333
			c-1.635,5.702-3.898,11.19-6.415,16.554c-1.342,2.857-3.335,4.482-0.857,6.593c2.052,1.749,5.654,2.124,8.015,3.503
			c3.26,1.905,5.697,5.005,7.372,8.388C259.747,478.61,259.784,487.188,256.703,494.459"/>
	</g>
	<g>
		<path style="fill:#ED332E;" d="M126.584,486.55c-7.033,0-12.73,5.697-12.73,12.729c0,7.034,5.697,12.736,12.73,12.736
			c7.033,0,12.73-5.702,12.73-12.736C139.314,492.247,133.617,486.55,126.584,486.55 M134.05,503.488
			c-0.275,0.289-0.642,0.432-1.01,0.432c-0.348,0-0.688-0.124-0.964-0.379c-0.563-0.532-0.583-1.416-0.052-1.974
			c0.78-0.832,0.865-3.047,0.799-3.906c-0.132-1.567-1.639-3.042-2.203-3.474c-0.616-0.465-0.734-1.343-0.274-1.953
			c0.465-0.617,1.337-0.741,1.953-0.276c0.124,0.092,3.042,2.315,3.31,5.454C135.748,499.095,135.4,502.059,134.05,503.488"/>
	</g>
	<g>
		<path d="M148.791,527.623c-0.957-1.921-2.609-3.402-4.418-4.536c-6.732-4.189-15.155-4.09-22.496-6.62
			c-4.785-1.658-9.399-3.986-13.168-7.374c-2.216-1.993-4.111-4.327-6.293-6.358c-2.878-2.681-6.869-4.746-10.822-4.746
			c-1.874,0-3.743,0.466-5.48,1.547c-1.632,1.016-2.687,2.4-3.303,3.991c-1.646,4.255-0.249,9.977,1.304,13.95
			c3.827,9.728,11.491,17.829,20.707,22.732c6.425,3.415,14.506,5.651,22.359,5.651c5.119,0,10.147-0.95,14.552-3.146
			c2.766-1.377,5.25-3.448,6.699-6.182C149.867,533.805,150.162,530.382,148.791,527.623 M127.18,543.178
			c-7.027,0-14.723-1.947-21.1-5.342c-4.936-2.629-9.315-6.189-12.822-10.351c3.534-1.193,26.712-7.945,45.662,13.555
			C135.472,542.457,131.532,543.178,127.18,543.178"/>
	</g>
	<g>
		<path d="M252.042,475.552c-2.149-6.863-6.514-11.491-13.857-12.828c-1.402-0.256-2.792-0.571-4.181-0.859
			c-0.413-0.086-0.827-0.171-1.239-0.25c-8.527-1.639-17.135-2.969-25.577-4.974c-13.346-3.159-25.734-8.797-37.829-15.22
			c-0.222-0.118-0.446-0.237-0.662-0.355c-13.746-7.361-26.482-16.06-37.422-27.216c-2.379-2.425-4.706-4.896-7.033-7.374
			c-3.691-3.939-7.355-7.911-11.13-11.78c-0.237-0.255-0.485-0.504-0.735-0.76c-2.326-2.367-4.948-4.681-7.866-6.188
			c-8.652-4.484-16.84-2.189-24.325,2.976c-5.716,3.94-8.738,9.735-8.443,16.715c0.157,3.677,0.97,7.479,2.268,10.934
			c3.192,8.535,9.256,15.043,15.941,21.009c0.046,0.039,0.099,0.071,0.151,0.104c-2.229,2.977-4.313,6.765-5.519,11.419
			c-1.659,6.358-1.685,14.342,1.783,24.09c-0.537,0.668-1.92,1.932-2.549,2.524c-0.708,0.648-1.128,1.028-1.357,1.31
			c-6.305,7.505-10.481,15.574-12.356,23.67c-1.318,5.663-1.501,11.34-0.511,16.846c1.527,8.391,5.808,16.466,12.362,23.349
			c12.92,13.528,32.611,21.198,52.86,21.198c2.497,0,5.001-0.086,7.485-0.327c8.758-0.859,17.495-3.514,25.407-7.35
			c5.461-2.647,10.718-5.885,15.235-9.924c4.764-4.261,8.908-9.196,12.402-14.539c0.845-1.29,1.652-2.603,2.406-3.946
			c0.753-1.343,1.468-2.706,2.136-4.097c0.04-0.079,0.079-0.163,0.124-0.249c3.186,1.003,6.897,0.124,9.301-2.202
			c2.406-2.327,3.415-6.005,2.524-9.23c-1.874-5.146-6.725-6.915-6.725-6.915c-2.019-1.016-4.3-1.488-6.548-1.356
			c-1.22,0.071-2.746,0.694-2.656,1.913c0.112,1.468,2.21,1.548,3.678,1.456c3.217-0.185,6.627,1.239,8.264,4.011
			c1.64,2.78,1.017,6.844-1.697,8.574c-3.218,2.058-7.65,0.216-10.166-2.656c-1.153-1.318-3.402-2.819-4.228-1.278
			c-0.44,0.813,0.117,1.803,0.714,2.511c1.331,1.599,2.956,2.962,4.759,3.999c-0.57,1.14-1.18,2.268-1.816,3.377
			c-1.377,2.379-2.89,4.679-4.535,6.883c-1.646,2.202-3.422,4.313-5.31,6.311c-1.888,1.993-3.895,3.887-5.991,5.664
			c-2.105,1.769-4.307,3.429-6.601,4.949c-2.287,1.521-4.667,2.918-7.112,4.169c-0.4,0.203-0.8,0.4-1.213,0.597
			c-2.786,1.396-5.697,2.622-8.678,3.54c-3.304,1.016-6.712,1.599-10.135,2.097c-2.871,0.42-5.762,0.676-8.665,0.767
			c-2.878,0.086-5.762,0.013-8.626-0.216c-2.845-0.236-5.67-0.622-8.469-1.166c-2.766-0.537-5.5-1.233-8.187-2.078
			c-2.648-0.833-5.257-1.815-7.794-2.95c-2.497-1.12-4.936-2.386-7.282-3.795c-2.308-1.397-4.529-2.931-6.647-4.616
			c-2.077-1.645-4.044-3.435-5.873-5.349c-6.129-6.431-10.114-13.935-11.524-21.703c-0.74-4.09-0.74-8.023-0.237-11.74
			c1.567-11.49,7.978-20.871,12.397-26.121c0.117-0.152,0.649-0.629,1.068-1.017c2.74-2.524,3.652-3.553,3.677-4.687
			c0.006-0.32,0.013-0.642,0.033-0.963c0.243-5.998,1.679-11.479,3.658-16.264c-0.321,2.444-0.505,4.91-0.577,7.388
			c-0.039,1.454,0.223,2.85,0.833,4.174c1.081,2.34,2.766,4.202,4.667,5.88c3.239,2.852,6.995,4.792,11.032,6.24
			c3.933,1.41,7.879,1.449,11.793,0.02c4.483-1.633,8.449-4.077,11.648-7.702c0.918-1.036,2.045-1.895,3.113-2.779
			c0.635-0.524,1.409-0.551,2.136-0.203c0.846,0.4,1.652,0.884,2.491,1.303c0.8,0.394,1.206,1.043,1.403,1.875
			c0.314,1.331,0.222,2.662-0.013,3.991c-0.518,2.964-0.793,5.94-0.558,8.949c0.243,3.054,0.925,5.997,2.642,8.56
			c4.313,6.45,10.409,10.173,18.045,11.307c3.782,0.564,7.414-0.065,10.724-2.111c1.987-1.225,3.586-2.91,5.152-4.615
			c1.528-1.664,3.042-3.35,4.616-4.968c0.216-0.222,0.445-0.439,0.681-0.636c0.132,5.689,0.335,11.347,0.125,17.149
			c-0.02,0.609-0.04,1.257,0.267,1.796c0.604,1.062,2.216,1.107,3.226,0.425c1.01-0.687,1.56-1.993,2.052-2.975
			c1.371-2.701,3.035-5.494,5.467-7.375c1.377-1.069,3.159-1.855,4.93-1.79c1.487,0.053,2.884,0.564,4.241,1.153
			c3.257,1.424,6.6,3.422,8.383,6.62c0.302,0.538,0.577,1.095,0.78,1.679c0,0.012,0,0.019,0.007,0.027
			c1.599-1.325,3.107-2.734,4.509-4.234c0.438,0.079,0.878,0.143,1.325,0.209c4.338,0.616,8.73,0.734,13.188,0.059
			c8.227-1.245,15.044-4.863,19.068-12.467C254.062,488.721,254.108,482.133,252.042,475.552 M132.782,470.112
			c-2.018,2.681-4.674,4.66-7.348,6.607c-1.449,1.062-3.036,1.868-4.739,2.445c-3.855,1.29-7.716,1.166-11.55-0.06
			c-3.815-1.212-7.191-3.225-10.108-5.938c-3.14-2.917-4.234-6.62-3.691-10.828c0.426-3.291,1.042-6.542,2.295-9.623
			c0.537-1.311,1.14-2.61,1.895-3.796c1.304-2.032,3.343-2.7,5.67-2.662c2.104,0.046,4.123,0.545,6.076,1.272
			c3.186,1.186,6.339,2.465,9.504,3.711c-0.019,0.045-0.039,0.098-0.052,0.144c4.182,2.065,7.886,4.779,10.992,8.271
			c0.531,0.604,1.016,1.266,1.442,1.948C135.018,464.566,134.88,467.332,132.782,470.112 M181.269,490.688
			c-1.272,3.041-3.179,5.669-5.401,8.069c-1.258,1.357-2.55,2.714-3.979,3.88c-2.989,2.425-6.456,3.206-10.219,2.354
			c-4.202-0.944-8.076-2.622-11.411-5.408c-4.195-3.513-6.457-7.996-6.595-13.483c-0.079-3.167-0.013-6.326,0.793-9.421
			c0.57-2.169,1.56-4.051,3.664-5.125c1.448-0.741,3.016-0.917,4.615-0.853c3.435,0.145,6.733,0.951,9.932,2.15
			c1.428,0.538,2.812,1.193,3.913,1.665c4.188,2.354,8.055,4.588,11.51,7.473c1.062,0.885,1.993,1.907,2.706,3.1
			C181.873,486.879,182.082,488.74,181.269,490.688 M183.137,482.133c-2.234-1.79-4.575-3.441-6.961-5.028
			c-3.953-2.635-8.332-4.306-12.821-5.709c-4.694-1.462-9.42-2.798-14.093-4.314c-4.799-1.553-9.263-3.802-13.235-6.942
			c-4.608-3.638-9.223-7.263-14.205-10.39c-3.284-2.058-6.634-4.012-10.344-5.171c-2.78-0.872-5.572-1.698-8.371-2.511
			c1.338-1.599,5.579-6.424,7.899-8.98c0.367,0.039,0.734,0.086,1.101,0.138c11.55,1.652,22.149,6.181,32.552,11.183
			c11.353,5.46,22.372,11.53,32.92,18.406c0.615,0.4,1.232,0.8,1.841,1.213c1.147,0.754,2.282,1.521,3.415,2.301
			c0.348,0.243,0.703,0.485,1.049,0.721l-0.04,0.007l-0.36,15.339C183.368,482.31,183.256,482.219,183.137,482.133"/>
	</g>
	<g>
		<path d="M120.364,474.056c-0.191,0-0.383-0.036-0.571-0.111c-0.783-0.316-1.163-1.206-0.847-1.991
			c1.847-4.585-0.38-9.817-4.964-11.663c-4.584-1.847-9.816,0.38-11.663,4.964c-0.316,0.784-1.206,1.165-1.991,0.847
			c-0.784-0.315-1.163-1.206-0.847-1.991c1.2-2.978,3.488-5.311,6.443-6.568c2.955-1.258,6.223-1.291,9.202-0.09
			c6.149,2.476,9.136,9.494,6.659,15.645C121.543,473.694,120.969,474.056,120.364,474.056"/>
	</g>
	<g>
		<path d="M169.142,497.1c-0.191,0-0.383-0.036-0.571-0.111c-0.783-0.316-1.163-1.207-0.847-1.991
			c0.895-2.22,0.872-4.657-0.066-6.86c-0.937-2.203-2.677-3.909-4.898-4.803c-2.221-0.894-4.657-0.871-6.86,0.066
			c-2.203,0.938-3.909,2.677-4.803,4.898c-0.316,0.784-1.207,1.164-1.99,0.847c-0.784-0.315-1.164-1.205-0.848-1.99
			c1.2-2.979,3.489-5.312,6.443-6.569c2.954-1.258,6.223-1.29,9.202-0.09c2.979,1.199,5.312,3.488,6.569,6.442
			c1.257,2.955,1.289,6.224,0.09,9.203C170.321,496.738,169.749,497.1,169.142,497.1"/>
	</g>
	<g>
		<path d="M238.283,440.798c-2.203,4.779-4.838,9.368-7.362,13.988c-0.053,0.092-0.117,0.177-0.196,0.268
			c-0.408,0.42-1.134,0.801-1.594,0.728c-19.081-2.857-37.887-6.758-55.448-15.174c-1.784-0.853-3.467-1.895-5.198-2.851
			c-6.614-3.514-12.664-7.722-18.341-12.389c-2.589-2.123-5.093-4.339-7.531-6.64c-4.078-3.808-7.985-7.833-11.799-11.956
			c-3.264-3.526-6.326-7.244-9.387-10.947c-0.386-0.465-0.662-1.435-0.524-2.005c0.013-0.072,0.033-0.139,0.065-0.197
			c4.385-8.122,8.85-16.224,15.692-22.635c11.196-10.5,24.634-14.06,39.592-12.178c13.588,1.71,25.709,7.387,37.113,14.723
			c7.637,4.909,14.559,10.631,20.026,17.94C244.935,406.916,246.299,423.44,238.283,440.798"/>
	</g>
	<g>
		<g>
			<g>
				<g>
					<path style="fill:#FFFFFF;" d="M359.67,423.491c0.312,8.97-0.312,17.483-1.869,25.54c-8.102,0.045-15.525,0.479-22.269,1.302
						c-0.824,16.56-1.101,40.487-0.835,71.78c-8.258,1.18-16.415,1.87-24.472,2.07l1.803-72.949
						c-6.944,0.267-14.689,1.046-23.236,2.337c-0.957-5.72-1.147-14.912-0.568-27.577
						C311.928,425.883,335.743,425.049,359.67,423.491z"/>
				</g>
				<g>
					<path style="fill:#FFFFFF;" d="M304.995,529.413l1.798-72.779c-5.309,0.386-11.084,1.049-17.24,1.978l-4.962,0.749l-0.829-4.95
						c-1.027-6.137-1.234-15.509-0.632-28.652l0.222-4.843l4.848-0.023c23.492-0.11,47.426-0.949,71.138-2.493l5.245-0.342
						l0.182,5.252c0.324,9.31-0.336,18.288-1.959,26.686l-0.794,4.108l-4.185,0.023c-6.188,0.034-12.021,0.305-17.401,0.805
						c-0.661,16.175-0.873,38.723-0.631,67.135l0.038,4.46l-4.416,0.631c-8.417,1.203-16.85,1.916-25.066,2.12L304.995,529.413z
						 M317.259,445.931l-1.803,72.948c4.661-0.244,9.378-0.655,14.107-1.23c-0.203-29.085,0.092-51.799,0.875-67.569l0.213-4.288
						l4.262-0.52c5.697-0.695,11.93-1.123,18.576-1.278c0.723-4.844,1.108-9.887,1.153-15.078
						c-20.516,1.243-41.164,1.963-61.515,2.144c-0.217,6.807-0.17,12.402,0.137,16.729c6.691-0.879,12.917-1.433,18.565-1.65
						L317.259,445.931z"/>
				</g>
			</g>
			<g>
				<g>
					<path style="fill:#FFFFFF;" d="M388.917,422.389c13.02,6.9,14.734,15.525,5.141,25.874c-6.321,2.894-12.519,3.951-18.596,3.172
						c-3.383-0.556-6.588-2.638-9.615-6.243c-1.58-2.048-2.215-4.952-1.902-8.714c0.867-7.278,4.718-11.73,11.551-13.355
						C379.301,422.211,383.775,421.966,388.917,422.389z M398.197,457.611c-2.114,23.192-4.207,44.771-6.276,64.735
						c-6.188,1.469-11.68,2.209-16.476,2.22c-4.797,0.011-7.318-0.017-7.563-0.084c-1.58-14.356-2.526-36.279-2.837-65.77
						C371.388,456.776,382.439,456.409,398.197,457.611z"/>
				</g>
				<g>
					<path style="fill:#FFFFFF;" d="M373.238,529.669c-5.72,0-5.986-0.073-6.695-0.266l-3.349-0.912l-0.379-3.45
						c-1.591-14.449-2.555-36.747-2.868-66.275l-0.04-3.816l3.65-1.114c0.977-0.298,2.04-0.563,3.19-0.795
						c-1.669-1.222-3.273-2.747-4.805-4.571l-0.131-0.163c-2.375-3.078-3.367-7.2-2.947-12.251l0.018-0.181
						c1.126-9.453,6.464-15.578,15.434-17.712c4.305-1.032,9.36-1.321,15.019-0.856l1.045,0.086l0.925,0.49
						c8.094,4.289,12.716,9.53,13.742,15.577c0.994,5.861-1.445,12.007-7.249,18.268l-0.641,0.692
						c0.472,0.034,0.949,0.069,1.429,0.106l5.161,0.393l-0.47,5.154c-2.104,23.077-4.218,44.878-6.282,64.798l-0.373,3.6
						l-3.521,0.836c-6.54,1.553-12.475,2.346-17.641,2.358C374.639,529.668,373.902,529.669,373.238,529.669z M372.504,519.469
						c0.809,0,1.774,0.001,2.929-0.002c3.472-0.008,7.427-0.45,11.794-1.316c1.785-17.357,3.602-36.086,5.416-55.803
						c-11.205-0.638-18.153-0.249-22.451,0.433C370.507,487.082,371.284,506.106,372.504,519.469z M368.437,519.42L368.437,519.42
						L368.437,519.42z M376.209,446.389c4.832,0.601,9.681-0.168,14.788-2.348c2.239-2.565,4.488-5.966,3.995-8.876
						c-0.534-3.148-4.216-5.892-7.549-7.772c-4.138-0.264-7.751-0.033-10.76,0.688c-4.738,1.127-7.033,3.793-7.665,8.909
						c-0.18,2.303,0.101,4.034,0.816,5.019C371.986,444.547,374.13,446.02,376.209,446.389z"/>
				</g>
			</g>
			<g>
				<g>
					<path style="fill:#FFFFFF;" d="M471.948,434.475c5.274,6.989,9.102,15.157,11.485,24.505c1.246,5.676,1.803,11.329,1.669,16.96
						c-3.651,34.477-20.11,50.346-49.378,47.609c-8.369-1.781-15.002-6.989-19.898-15.625c-3.294-6.454-5.253-13.465-5.877-21.033
						c-0.601-8.146,0.2-16.47,2.404-24.973c2.114-6.899,4.207-12.163,6.277-15.792c0.489-1.402,2.303-4.084,5.442-8.046
						C441.253,419.317,457.212,418.115,471.948,434.475z M433.887,486.39c1.736,9.037,5.598,13.644,11.585,13.822
						c5.275,0.557,9.504-2.203,12.687-8.28c3.495-7.745,4.295-15.524,2.404-23.337c-2.582-9.926-6.432-14.801-11.552-14.623
						c-6.476,0.913-11.184,6.644-14.122,17.194C433.53,476.574,433.197,481.649,433.887,486.39z"/>
				</g>
				<g>
					<path style="fill:#FFFFFF;" d="M441.791,528.939c-2.215,0-4.402-0.113-6.543-0.314l-0.587-0.089
						c-9.818-2.09-17.649-8.179-23.272-18.098l-0.106-0.197c-3.583-7.019-5.742-14.735-6.417-22.932
						c-0.642-8.711,0.217-17.669,2.55-26.671l0.061-0.215c2.18-7.115,4.316-12.51,6.525-16.473c0.599-1.47,1.947-3.829,6.071-9.037
						l0.237-0.278c10.142-11.075,20.32-16.691,30.251-16.691c0.037,0,0.073,0,0.109,0c8.827,0.036,17.26,4.45,25.065,13.116
						l0.282,0.341c5.66,7.5,9.816,16.354,12.355,26.317l0.04,0.166c1.328,6.048,1.929,12.163,1.787,18.174l-0.027,0.416
						C485.684,518.861,462.656,528.939,441.791,528.939z M436.503,518.499c26.262,2.343,40.104-11.293,43.505-42.887
						c0.105-5.102-0.413-10.3-1.539-15.456c-2.184-8.531-5.702-16.077-10.459-22.433c-5.754-6.333-11.601-9.556-17.382-9.579
						c-0.022,0-0.045,0-0.066,0c-6.918,0-14.523,4.456-22.609,13.246c-3.843,4.865-4.46,6.289-4.518,6.437l-0.153,0.442
						l-0.224,0.384c-1.864,3.267-3.814,8.196-5.798,14.651c-2.032,7.883-2.781,15.693-2.227,23.212
						c0.56,6.784,2.337,13.187,5.282,18.99C424.432,512.72,429.73,516.974,436.503,518.499z M446.794,505.381
						c-0.574,0-1.13-0.029-1.666-0.08c-5.932-0.242-13.489-3.586-16.248-17.95l-0.039-0.228c-0.783-5.382-0.412-11.169,1.102-17.2
						l0.034-0.125c3.517-12.634,9.682-19.657,18.321-20.875l0.535-0.047c7.787-0.259,13.412,5.931,16.664,18.435
						c2.177,8.989,1.265,17.95-2.691,26.717l-0.131,0.269C458.005,503.214,451.76,505.381,446.794,505.381z M438.916,485.543
						c1.839,9.428,5.374,9.533,6.707,9.572l0.383,0.026c1.331,0.138,4.423,0.468,7.567-5.445c2.989-6.694,3.654-13.205,2.034-19.901
						c-1.678-6.445-4.043-10.533-6.203-10.721c-4.091,0.775-7.315,5.28-9.585,13.398
						C438.653,477.137,438.35,481.534,438.916,485.543z"/>
				</g>
			</g>
			<g>
				<g>
					<path style="fill:#FFFFFF;" d="M582.523,443.722c4.941,13.6,1.791,23.282-9.449,29.046c5.208,2.115,9.271,4.786,12.187,8.012
						c2.938,4.519,4.207,9.744,3.805,15.675c-0.4,5.932-2.727,10.879-6.977,14.84c-2.092,2.315-4.419,4.14-6.978,5.475
						c-5.787,3.272-10.728,5.175-14.823,5.709c-2.938,1.536-9.427,2.415-19.465,2.638c-3.985,0.022-9.037-0.601-15.157-1.869
						c-6.121-1.269-9.17-1.981-9.147-2.137c-0.357-32.606,0.211-63.344,1.702-92.212c5.564-2.804,14.1-4.663,25.607-5.575
						C563.837,422.745,576.735,429.545,582.523,443.722z M543.528,466.392c12.82,0.979,18.851-2.293,18.095-9.816
						c-0.313-2.915-1.793-4.841-4.441-5.776c-4.897-1.224-9.615-0.835-14.156,1.169
						C542.982,456.955,543.148,461.762,543.528,466.392z M544.496,501.68c15.424,1.848,22.98-1.669,22.669-10.55
						c-0.646-3.339-2.804-5.453-6.477-6.343c-5.12-1.291-10.628-0.768-16.526,1.569C544.05,492.166,544.162,497.274,544.496,501.68z
						"/>
				</g>
				<g>
					<path style="fill:#FFFFFF;" d="M540.683,530.216c-4.416,0-9.643-0.647-16.052-1.975c-3.087-0.64-5.443-1.149-7.003-1.514
						c-2.14-0.5-6.507-1.52-6.211-5.834c-0.35-32.455,0.226-63.495,1.712-92.257l0.152-2.957l2.645-1.333
						c6.216-3.134,15.212-5.131,27.498-6.105l0.256-0.014c22.264-0.636,36.916,7.286,43.563,23.569l0.072,0.186
						c5.396,14.851,1.64,24.238-4.482,30.125c2.395,1.576,4.472,3.332,6.21,5.256l0.271,0.3l0.221,0.34
						c3.539,5.444,5.093,11.769,4.617,18.798c-0.483,7.163-3.318,13.244-8.427,18.076c-2.432,2.656-5.183,4.8-8.178,6.375
						c-6.021,3.397-11.189,5.419-15.761,6.163c-2.645,1.159-7.872,2.515-20.851,2.802
						C540.852,530.216,540.767,530.216,540.683,530.216z M521.578,517.166c1.207,0.266,2.86,0.62,5.122,1.089
						c5.741,1.19,10.437,1.768,14.095,1.763c12.43-0.276,16.123-1.531,17.13-2.057l0.804-0.421l0.899-0.117
						c3.422-0.446,7.786-2.159,12.972-5.091l0.15-0.082c2.011-1.049,3.88-2.521,5.555-4.374l0.306-0.311
						c3.298-3.074,5.054-6.821,5.367-11.454c0.317-4.691-0.591-8.69-2.776-12.209c-2.372-2.51-5.75-4.666-10.047-6.411
						l-10.307-4.185l9.899-5.077c5.973-3.063,12.164-8.409,7.017-22.673c-4.95-12.017-15.951-17.629-33.663-17.141
						c-8.983,0.72-16.008,2.024-20.947,3.887C521.85,458.895,521.321,487.409,521.578,517.166z M551.711,507.251
						c-2.39,0-4.995-0.17-7.822-0.508l-4.162-0.498l-0.316-4.179c-0.346-4.56-0.462-9.879-0.348-15.808l0.066-3.392l3.154-1.25
						c6.886-2.728,13.495-3.323,19.651-1.773c5.558,1.347,9.21,5.016,10.237,10.318l0.076,0.392l0.014,0.399
						c0.208,5.944-2.295,9.533-4.432,11.497C564.334,505.662,559.025,507.251,551.711,507.251z M549.338,496.991
						c7.906,0.419,10.701-1.231,11.591-2.05c0.316-0.291,1.126-1.036,1.146-3.214c-0.222-0.824-0.715-1.53-2.588-1.984
						c-3.227-0.814-6.603-0.722-10.267,0.283C549.213,492.489,549.252,494.816,549.338,496.991z M547.629,471.657
						c-1.415,0-2.911-0.061-4.489-0.181l-4.338-0.331l-0.356-4.337c-0.389-4.753-0.564-9.762-0.518-14.885l0.03-3.291l3.011-1.328
						c5.582-2.461,11.451-2.95,17.451-1.45l0.461,0.138c4.514,1.594,7.289,5.16,7.813,10.04c0.547,5.446-1.534,8.83-3.374,10.715
						C560.106,470.038,554.95,471.657,547.629,471.657z M548.132,455.609c0.025,1.979,0.086,3.932,0.181,5.848
						c5.505-0.089,7.256-1.371,7.709-1.835c0.194-0.199,0.709-0.727,0.528-2.537c-0.105-0.967-0.359-1.203-0.855-1.4
						C553.08,455.068,550.582,455.041,548.132,455.609z"/>
				</g>
			</g>
			<g>
				<g>
					<path style="fill:#FFFFFF;" d="M649.495,422.756l1.469,8.38l16.56,87.338c-4.251,2.314-12.052,3.606-23.404,3.872
						c-2.359-10.883-3.661-16.826-3.906-17.828l-0.968-4.708c-2.516-0.556-7.09-0.556-13.722,0
						c-2.648,10.06-4.573,17.449-5.775,22.168c-8.258,2.048-17.083,1.079-26.476-2.904c6.633-22.614,10.544-35.662,11.736-39.145
						c1.19-3.483,3.8-12.659,7.829-27.527l6.778-24.138C626.869,423.813,636.83,421.977,649.495,422.756z M633.035,460.983
						c-1.803,9.326-3.35,16.638-4.64,21.934c2.781-0.111,5.898-0.167,9.347-0.167C636.295,474.204,634.727,466.948,633.035,460.983z
						"/>
				</g>
				<g>
					<path style="fill:#FFFFFF;" d="M611.165,528.116c-6.405,0-13.058-1.452-19.884-4.347l-4.18-1.773l1.278-4.357
						c6.715-22.895,10.576-35.77,11.803-39.36c1.152-3.372,3.755-12.528,7.732-27.211l7.331-26.106l1.702-1.045
						c8.132-4.989,19.192-7.092,32.86-6.252l4.015,0.247l2.163,12.342l17.24,90.92l-3.265,1.777
						c-5.021,2.733-13.435,4.203-25.723,4.491l-4.211,0.099l-0.892-4.116c-2.341-10.803-3.646-16.757-3.875-17.696l-0.256-1.227
						c-1.325-0.03-3.1-0.005-5.478,0.132c-2.164,8.239-3.789,14.487-4.837,18.602l-0.754,2.956l-2.961,0.734
						C617.781,527.721,614.507,528.116,611.165,528.116z M599.5,515.963c5.645,1.817,11.035,2.365,16.107,1.636
						c1.198-4.648,2.869-11.046,4.985-19.086l0.916-3.482l3.588-0.301c7.314-0.613,12.16-0.58,15.249,0.102l3.228,0.714l1.617,7.861
						c0.173,0.727,0.724,3.178,3.007,13.687c6.515-0.336,10.762-1.043,13.53-1.815l-15.773-83.192l-0.771-4.395
						c-8.747-0.138-15.835,1.205-21.229,3.98l-6.209,22.111c-4.079,15.059-6.671,24.167-7.912,27.798
						C608.751,484.741,605.278,496.301,599.5,515.963z M621.841,488.282l1.599-6.571c1.27-5.211,2.812-12.511,4.588-21.695
						l4.065-21.034l5.847,20.61c1.732,6.108,3.357,13.613,4.829,22.308l1.008,5.95h-6.035c-3.362,0-6.438,0.055-9.144,0.163
						L621.841,488.282z"/>
				</g>
			</g>
			<g>
				<g>
					<path style="fill:#FFFFFF;" d="M739.804,423.491c0.312,8.97-0.312,17.483-1.869,25.54c-8.102,0.045-15.525,0.479-22.269,1.302
						c-0.824,16.56-1.102,40.487-0.835,71.78c-8.258,1.18-16.415,1.87-24.472,2.07l1.803-72.949
						c-6.944,0.267-14.689,1.046-23.236,2.337c-0.957-5.72-1.147-14.912-0.568-27.577
						C692.062,425.883,715.878,425.049,739.804,423.491z"/>
				</g>
				<g>
					<path style="fill:#FFFFFF;" d="M685.13,529.413l1.798-72.779c-5.309,0.386-11.084,1.049-17.24,1.978l-4.963,0.749l-0.829-4.95
						c-1.027-6.137-1.234-15.509-0.632-28.652l0.222-4.843l4.848-0.023c23.492-0.11,47.426-0.949,71.138-2.493l5.245-0.342
						l0.182,5.252c0.324,9.31-0.336,18.288-1.959,26.686l-0.794,4.108l-4.185,0.023c-6.188,0.034-12.021,0.305-17.401,0.805
						c-0.661,16.175-0.873,38.723-0.631,67.135l0.038,4.46l-4.416,0.631c-8.417,1.203-16.85,1.916-25.066,2.12L685.13,529.413z
						 M697.393,445.931l-1.803,72.948c4.661-0.244,9.378-0.655,14.107-1.23c-0.203-29.085,0.092-51.799,0.875-67.569l0.213-4.288
						l4.262-0.52c5.697-0.695,11.93-1.123,18.576-1.278c0.723-4.844,1.108-9.887,1.153-15.078
						c-20.516,1.243-41.164,1.963-61.515,2.144c-0.217,6.807-0.17,12.402,0.137,16.729c6.691-0.879,12.917-1.433,18.565-1.65
						L697.393,445.931z"/>
				</g>
			</g>
			<g>
				<g>
					<path style="fill:#FFFFFF;" d="M775.862,422.756l1.469,8.38l16.56,87.338c-4.251,2.314-12.052,3.606-23.404,3.872
						c-2.359-10.883-3.661-16.826-3.906-17.828l-0.968-4.708c-2.516-0.556-7.09-0.556-13.722,0
						c-2.648,10.06-4.573,17.449-5.775,22.168c-8.258,2.048-17.083,1.079-26.476-2.904c6.633-22.614,10.544-35.662,11.735-39.145
						c1.19-3.483,3.8-12.659,7.829-27.527l6.778-24.138C753.236,423.813,763.197,421.977,775.862,422.756z M759.402,460.983
						c-1.803,9.326-3.35,16.638-4.64,21.934c2.781-0.111,5.898-0.167,9.347-0.167C762.662,474.204,761.094,466.948,759.402,460.983z
						"/>
				</g>
				<g>
					<path style="fill:#FFFFFF;" d="M737.532,528.116c-6.405,0-13.058-1.452-19.884-4.347l-4.18-1.773l1.278-4.357
						c6.715-22.895,10.576-35.77,11.803-39.36c1.152-3.372,3.755-12.528,7.732-27.211l7.331-26.106l1.702-1.045
						c8.132-4.989,19.191-7.092,32.86-6.252l4.015,0.247l2.163,12.342l17.24,90.92l-3.265,1.777
						c-5.021,2.733-13.435,4.203-25.723,4.491l-4.211,0.099l-0.892-4.116c-2.341-10.803-3.646-16.757-3.875-17.696l-0.256-1.227
						c-1.323-0.03-3.1-0.005-5.478,0.132c-2.164,8.239-3.789,14.487-4.837,18.602l-0.754,2.956l-2.961,0.734
						C744.148,527.721,740.873,528.116,737.532,528.116z M725.866,515.963c5.645,1.817,11.035,2.365,16.107,1.636
						c1.198-4.648,2.869-11.046,4.985-19.086l0.916-3.482l3.588-0.301c7.315-0.613,12.16-0.58,15.249,0.102l3.228,0.714l1.617,7.861
						c0.173,0.727,0.724,3.178,3.007,13.687c6.515-0.336,10.761-1.043,13.53-1.815l-15.773-83.192l-0.771-4.395
						c-8.735-0.138-15.836,1.205-21.229,3.98l-6.209,22.111c-4.079,15.059-6.671,24.167-7.912,27.798
						C735.118,484.741,731.644,496.301,725.866,515.963z M748.208,488.282l1.599-6.571c1.27-5.211,2.812-12.511,4.588-21.695
						l4.065-21.034l5.847,20.61c1.732,6.108,3.357,13.613,4.829,22.308l1.008,5.95h-6.035c-3.362,0-6.438,0.055-9.144,0.163
						L748.208,488.282z"/>
				</g>
			</g>
			<g>
				<g>
					<path style="fill:#FFFFFF;" d="M866.171,423.491c0.312,8.97-0.312,17.483-1.869,25.54c-8.102,0.045-15.525,0.479-22.269,1.302
						c-0.824,16.56-1.101,40.487-0.835,71.78c-8.258,1.18-16.415,1.87-24.472,2.07l1.803-72.949
						c-6.944,0.267-14.689,1.046-23.236,2.337c-0.957-5.72-1.147-14.912-0.568-27.577
						C818.429,425.883,842.244,425.049,866.171,423.491z"/>
				</g>
				<g>
					<path style="fill:#FFFFFF;" d="M811.497,529.413l1.798-72.779c-5.309,0.386-11.084,1.049-17.24,1.978l-4.963,0.749l-0.829-4.95
						c-1.027-6.137-1.234-15.509-0.632-28.652l0.222-4.843l4.848-0.023c23.492-0.11,47.426-0.949,71.138-2.493l5.245-0.342
						l0.182,5.252c0.324,9.31-0.336,18.288-1.959,26.686l-0.794,4.108l-4.185,0.023c-6.188,0.034-12.021,0.305-17.401,0.805
						c-0.661,16.175-0.873,38.723-0.631,67.135l0.038,4.46l-4.416,0.631c-8.417,1.203-16.85,1.916-25.066,2.12L811.497,529.413z
						 M823.76,445.931l-1.803,72.948c4.661-0.244,9.378-0.655,14.107-1.23c-0.203-29.085,0.092-51.799,0.875-67.569l0.213-4.288
						l4.262-0.52c5.698-0.695,11.93-1.123,18.576-1.278c0.723-4.844,1.108-9.887,1.153-15.078
						c-20.516,1.243-41.164,1.963-61.515,2.144c-0.217,6.807-0.17,12.402,0.137,16.729c6.691-0.879,12.917-1.433,18.565-1.65
						L823.76,445.931z"/>
				</g>
			</g>
			<g>
				<g>
					<path style="fill:#FFFFFF;" d="M902.228,422.756l1.469,8.38l16.56,87.338c-4.251,2.314-12.052,3.606-23.404,3.872
						c-2.359-10.883-3.661-16.826-3.906-17.828l-0.968-4.708c-2.516-0.556-7.09-0.556-13.722,0
						c-2.648,10.06-4.573,17.449-5.775,22.168c-8.258,2.048-17.083,1.079-26.476-2.904c6.633-22.614,10.544-35.662,11.735-39.145
						c1.19-3.483,3.8-12.659,7.829-27.527l6.778-24.138C879.602,423.813,889.563,421.977,902.228,422.756z M885.768,460.983
						c-1.803,9.326-3.35,16.638-4.64,21.934c2.781-0.111,5.898-0.167,9.347-0.167C889.028,474.204,887.46,466.948,885.768,460.983z"
						/>
				</g>
				<g>
					<path style="fill:#FFFFFF;" d="M863.898,528.116c-6.405,0-13.058-1.452-19.884-4.347l-4.18-1.773l1.278-4.357
						c6.715-22.895,10.576-35.77,11.803-39.36c1.152-3.372,3.755-12.528,7.732-27.211l7.331-26.106l1.702-1.045
						c8.132-4.989,19.191-7.092,32.86-6.252l4.015,0.247l2.163,12.342l17.24,90.92l-3.265,1.777
						c-5.021,2.733-13.435,4.203-25.723,4.491l-4.211,0.099l-0.892-4.116c-2.341-10.803-3.646-16.757-3.875-17.696l-0.256-1.227
						c-1.325-0.03-3.099-0.005-5.478,0.132c-2.164,8.239-3.789,14.487-4.837,18.602l-0.754,2.956l-2.961,0.734
						C870.514,527.721,867.239,528.116,863.898,528.116z M852.232,515.963c5.645,1.817,11.034,2.365,16.107,1.636
						c1.198-4.648,2.869-11.046,4.985-19.086l0.916-3.482l3.588-0.301c7.314-0.613,12.16-0.58,15.249,0.102l3.228,0.714l1.617,7.861
						c0.173,0.727,0.724,3.178,3.007,13.687c6.515-0.336,10.762-1.043,13.53-1.815l-15.773-83.192l-0.771-4.395
						c-8.745-0.138-15.836,1.205-21.229,3.98l-6.209,22.111c-4.079,15.059-6.671,24.167-7.912,27.798
						C861.484,484.741,858.01,496.301,852.232,515.963z M874.574,488.282l1.599-6.571c1.27-5.211,2.812-12.511,4.588-21.695
						l4.065-21.034l5.847,20.61c1.732,6.108,3.357,13.613,4.829,22.308l1.008,5.95h-6.035c-3.362,0-6.438,0.055-9.144,0.163
						L874.574,488.282z"/>
				</g>
			</g>
		</g>
		<g>
			<path d="M359.67,423.491c0.312,8.97-0.312,17.483-1.87,25.541c-8.102,0.045-15.524,0.479-22.269,1.302
				c-0.823,16.56-1.102,40.486-0.834,71.78c-8.258,1.18-16.415,1.869-24.472,2.07l1.803-72.949
				c-6.944,0.267-14.69,1.047-23.237,2.337c-0.958-5.72-1.146-14.912-0.568-27.577C311.929,425.884,335.744,425.049,359.67,423.491z
				"/>
			<path d="M388.917,422.39c13.021,6.9,14.734,15.524,5.142,25.874c-6.321,2.894-12.52,3.951-18.596,3.172
				c-3.383-0.556-6.588-2.638-9.615-6.243c-1.581-2.048-2.215-4.952-1.903-8.714c0.868-7.278,4.718-11.729,11.552-13.354
				C379.301,422.211,383.775,421.967,388.917,422.39z M398.198,457.612c-2.115,23.192-4.207,44.771-6.276,64.736
				c-6.188,1.469-11.68,2.209-16.476,2.221c-4.796,0.01-7.317-0.018-7.562-0.084c-1.581-14.355-2.526-36.279-2.838-65.771
				C371.389,456.777,382.44,456.41,398.198,457.612z"/>
			<path d="M471.948,434.475c5.275,6.989,9.103,15.157,11.485,24.505c1.246,5.676,1.803,11.33,1.669,16.96
				c-3.65,34.477-20.11,50.346-49.378,47.608c-8.369-1.781-15.002-6.988-19.898-15.625c-3.294-6.453-5.253-13.465-5.876-21.032
				c-0.601-8.146,0.2-16.471,2.404-24.973c2.114-6.899,4.207-12.164,6.276-15.792c0.489-1.402,2.304-4.084,5.442-8.046
				C441.255,419.318,457.213,418.116,471.948,434.475z M433.888,486.391c1.736,9.037,5.597,13.644,11.585,13.822
				c5.275,0.557,9.503-2.204,12.687-8.28c3.494-7.746,4.295-15.524,2.404-23.337c-2.582-9.926-6.433-14.801-11.552-14.623
				c-6.477,0.913-11.184,6.644-14.122,17.194C433.532,476.575,433.198,481.65,433.888,486.391z"/>
			<path d="M582.523,443.723c4.941,13.6,1.791,23.282-9.449,29.046c5.209,2.115,9.27,4.786,12.186,8.013
				c2.939,4.519,4.207,9.744,3.807,15.675c-0.4,5.932-2.727,10.877-6.979,14.84c-2.092,2.314-4.418,4.141-6.977,5.475
				c-5.787,3.271-10.729,5.176-14.824,5.709c-2.938,1.537-9.426,2.416-19.463,2.639c-3.985,0.021-9.037-0.602-15.158-1.871
				c-6.121-1.268-9.17-1.98-9.147-2.137c-0.356-32.606,0.211-63.344,1.702-92.211c5.564-2.805,14.1-4.663,25.607-5.576
				C563.838,422.746,576.735,429.545,582.523,443.723z M543.527,466.393c12.82,0.979,18.852-2.292,18.096-9.816
				c-0.313-2.916-1.792-4.841-4.44-5.775c-4.896-1.224-9.615-0.835-14.155,1.168C542.982,456.956,543.148,461.763,543.527,466.393z
				 M544.496,501.682c15.424,1.848,22.98-1.669,22.669-10.55c-0.646-3.338-2.804-5.453-6.477-6.343
				c-5.12-1.291-10.628-0.768-16.526,1.569C544.051,492.167,544.162,497.274,544.496,501.682z"/>
			<path d="M649.495,422.757l1.469,8.38l16.56,87.338c-4.251,2.314-12.053,3.605-23.403,3.873
				c-2.359-10.885-3.662-16.826-3.906-17.828l-0.969-4.708c-2.515-0.556-7.089-0.556-13.722,0
				c-2.648,10.059-4.573,17.45-5.775,22.168c-8.258,2.047-17.083,1.078-26.476-2.904c6.633-22.614,10.545-35.662,11.735-39.146
				c1.19-3.483,3.801-12.658,7.829-27.526l6.777-24.138C626.87,423.814,636.83,421.978,649.495,422.757z M633.036,460.984
				c-1.804,9.326-3.351,16.638-4.642,21.935c2.782-0.111,5.898-0.167,9.349-0.167C636.296,474.205,634.727,466.949,633.036,460.984z
				"/>
			<path d="M739.805,423.491c0.312,8.97-0.312,17.483-1.869,25.541c-8.103,0.045-15.524,0.479-22.269,1.302
				c-0.824,16.56-1.102,40.486-0.835,71.78c-8.258,1.18-16.415,1.869-24.472,2.07l1.803-72.949
				c-6.944,0.267-14.69,1.047-23.237,2.337c-0.957-5.72-1.146-14.912-0.567-27.577C692.063,425.884,715.878,425.049,739.805,423.491
				z"/>
			<path d="M775.862,422.757l1.469,8.38l16.56,87.338c-4.251,2.314-12.053,3.605-23.403,3.873
				c-2.359-10.885-3.662-16.826-3.906-17.828l-0.969-4.708c-2.515-0.556-7.089-0.556-13.722,0
				c-2.648,10.059-4.573,17.45-5.775,22.168c-8.258,2.047-17.083,1.078-26.476-2.904c6.633-22.614,10.545-35.662,11.735-39.146
				c1.19-3.483,3.801-12.658,7.829-27.526l6.777-24.138C753.237,423.814,763.197,421.978,775.862,422.757z M759.403,460.984
				c-1.804,9.326-3.351,16.638-4.642,21.935c2.782-0.111,5.898-0.167,9.349-0.167C762.663,474.205,761.094,466.949,759.403,460.984z
				"/>
			<path d="M866.171,423.491c0.312,8.97-0.312,17.483-1.869,25.541c-8.103,0.045-15.524,0.479-22.269,1.302
				c-0.824,16.56-1.102,40.486-0.835,71.78c-8.258,1.18-16.415,1.869-24.472,2.07l1.803-72.949
				c-6.944,0.267-14.69,1.047-23.237,2.337c-0.957-5.72-1.146-14.912-0.567-27.577C818.429,425.884,842.244,425.049,866.171,423.491
				z"/>
			<path d="M902.229,422.757l1.469,8.38l16.56,87.338c-4.251,2.314-12.053,3.605-23.403,3.873
				c-2.359-10.885-3.662-16.826-3.906-17.828l-0.969-4.708c-2.515-0.556-7.089-0.556-13.722,0
				c-2.648,10.059-4.573,17.45-5.775,22.168c-8.258,2.047-17.083,1.078-26.476-2.904c6.633-22.614,10.545-35.662,11.735-39.146
				c1.19-3.483,3.801-12.658,7.829-27.526l6.777-24.138C879.604,423.814,889.563,421.978,902.229,422.757z M885.77,460.984
				c-1.804,9.326-3.351,16.638-4.642,21.935c2.782-0.111,5.898-0.167,9.349-0.167C889.029,474.205,887.46,466.949,885.77,460.984z"
				/>
		</g>
	</g>
</g>
</svg>
