<?xml version="1.0" encoding="iso-8859-1"?>
<!-- Generator: Adobe Illustrator 24.0.1, SVG Export Plug-In . SVG Version: 6.00 Build 0)  -->
<svg version="1.1" id="Layer_1" xmlns="http://www.w3.org/2000/svg" xmlns:xlink="http://www.w3.org/1999/xlink" x="0px" y="0px"
	 viewBox="0 0 1000 1000" style="enable-background:new 0 0 1000 1000;" xml:space="preserve">
<g>
	<path d="M94.083,458.409c-3.233,0-6.161,0.204-8.786,0.606c0-2.928-0.658-5.098-1.969-6.513c-0.303-0.909-1.113-1.766-2.424-2.575
		c-1.313-0.807-2.627-1.212-3.938-1.212c-2.021,0-3.635,1.061-4.847,3.181c0,2.121,0.1,4.09,0.303,5.907
		c0.201,1.818,0.303,3.181,0.303,4.09c0,1.719-1.011,3.082-3.03,4.09c0,2.223,0.228,3.764,0.682,4.62
		c0.455,0.859,1.061,1.667,1.818,2.424s1.288,1.389,1.59,1.894c0.202,3.839,0.731,9.292,1.591,16.359
		c0.857,7.069,1.489,12.22,1.894,15.45c0.099,0.606,0.428,3.082,0.984,7.423c0.554,4.343,1.034,7.523,1.439,9.543
		c0.402,2.021,1.061,4.191,1.969,6.514c1.311,2.12,4.544,3.533,9.694,4.241c0.807-0.405,1.413-0.859,1.818-1.363
		c0.402-0.507,0.606-1.667,0.606-3.484c-0.606-2.727-1.061-5.377-1.363-7.952c-0.303-2.575-0.682-5.681-1.136-9.316
		c-0.454-3.635-0.833-5.704-1.136-6.21c3.129-1.009,5.881-2.447,8.255-4.317c2.372-1.867,5.124-4.417,8.255-7.649
		c4.947-7.067,7.422-13.429,7.422-19.086c0-3.837-1.061-7.271-3.181-10.3C107.16,460.529,101.555,458.409,94.083,458.409z
		 M98.476,479.843c-1.515,2.779-3.787,6.187-6.816,10.225c-0.506,0.506-1.313,1.363-2.424,2.575c0-0.402-0.454-3.534-1.363-9.392
		c-0.909-5.855-1.415-9.339-1.515-10.452c3.735-1.212,7.067-1.818,9.998-1.818c2.322-0.1,3.787,0.102,4.393,0.606
		C100.748,474.314,99.991,477.066,98.476,479.843z"/>
	<path d="M159.066,496.732l3.636-1.969c0.402-0.303,0.504-1.439,0.303-3.408c-0.204-1.969-0.556-3.003-1.06-3.105
		c-3.938,0-6.161,0.052-6.665,0.152c-0.405-0.706-2.173-4.189-5.302-10.452c-0.506-1.311-1.34-3.181-2.5-5.604
		c-1.162-2.424-2.021-4.568-2.575-6.438c-0.556-1.867-0.935-3.659-1.136-5.377c-0.204-1.614-1.011-2.928-2.424-3.938
		c-1.415-1.008-2.878-1.515-4.393-1.515c-1.416,0-2.878,0.658-4.393,1.969c-2.423,6.869-4.468,13.103-6.135,18.708
		c-1.666,5.604-2.802,10.679-3.408,15.223c-1.919,0.204-2.878,1.465-2.878,3.787c0,0.81,0.504,2.423,1.515,4.847
		c-0.506,1.515-0.859,2.753-1.06,3.711c-0.204,0.961-0.48,2.098-0.833,3.408c-0.355,1.313-0.632,2.424-0.833,3.333
		c0,1.515-0.303,3.938-0.909,7.271c-0.606,3.333-0.909,5.809-0.909,7.423c0,4.847,2.474,8.229,7.422,10.148l3.787-3.332
		c0.504-2.625,1.136-6.109,1.894-10.452c0.757-4.341,1.413-8.028,1.969-11.058c0.554-3.03,0.984-5.099,1.288-6.211
		c0.303-0.1,1.792-0.228,4.468-0.379c2.675-0.151,4.871-0.326,6.589-0.53c1.716-0.201,3.181-0.605,4.393-1.211
		c0.201,0.303,0.504,1.06,0.909,2.271c0.606,0.81,1.211,2.374,1.817,4.696c0.606,2.324,1.387,4.293,2.348,5.907
		c0.958,1.616,3.003,2.778,6.135,3.484c1.917-0.909,3.003-2.069,3.257-3.484c0.25-1.413,0.58-2.474,0.984-3.181
		c-1.011-2.121-1.945-4.67-2.802-7.649C160.707,500.798,159.874,498.451,159.066,496.732z M136.345,491.128
		c0.201-1.008,0.428-2.197,0.682-3.56c0.251-1.363,0.428-2.348,0.53-2.954c0.605-1.917,0.856-3.333,0.757-4.241l5.756,9.997
		C142.352,490.877,139.777,491.128,136.345,491.128z"/>
	<path d="M214.052,513.546c-14.34,0-25.6-0.655-33.779-1.969v-4.241c0-1.917,0.1-4.923,0.303-9.013
		c0.201-4.09,0.303-7.093,0.303-9.013c0.201-1.515,0.379-2.826,0.53-3.938c0.151-1.11,0.277-2.22,0.379-3.333
		c0.303-1.413,0.58-3.306,0.833-5.68c0.251-2.372,0.378-4.367,0.378-5.983c0-3.836-1.363-6.968-4.09-9.392
		c-0.605-0.099-1.238-0.353-1.893-0.757c-0.658-0.402-1.39-0.705-2.197-0.909c-1.415,0-2.93,0.909-4.544,2.727
		c-0.204,4.142-0.734,11.083-1.591,20.828c-0.859,9.747-1.288,17.344-1.288,22.797c0,1.818,0.1,4.597,0.303,8.332
		c0.504,2.222,1.11,4.065,1.818,5.528c0.705,1.465,2.068,2.703,4.09,3.711c1.311,0.103,4.821,0.507,10.527,1.212
		c5.704,0.708,10.073,1.061,13.103,1.061c7.574,0,14.693-2.675,21.358-8.028c0.201-0.705-0.102-1.413-0.909-2.12
		C216.878,514.658,215.667,514.053,214.052,513.546z"/>
	<path d="M264.948,513.319c-0.405-0.656-0.658-1.236-0.757-1.742c-0.102-0.606-0.355-1.792-0.757-3.56
		c-0.405-1.766-0.682-3.863-0.833-6.286c-0.151-2.424-0.227-5.503-0.227-9.24c0-3.938,0.303-7.775,0.909-11.512
		c0-2.22,0-4.038,0-5.453c0-1.413-0.052-2.878-0.151-4.393c0-2.424,0.201-4.696,0.606-6.816c-0.204-3.333-2.222-5.503-6.059-6.514
		c-2.222,0-4.241,1.264-6.059,3.787c0,2.627-0.102,4.975-0.303,7.043c-0.204,2.071-0.48,4.469-0.833,7.195
		c-0.355,2.727-0.632,5.15-0.833,7.271c-0.204,2.121-0.303,4.142-0.303,6.059c-1.416,0.303-3.309,0.378-5.681,0.227
		c-2.374-0.151-4.672-0.277-6.892-0.379l-0.303-8.028c-0.204-1.11-0.48-3.356-0.833-6.741c-0.355-3.382-0.961-6.185-1.818-8.407
		c-0.859-2.22-2.45-3.836-4.771-4.847c-0.606-0.705-1.515-1.06-2.727-1.06c-2.93,0-4.393,1.515-4.393,4.544
		c0.807,4.241,1.463,10.679,1.969,19.313c0.504,8.634,0.883,14.594,1.136,17.874c0.251,3.283,1.034,7.373,2.348,12.27
		c1.312,4.899,3.583,9.569,6.817,14.012c0.807,0.81,1.413,1.313,1.817,1.515c1.614,0.507,2.625,0.758,3.03,0.758
		c1.413,0,3.079-1.009,4.999-3.03c0.303-1.413-0.582-4.113-2.651-8.104c-2.071-3.988-3.51-9.87-4.317-17.647h7.422
		c3.23,0,5.2,0.151,5.907,0.455c0.402,8.482,2.776,15.147,7.12,19.994c0.606,1.516,1.818,2.272,3.635,2.272
		c1.614,0,2.878-0.454,3.787-1.363c1.11-1.312,1.666-2.776,1.666-4.393c0-0.705-0.177-1.564-0.53-2.575
		C265.729,514.81,265.351,513.977,264.948,513.319z"/>
	<path d="M311.603,496.732l3.636-1.969c0.402-0.303,0.504-1.439,0.303-3.408c-0.204-1.969-0.556-3.003-1.06-3.105
		c-3.938,0-6.161,0.052-6.665,0.152c-0.405-0.706-2.173-4.189-5.302-10.452c-0.506-1.311-1.34-3.181-2.5-5.604
		c-1.162-2.424-2.021-4.568-2.575-6.438c-0.556-1.867-0.935-3.659-1.136-5.377c-0.204-1.614-1.011-2.928-2.424-3.938
		c-1.415-1.008-2.878-1.515-4.393-1.515c-1.416,0-2.878,0.658-4.393,1.969c-2.423,6.869-4.468,13.103-6.135,18.708
		c-1.666,5.604-2.802,10.679-3.408,15.223c-1.919,0.204-2.878,1.465-2.878,3.787c0,0.81,0.504,2.423,1.515,4.847
		c-0.506,1.515-0.859,2.753-1.06,3.711c-0.204,0.961-0.48,2.098-0.833,3.408c-0.355,1.313-0.632,2.424-0.833,3.333
		c0,1.515-0.303,3.938-0.909,7.271c-0.606,3.333-0.909,5.809-0.909,7.423c0,4.847,2.474,8.229,7.422,10.148l3.787-3.332
		c0.504-2.625,1.136-6.109,1.894-10.452c0.757-4.341,1.413-8.028,1.969-11.058c0.554-3.03,0.984-5.099,1.288-6.211
		c0.303-0.1,1.792-0.228,4.468-0.379c2.675-0.151,4.871-0.326,6.589-0.53c1.716-0.201,3.181-0.605,4.393-1.211
		c0.201,0.303,0.504,1.06,0.909,2.271c0.606,0.81,1.211,2.374,1.817,4.696c0.606,2.324,1.387,4.293,2.348,5.907
		c0.958,1.616,3.003,2.778,6.135,3.484c1.917-0.909,3.003-2.069,3.257-3.484c0.25-1.413,0.58-2.474,0.984-3.181
		c-1.011-2.121-1.945-4.67-2.802-7.649C313.243,500.798,312.41,498.451,311.603,496.732z M288.882,491.128
		c0.201-1.008,0.428-2.197,0.682-3.56c0.251-1.363,0.428-2.348,0.53-2.954c0.605-1.917,0.856-3.333,0.757-4.241l5.756,9.997
		C294.889,490.877,292.313,491.128,288.882,491.128z"/>
	<path d="M372.648,507.336c-5.15,1.718-8.861,2.93-11.133,3.635c-2.272,0.708-4.445,1.466-6.514,2.272
		c-2.071,0.81-4.166,1.212-6.286,1.212c-0.405,0-1.086-0.076-2.045-0.228c-0.961-0.151-1.946-0.428-2.954-0.833
		c-2.627-1.212-4.571-2.954-5.832-5.226c-1.264-2.272-2.5-5.73-3.711-10.376c-0.708-4.442-0.632-8.759,0.228-12.951
		c0.856-4.189,3.053-7.801,6.589-10.831c3.333-2.625,6.31-3.129,8.938-1.515c1.211,0.81,2.575,1.363,4.09,1.667
		c2.22,0.708,4.341-0.05,6.362-2.272c-0.102-1.917-0.48-3.659-1.136-5.226c-0.658-1.564-1.59-2.954-2.802-4.166
		c-2.525-3.129-7.119-4.544-13.784-4.241c-5.657,1.416-10.353,4.268-14.087,8.559c-3.737,4.293-6.312,8.913-7.725,13.86
		c-0.606,3.233-0.909,6.362-0.909,9.392c0,6.362,1.212,12.346,3.636,17.95c2.423,5.604,5.908,10.326,10.452,14.163
		c3.837,3.434,8.533,5.149,14.087,5.149c3.635,0,8.028-0.908,13.178-2.727c1.614-0.504,3.155-1.06,4.62-1.666
		c1.463-0.605,2.75-1.614,3.863-3.029c1.11-1.413,2.776-3.382,4.999-5.907C374.364,509.759,373.656,507.539,372.648,507.336z"/>
	<path d="M405.821,456.743c-1.212-0.201-2.954-1.008-5.226-2.424c-2.272-1.413-4.62-1.917-7.043-1.515
		c-5.555,4.544-9.444,10.906-11.664,19.086c-0.303,1.818-0.859,5.051-1.666,9.694c-0.81,4.646-1.416,8.786-1.818,12.421
		c-0.405,3.635-0.606,6.918-0.606,9.846c0,7.574,1.363,14.088,4.09,19.541c5.454,6.767,12.623,10.148,21.51,10.148
		c2.22-0.303,4.317-1.264,6.286-2.878c1.969-1.614,3.609-3.382,4.923-5.302c0.402-1.614,1.311-4.166,2.727-7.649
		c1.413-3.484,2.121-6.286,2.121-8.407c0-1.817,0.05-4.567,0.151-8.256c0.1-3.685,0.151-6.487,0.151-8.406
		c0-7.976-0.909-14.944-2.727-20.904C415.213,465.781,411.476,460.783,405.821,456.743z M402.792,518.999
		c-1.211,1.719-2.979,2.575-5.302,2.575c-2.121-0.807-3.635-2.321-4.544-4.544c-0.909-2.221-1.363-5.099-1.363-8.635
		c0-1.311,0.05-3.154,0.151-5.528c0.1-2.372,0.151-3.962,0.151-4.771c0.402-1.818,0.833-4.519,1.288-8.104
		c0.455-3.583,0.909-6.741,1.363-9.467s0.857-5.15,1.212-7.271c0.173-1.038,0.278-1.708,0.318-2.02
		c0.68-1.562,1.407-2.209,2.182-1.919c0.909,0,1.538-0.125,1.893-0.378c0.353-0.251,0.883-0.63,1.591-1.136l1.363,1.212
		c0.705,0.909,1.212,1.894,1.515,2.954c0.303,1.061,0.58,2.298,0.833,3.711c0.251,1.415,0.478,2.828,0.682,4.241
		c0.807,6.362,1.212,11.867,1.212,16.511C407.336,505.316,405.821,512.841,402.792,518.999z"/>
	<path d="M492.493,489.916c-1.87-2.121-3.46-3.432-4.771-3.938c0.201-0.303,0.504-1.16,0.909-2.575
		c0.402-1.413,0.781-2.852,1.136-4.317c0.353-1.463,0.53-3.307,0.53-5.529c-1.718-8.279-8.786-13.33-21.207-15.148
		c-0.405-1.008-1.086-2.7-2.045-5.074c-0.961-2.372-3.257-3.56-6.893-3.56c-2.222,1.313-3.333,3.131-3.333,5.453
		c0,0.708,0.1,1.794,0.303,3.256c0.201,1.465,0.303,2.249,0.303,2.348c-0.405,0.405-0.606,1.313-0.606,2.727
		c0.1,1.313,0.455,2.476,1.061,3.484c0.504,4.343,1.363,9.747,2.575,16.208c1.212,6.464,2.272,12.27,3.181,17.42
		c0.909,5.15,1.614,10.201,2.121,15.147c0,3.938,0.277,7.297,0.833,10.073c0.554,2.778,2.144,5.581,4.771,8.407
		c4.442,0.402,6.665-1.011,6.665-4.242c0.099-2.22,0.076-3.685-0.076-4.393c-0.152-0.705-0.228-1.413-0.228-2.12
		c0.606,0.102,1.16,0.102,1.667,0c2.019,0,4.544-1.16,7.574-3.484c2.928-2.523,5.325-5.503,7.195-8.938
		c1.868-3.432,2.803-6.865,2.803-10.3c0-1.413-0.204-2.776-0.606-4.09C495.648,494.309,494.36,492.037,492.493,489.916z
		 M472.726,485.523c-1.011-2.826-1.768-7.624-2.272-14.39c0.705,0,1.666,0.178,2.878,0.53c1.212,0.355,2.727,0.935,4.544,1.742
		c0,1.314-0.454,3.03-1.363,5.15C475.604,480.676,474.34,483,472.726,485.523z M484.844,500.519
		c-2.424,6.464-4.949,10.25-7.574,11.361c0-0.504-0.178-2.447-0.53-5.832c-0.355-3.382-0.53-5.022-0.53-4.923
		c-0.303,0.102,0.327-0.478,1.894-1.742c1.564-1.262,2.549-2.296,2.954-3.105c2.019,0.606,3.333,1.061,3.938,1.363
		C485.298,498.349,485.246,499.308,484.844,500.519z"/>
	<path d="M541.95,496.732l3.636-1.969c0.402-0.303,0.504-1.439,0.303-3.408c-0.203-1.969-0.557-3.003-1.061-3.105
		c-3.938,0-6.16,0.052-6.665,0.152c-0.404-0.706-2.173-4.189-5.302-10.452c-0.506-1.311-1.339-3.181-2.499-5.604
		c-1.162-2.424-2.021-4.568-2.575-6.438c-0.556-1.867-0.935-3.659-1.136-5.377c-0.204-1.614-1.011-2.928-2.424-3.938
		c-1.415-1.008-2.878-1.515-4.393-1.515c-1.415,0-2.878,0.658-4.393,1.969c-2.424,6.869-4.469,13.103-6.135,18.708
		c-1.667,5.604-2.803,10.679-3.408,15.223c-1.92,0.204-2.879,1.465-2.879,3.787c0,0.81,0.505,2.423,1.516,4.847
		c-0.507,1.515-0.859,2.753-1.061,3.711c-0.204,0.961-0.48,2.098-0.833,3.408c-0.355,1.313-0.632,2.424-0.834,3.333
		c0,1.515-0.303,3.938-0.908,7.271c-0.606,3.333-0.909,5.809-0.909,7.423c0,4.847,2.474,8.229,7.423,10.148l3.786-3.332
		c0.505-2.625,1.137-6.109,1.894-10.452c0.758-4.341,1.413-8.028,1.97-11.058c0.554-3.03,0.984-5.099,1.287-6.211
		c0.304-0.1,1.792-0.228,4.469-0.379c2.675-0.151,4.871-0.326,6.589-0.53c1.717-0.201,3.182-0.605,4.394-1.211
		c0.201,0.303,0.504,1.06,0.908,2.271c0.606,0.81,1.212,2.374,1.818,4.696c0.605,2.324,1.387,4.293,2.348,5.907
		c0.958,1.616,3.003,2.778,6.135,3.484c1.917-0.909,3.003-2.069,3.257-3.484c0.251-1.413,0.58-2.474,0.984-3.181
		c-1.011-2.121-1.945-4.67-2.803-7.649C543.591,500.798,542.758,498.451,541.95,496.732z M519.229,491.128
		c0.201-1.008,0.429-2.197,0.682-3.56c0.251-1.363,0.429-2.348,0.53-2.954c0.606-1.917,0.857-3.333,0.758-4.241l5.756,9.997
		C525.236,490.877,522.661,491.128,519.229,491.128z"/>
	<path d="M600.723,460.681c-2.525,0-5.756,0-9.694,0c-10.504,0.606-23.277,0.909-38.323,0.909c-1.212,0.102-2.021,0.909-2.424,2.424
		c0.808,5.656,3.129,8.989,6.968,9.997c2.826,0.405,7.12,0.606,12.876,0.606c1.312,0,2.474,0,3.483,0
		c1.009,0,2.928-0.05,5.757-0.151l0.151,17.874c-0.303,3.636-0.329,7.12-0.076,10.452c0.251,3.333,0.479,6.06,0.682,8.18
		c0.201,2.121,0.656,4.545,1.363,7.271c0.504,1.919,1.439,3.51,2.803,4.771c1.363,1.264,3.204,2.097,5.528,2.499
		c1.614-0.402,2.675-1.689,3.182-3.862c0.504-2.171,0.757-3.659,0.757-4.469c-1.212-5.049-1.817-9.896-1.817-14.542
		c0-1.008,0.125-3.685,0.379-8.028c0.251-4.341,0.378-7.977,0.378-10.906c0-4.341-0.151-7.624-0.454-9.846
		c5.855-0.1,9.089-0.201,9.694-0.303c2.727,0,4.595,0,5.604,0c1.009,0,2.121,0.052,3.333,0.151c4.745,0.102,8.028-1.413,9.846-4.544
		c0-3.029-0.757-5.25-2.272-6.665C613.395,461.287,607.487,460.681,600.723,460.681z"/>
	<path d="M665.706,496.732l3.636-1.969c0.402-0.303,0.504-1.439,0.303-3.408c-0.203-1.969-0.557-3.003-1.061-3.105
		c-3.938,0-6.16,0.052-6.665,0.152c-0.404-0.706-2.173-4.189-5.302-10.452c-0.506-1.311-1.339-3.181-2.499-5.604
		c-1.162-2.424-2.021-4.568-2.575-6.438c-0.556-1.867-0.935-3.659-1.136-5.377c-0.204-1.614-1.011-2.928-2.424-3.938
		c-1.415-1.008-2.878-1.515-4.393-1.515c-1.415,0-2.878,0.658-4.393,1.969c-2.424,6.869-4.469,13.103-6.135,18.708
		c-1.667,5.604-2.803,10.679-3.408,15.223c-1.92,0.204-2.879,1.465-2.879,3.787c0,0.81,0.505,2.423,1.516,4.847
		c-0.507,1.515-0.859,2.753-1.061,3.711c-0.204,0.961-0.48,2.098-0.833,3.408c-0.355,1.313-0.632,2.424-0.833,3.333
		c0,1.515-0.304,3.938-0.909,7.271c-0.606,3.333-0.909,5.809-0.909,7.423c0,4.847,2.474,8.229,7.423,10.148l3.786-3.332
		c0.505-2.625,1.137-6.109,1.894-10.452c0.758-4.341,1.413-8.028,1.97-11.058c0.554-3.03,0.984-5.099,1.287-6.211
		c0.304-0.1,1.792-0.228,4.469-0.379c2.675-0.151,4.871-0.326,6.589-0.53c1.717-0.201,3.182-0.605,4.394-1.211
		c0.201,0.303,0.504,1.06,0.908,2.271c0.606,0.81,1.212,2.374,1.818,4.696c0.605,2.324,1.387,4.293,2.348,5.907
		c0.958,1.616,3.003,2.778,6.135,3.484c1.917-0.909,3.003-2.069,3.257-3.484c0.251-1.413,0.58-2.474,0.984-3.181
		c-1.011-2.121-1.945-4.67-2.803-7.649C667.347,500.798,666.514,498.451,665.706,496.732z M642.984,491.128
		c0.201-1.008,0.429-2.197,0.682-3.56c0.251-1.363,0.429-2.348,0.53-2.954c0.606-1.917,0.857-3.333,0.758-4.241l5.756,9.997
		C648.992,490.877,646.417,491.128,642.984,491.128z"/>
	<path d="M724.479,460.681c-2.525,0-5.756,0-9.694,0c-10.504,0.606-23.277,0.909-38.323,0.909c-1.212,0.102-2.021,0.909-2.424,2.424
		c0.808,5.656,3.129,8.989,6.968,9.997c2.826,0.405,7.12,0.606,12.876,0.606c1.312,0,2.474,0,3.483,0
		c1.009,0,2.928-0.05,5.757-0.151l0.151,17.874c-0.303,3.636-0.329,7.12-0.076,10.452c0.251,3.333,0.479,6.06,0.682,8.18
		c0.201,2.121,0.656,4.545,1.363,7.271c0.504,1.919,1.439,3.51,2.803,4.771c1.363,1.264,3.204,2.097,5.528,2.499
		c1.614-0.402,2.675-1.689,3.182-3.862c0.504-2.171,0.757-3.659,0.757-4.469c-1.212-5.049-1.817-9.896-1.817-14.542
		c0-1.008,0.125-3.685,0.379-8.028c0.251-4.341,0.378-7.977,0.378-10.906c0-4.341-0.151-7.624-0.454-9.846
		c5.855-0.1,9.089-0.201,9.694-0.303c2.727,0,4.595,0,5.604,0c1.009,0,2.121,0.052,3.333,0.151c4.745,0.102,8.028-1.413,9.846-4.544
		c0-3.029-0.757-5.25-2.272-6.665C737.15,461.287,731.243,460.681,724.479,460.681z"/>
	<path d="M776.89,512.94c-0.708,0-1.541,0-2.499,0c-0.961,0-1.742,0.052-2.349,0.151c0.201-1.11,0.277-1.97,0.228-2.575
		c-0.052-0.605-0.076-1.061-0.076-1.363c-0.203-5.453-0.404-9.694-0.605-12.724c-0.203-3.029-0.404-6.234-0.605-9.619
		c-0.204-3.382-0.633-6.84-1.288-10.376c-0.658-3.534-1.136-5.756-1.438-6.665c3.129,0.606,5.098,0.909,5.907,0.909
		c3.029,0,5.553-2.575,7.573-7.725c-0.102-1.413-1.691-2.599-4.771-3.56c-3.081-0.958-6.187-1.564-9.315-1.818
		c-3.131-0.251-4.847-0.378-5.15-0.378c-1.011,0-2.499-0.152-4.469-0.455c-1.969-0.303-3.611-0.455-4.923-0.455
		c-3.536,0.204-5.403,0.708-5.604,1.515c0,4.242,2.221,8.028,6.665,11.361c1.515,0,2.372,0.128,2.575,0.379
		c0.201,0.253,0.303,1.037,0.303,2.348v2.727c0,3.233,0.251,5.681,0.758,7.347c0.504,1.666,1.061,6.438,1.666,14.314
		s1.009,13.685,1.212,17.419c-0.606-0.099-2.071-0.353-4.393-0.757c-2.727,0.707-4.241,2.07-4.545,4.09
		c0.304,2.424,1.312,4.494,3.03,6.21c1.716,1.719,3.734,2.931,6.059,3.636c1.312,0,2.7,0.253,4.166,0.758
		c1.462,0.506,2.599,0.757,3.408,0.757c0.807,0,1.867-0.201,3.181-0.605c0.705-1.11,1.363-1.792,1.969-2.045
		c0.606-0.251,1.894-0.656,3.863-1.212c1.969-0.554,3.355-1.186,4.165-1.894c1.413-0.807,2.121-2.019,2.121-3.636
		c0-0.908-0.557-2.473-1.666-4.695C780.321,513.395,778.605,512.94,776.89,512.94z"/>
	<path d="M837.783,463.104c-0.303-1.917-0.708-3.583-1.212-4.999c-0.507-1.413-1.566-2.523-3.181-3.333
		c-0.405-0.504-1.162-0.757-2.272-0.757c-0.507,0-1.112,0.102-1.817,0.303c-0.708,0.204-1.466,0.507-2.272,0.909
		c-0.81,1.616-1.212,3.131-1.212,4.544c0,0.507,0.151,1.617,0.454,3.333c0.706,1.112,1.061,2.476,1.061,4.09
		c0,0.606-0.203,3.03-0.605,7.271l-0.606,20.449c-0.707,6.161-1.768,10.706-3.181,13.633l-3.333-3.03
		c-8.887-11.815-14.643-23.933-17.268-36.354c-0.102-0.606-0.279-1.614-0.53-3.029c-0.253-1.413-0.557-2.675-0.909-3.787
		c-0.354-1.11-1.237-2.272-2.65-3.484c-0.606,0-1.288-0.402-2.045-1.212c-0.758-0.807-1.742-1.212-2.954-1.212
		c-1.112,0-2.374,0.81-3.787,2.424l-2.12,21.964c0,2.93-0.103,6.994-0.304,12.194c-0.203,5.203-0.303,9.013-0.303,11.437
		c0,7.675,0.758,14.442,2.272,20.298c0.504,0.605,1.061,1.339,1.666,2.196c0.606,0.858,1.413,1.666,2.424,2.423
		c1.008,0.758,2.474,0.985,4.393,0.682c2.02-1.311,3.029-3.938,3.029-7.876c-0.707-5.25-1.06-11.157-1.06-17.723v-9.998
		c1.716,3.233,3.56,6.49,5.528,9.771c1.97,3.282,4.62,6.843,7.953,10.679c3.332,3.839,7.37,7.021,12.117,9.543
		c0.706,0.405,1.614,0.606,2.727,0.606c2.625,0,4.545-1.262,5.757-3.787c0.201-2.523,1.06-6.968,2.575-13.33
		c1.515-6.362,2.271-11.36,2.271-14.996c0-2.22,0-4.241,0-6.059c-0.203-2.322-0.151-5.604,0.151-9.846
		c0.304-4.241,0.304-7.271,0-9.089C838.337,466.641,838.086,465.024,837.783,463.104z"/>
	<path d="M885.044,513.319c-0.405-0.656-0.658-1.236-0.758-1.742c-0.102-0.606-0.354-1.792-0.757-3.56
		c-0.405-1.766-0.682-3.863-0.833-6.286c-0.151-2.424-0.228-5.503-0.228-9.24c0-3.938,0.303-7.775,0.909-11.512
		c0-2.22,0-4.038,0-5.453c0-1.413-0.053-2.878-0.151-4.393c0-2.424,0.201-4.696,0.605-6.816c-0.203-3.333-2.223-5.503-6.059-6.514
		c-2.223,0-4.242,1.264-6.06,3.787c0,2.627-0.102,4.975-0.303,7.043c-0.204,2.071-0.48,4.469-0.833,7.195
		c-0.355,2.727-0.632,5.15-0.833,7.271c-0.204,2.121-0.304,4.142-0.304,6.059c-1.415,0.303-3.309,0.378-5.68,0.227
		c-2.374-0.151-4.672-0.277-6.893-0.379l-0.303-8.028c-0.203-1.11-0.48-3.356-0.833-6.741c-0.355-3.382-0.961-6.185-1.818-8.407
		c-0.858-2.22-2.449-3.836-4.771-4.847c-0.605-0.705-1.515-1.06-2.727-1.06c-2.93,0-4.393,1.515-4.393,4.544
		c0.808,4.241,1.463,10.679,1.97,19.313c0.504,8.634,0.883,14.594,1.136,17.874c0.251,3.283,1.034,7.373,2.348,12.27
		c1.312,4.899,3.584,9.569,6.816,14.012c0.808,0.81,1.413,1.313,1.818,1.515c1.614,0.507,2.624,0.758,3.029,0.758
		c1.413,0,3.079-1.009,4.999-3.03c0.303-1.413-0.583-4.113-2.651-8.104c-2.071-3.988-3.51-9.87-4.317-17.647h7.423
		c3.23,0,5.2,0.151,5.907,0.455c0.402,8.482,2.776,15.147,7.119,19.994c0.606,1.516,1.818,2.272,3.636,2.272
		c1.614,0,2.878-0.454,3.787-1.363c1.11-1.312,1.666-2.776,1.666-4.393c0-0.705-0.178-1.564-0.53-2.575
		C885.825,514.81,885.446,513.977,885.044,513.319z"/>
	<path d="M934.197,503.776c-0.858-2.978-1.691-5.326-2.499-7.044l3.636-1.969c0.402-0.303,0.504-1.439,0.303-3.408
		c-0.203-1.969-0.557-3.003-1.061-3.105c-3.938,0-6.16,0.052-6.665,0.152c-0.404-0.706-2.173-4.189-5.302-10.452
		c-0.506-1.311-1.339-3.181-2.499-5.604c-1.162-2.424-2.021-4.568-2.575-6.438c-0.556-1.867-0.935-3.659-1.136-5.377
		c-0.204-1.614-1.011-2.928-2.424-3.938c-1.415-1.008-2.878-1.515-4.393-1.515c-1.415,0-2.878,0.658-4.393,1.969
		c-2.424,6.869-4.469,13.103-6.135,18.708c-1.667,5.604-2.803,10.679-3.408,15.223c-1.92,0.204-2.879,1.465-2.879,3.787
		c0,0.81,0.505,2.423,1.516,4.847c-0.507,1.515-0.859,2.753-1.061,3.711c-0.204,0.961-0.48,2.098-0.833,3.408
		c-0.355,1.313-0.632,2.424-0.833,3.333c0,1.515-0.304,3.938-0.909,7.271c-0.606,3.333-0.909,5.809-0.909,7.423
		c0,4.847,2.474,8.229,7.423,10.148l3.786-3.332c0.505-2.625,1.137-6.109,1.894-10.452c0.758-4.341,1.413-8.028,1.97-11.058
		c0.554-3.03,0.984-5.099,1.287-6.211c0.304-0.1,1.792-0.228,4.469-0.379c2.675-0.151,4.871-0.326,6.589-0.53
		c1.717-0.201,3.182-0.605,4.394-1.211c0.201,0.303,0.504,1.06,0.908,2.271c0.606,0.81,1.212,2.374,1.818,4.696
		c0.605,2.324,1.387,4.293,2.348,5.907c0.958,1.616,3.003,2.778,6.135,3.484c1.917-0.909,3.003-2.069,3.257-3.484
		c0.251-1.413,0.58-2.474,0.984-3.181C935.989,509.305,935.055,506.756,934.197,503.776z M908.977,491.128
		c0.201-1.008,0.429-2.197,0.682-3.56c0.251-1.363,0.429-2.348,0.53-2.954c0.606-1.917,0.857-3.333,0.758-4.241l5.756,9.997
		C914.984,490.877,912.409,491.128,908.977,491.128z"/>
	<path d="M349.869,531.952c-1.075-0.063-2.59,0.583-3.003,1.57c-1.685,4.027-4.128,7.726-7.196,11.25
		c-3.05,3.504-6.34,6.961-8.341,10.928c-0.605,1.2-0.184,2.512,1.164,2.922c0.809,0.246,1.839,0.066,2.634-0.414
		c0.432,0.03,0.914-0.035,1.445-0.254c2.796-1.149,4.966-3.06,6.902-5.129c1.828-1.955,3.567-3.977,4.926-6.163
		c2.53-4.07,3.751-8.578,3.586-12.85C351.947,532.809,351.033,532.02,349.869,531.952z"/>
</g>
</svg>
