<?xml version="1.0" encoding="iso-8859-1"?>
<!-- Generator: Adobe Illustrator 24.0.1, SVG Export Plug-In . SVG Version: 6.00 Build 0)  -->
<svg version="1.1" id="Layer_1" xmlns="http://www.w3.org/2000/svg" xmlns:xlink="http://www.w3.org/1999/xlink" x="0px" y="0px"
	 viewBox="0 0 1000 1000" style="enable-background:new 0 0 1000 1000;" xml:space="preserve">
<path style="fill:#FA162F;stroke:#2D2D2D;stroke-width:10;stroke-miterlimit:10;" d="M579.641,294.76
	c-5.091-107.417-98.172-116.192-117.105-115.475s-100.126,21.725-100.423,122.172s112.359,152.55,112.359,152.55l-3.881,5.784
	l15.448,1.977l-4.286-7.552C492.847,448.228,584.424,395.681,579.641,294.76z"/>
<path style="fill:none;stroke:#FFFFFF;stroke-width:10;stroke-linecap:round;stroke-linejoin:round;stroke-miterlimit:10;" d="
	M481.652,196.276c0,0,35.867,5.057,60.797,41.805S562.47,305.7,562.47,305.7"/>
<path style="fill:#07B5F5;stroke:#2D2D2D;stroke-width:10;stroke-miterlimit:10;" d="M798.483,500.26
	c34.817-101.745-48.494-144.176-66.361-150.48c-17.867-6.305-101.091-16.667-138.351,76.614s48.298,183.203,48.298,183.203
	l-5.737,3.949l13.634,7.526l-1.204-8.6C661.28,610.99,765.771,595.852,798.483,500.26z"/>
<path style="fill:none;stroke:#FFFFFF;stroke-width:10;stroke-linecap:round;stroke-linejoin:round;stroke-miterlimit:10;" d="
	M707.652,361.276c0,0,35.867,5.057,60.797,41.805S788.47,470.7,788.47,470.7"/>
<path style="fill:#01D5AD;" d="M651.579,612.903"/>
<path style="fill:#01D5AD;stroke:#2D2D2D;stroke-width:10;stroke-miterlimit:10;" d="M160.789,500.26
	c-34.817-101.745,48.494-144.176,66.361-150.48c17.867-6.305,101.091-16.667,138.351,76.614s-48.298,183.203-48.298,183.203
	l5.737,3.949l-13.634,7.526l1.204-8.6C297.992,610.99,193.501,595.852,160.789,500.26z"/>
<path style="fill:none;stroke:#FFFFFF;stroke-width:10;stroke-linecap:round;stroke-linejoin:round;stroke-miterlimit:10;" d="
	M275.652,361.276c0,0,35.867,5.057,60.797,41.805c24.93,36.749,20.021,67.618,20.021,67.618"/>
<path style="fill:#01D5AD;" d="M219.579,612.903"/>
<path style="fill:none;stroke:#2D2D2D;stroke-width:10;stroke-linecap:round;stroke-linejoin:round;stroke-miterlimit:10;" d="
	M481.652,461.767C481.652,461.767,448,564,471,621s10.652,212.832,10.652,212.832S475,792,563,729s81.302-111.055,81.302-111.055"/>
<path style="fill:none;stroke:#2D2D2D;stroke-width:10;stroke-linecap:round;stroke-linejoin:round;stroke-miterlimit:10;" d="
	M316.257,621.071c0,0,53.743,34.929,79.743,99.929s86.304,103.489,86.304,103.489"/>
</svg>
