<?xml version="1.0" encoding="utf-8"?>
<!-- Generator: Adobe Illustrator 24.0.1, SVG Export Plug-In . SVG Version: 6.00 Build 0)  -->
<svg version="1.1" id="Layer_1" xmlns="http://www.w3.org/2000/svg" xmlns:xlink="http://www.w3.org/1999/xlink" x="0px" y="0px"
	 viewBox="0 0 125.3 54.3" style="enable-background:new 0 0 125.3 54.3;" xml:space="preserve">
<style type="text/css">
	.st0{fill:url(#SVGID_1_);}
	.st1{fill:url(#SVGID_2_);}
	.st2{fill:url(#SVGID_3_);}
	.st3{fill:url(#SVGID_4_);}
	.st4{fill:url(#SVGID_5_);}
	.st5{fill:url(#SVGID_6_);}
	.st6{fill:url(#SVGID_7_);}
	.st7{fill:url(#SVGID_8_);}
	.st8{fill:url(#SVGID_9_);}
	.st9{fill:url(#SVGID_10_);}
	.st10{fill:url(#SVGID_11_);}
	.st11{fill:url(#SVGID_12_);}
	.st12{fill:url(#SVGID_13_);}
	.st13{fill:url(#SVGID_14_);}
	.st14{fill:url(#SVGID_15_);}
	.st15{fill:url(#SVGID_16_);}
	.st16{fill:url(#SVGID_17_);}
	.st17{fill:url(#SVGID_18_);}
	.st18{fill:url(#SVGID_19_);}
	.st19{fill:url(#SVGID_20_);}
	.st20{fill:url(#SVGID_21_);}
	.st21{fill:url(#SVGID_22_);}
	.st22{fill:url(#SVGID_23_);}
	.st23{fill:url(#SVGID_24_);}
	.st24{fill:url(#SVGID_25_);}
	.st25{fill:url(#SVGID_26_);}
	.st26{fill:url(#SVGID_27_);}
	.st27{fill:url(#SVGID_28_);}
	.st28{fill:url(#SVGID_29_);}
	.st29{fill:url(#SVGID_30_);}
	.st30{fill:url(#SVGID_31_);}
	.st31{fill:url(#SVGID_32_);}
	.st32{fill:url(#SVGID_33_);}
	.st33{fill:url(#SVGID_34_);}
	.st34{fill:url(#SVGID_35_);}
	.st35{fill:url(#SVGID_36_);}
	.st36{fill:url(#SVGID_37_);}
	.st37{fill:url(#SVGID_38_);}
	.st38{fill:url(#SVGID_39_);}
	.st39{fill:url(#SVGID_40_);}
	.st40{fill:url(#SVGID_41_);}
	.st41{fill:url(#SVGID_42_);}
	.st42{fill:url(#SVGID_43_);}
	.st43{fill:url(#SVGID_44_);}
	.st44{fill:url(#SVGID_45_);}
	.st45{fill:url(#SVGID_46_);}
	.st46{fill:url(#SVGID_47_);}
	.st47{fill:url(#SVGID_48_);}
	.st48{fill:url(#SVGID_49_);}
	.st49{fill:url(#SVGID_50_);}
	.st50{fill:url(#SVGID_51_);}
	.st51{fill:url(#SVGID_52_);}
	.st52{fill:url(#SVGID_53_);}
	.st53{fill:url(#SVGID_54_);}
	.st54{fill:url(#SVGID_55_);}
	.st55{fill:url(#SVGID_56_);}
	.st56{fill:#65E200;}
	.st57{fill:#E32A3A;}
	.st58{fill:url(#SVGID_57_);}
	.st59{fill:url(#SVGID_58_);}
	.st60{fill:url(#SVGID_59_);}
	.st61{fill:url(#SVGID_60_);}
	.st62{fill:url(#SVGID_61_);}
	.st63{fill:url(#SVGID_62_);}
	.st64{fill:url(#SVGID_63_);}
	.st65{fill:url(#SVGID_64_);}
	.st66{fill:url(#SVGID_65_);}
	.st67{fill:url(#SVGID_66_);}
	.st68{fill:url(#SVGID_67_);}
	.st69{fill:url(#SVGID_68_);}
	.st70{fill:url(#SVGID_69_);}
	.st71{fill:url(#SVGID_70_);}
	.st72{fill:url(#SVGID_71_);}
	.st73{fill:url(#SVGID_72_);}
	.st74{fill:url(#SVGID_73_);}
	.st75{fill:url(#SVGID_74_);}
	.st76{fill:url(#SVGID_75_);}
	.st77{fill:url(#SVGID_76_);}
	.st78{fill:url(#SVGID_77_);}
	.st79{fill:url(#SVGID_78_);}
	.st80{fill:url(#SVGID_79_);}
	.st81{fill:url(#SVGID_80_);}
	.st82{fill:url(#SVGID_81_);}
	.st83{fill:url(#SVGID_82_);}
	.st84{fill:url(#SVGID_83_);}
	.st85{fill:url(#SVGID_84_);}
	.st86{fill:#53BA00;}
	.st87{fill:#672AE3;}
	.st88{fill:url(#SVGID_85_);}
	.st89{fill:url(#SVGID_86_);}
	.st90{fill:url(#SVGID_87_);}
	.st91{fill:url(#SVGID_88_);}
	.st92{fill:url(#SVGID_89_);}
	.st93{fill:url(#SVGID_90_);}
	.st94{fill:url(#SVGID_91_);}
	.st95{fill:url(#SVGID_92_);}
	.st96{fill:url(#SVGID_93_);}
	.st97{fill:url(#SVGID_94_);}
	.st98{fill:url(#SVGID_95_);}
	.st99{fill:url(#SVGID_96_);}
	.st100{fill:url(#SVGID_97_);}
	.st101{fill:url(#SVGID_98_);}
</style>
<g>
	
		<linearGradient id="SVGID_1_" gradientUnits="userSpaceOnUse" x1="-4635.7783" y1="83.7476" x2="-4633.4976" y2="83.7476" gradientTransform="matrix(-1 0 0 -1 -4557.2764 99.89)">
		<stop  offset="0" style="stop-color:#943ADE"/>
		<stop  offset="1" style="stop-color:#531ED9"/>
	</linearGradient>
	<path class="st0" d="M77.5,14.4c0,0-0.5,0.8,0.3,1.7c0.9,0.9,0.6,1.4,0.6,1.4L78,17.9c0,0,0,0.4-0.7-0.2c-0.7-0.6-1.6-2.7-0.7-3.1
		C77.7,14.1,77.5,14.4,77.5,14.4z"/>
	
		<linearGradient id="SVGID_2_" gradientUnits="userSpaceOnUse" x1="-4636.6533" y1="85.0237" x2="-4633.6196" y2="85.0237" gradientTransform="matrix(-1 0 0 -1 -4557.2764 99.89)">
		<stop  offset="0" style="stop-color:#B459FF"/>
		<stop  offset="1" style="stop-color:#7C48FF"/>
	</linearGradient>
	<path class="st1" d="M76.3,14.8c0,0,0.3-0.5,1-1c0.3-0.2,1.5-0.1,2,1c0,0,0.1,0.1-0.1,0.6s-0.4,0.8-0.5,0.7c0,0,0-0.3-0.3-0.6
		c-0.2-0.2-0.4-0.3-0.8-0.5C76.9,14.5,76.4,14.6,76.3,14.8z"/>
	
		<linearGradient id="SVGID_3_" gradientUnits="userSpaceOnUse" x1="-4636.0483" y1="83.3139" x2="-4632.0586" y2="83.3139" gradientTransform="matrix(-1 0 0 -1 -4557.2764 99.89)">
		<stop  offset="0" style="stop-color:#B459FF"/>
		<stop  offset="1" style="stop-color:#7C48FF"/>
	</linearGradient>
	<path class="st2" d="M77.9,18c0,0,0.3,0.1,0.7-0.7c0.2-0.4,0.2-0.8-0.1-1.1c-0.1-0.1-0.2-0.2-0.4-0.3c-0.9-0.7-1.9-0.8-2.3-0.5
		c-0.8,0.7-1,1.2-1.1,1.4c0,0,0.3-0.7,1.4-0.4C77.5,16.6,78.3,17.7,77.9,18z"/>
</g>
<linearGradient id="SVGID_4_" gradientUnits="userSpaceOnUse" x1="-4617.9175" y1="80.2865" x2="-4614.3818" y2="80.2865" gradientTransform="matrix(-1 0 0 -1 -4557.2764 99.89)">
	<stop  offset="0" style="stop-color:#B459FF"/>
	<stop  offset="1" style="stop-color:#7C48FF"/>
</linearGradient>
<path class="st3" d="M60.6,19c0,0-0.2,0.6-1.1,0.8c-0.9,0.3-1.5,0-2.3,1.1c0,0,0.3-1.2,1.3-1.5s1.8-0.2,2.2-1L60.6,19z"/>
<linearGradient id="SVGID_5_" gradientUnits="userSpaceOnUse" x1="-4573.7007" y1="77.4605" x2="-4570.2988" y2="77.4605" gradientTransform="matrix(-1 0 0 -1 -4557.2764 99.89)">
	<stop  offset="0" style="stop-color:#FF616D"/>
	<stop  offset="1" style="stop-color:#FF3B5D"/>
</linearGradient>
<path class="st4" d="M13,22.9c1.2-0.5,1.8-1,2.7-1.9c0.3,0.4,0.4,0.6,0.7,1c-0.9,1-1.5,1.4-2.7,1.9C13.4,23.5,13.3,23.3,13,22.9z"/>
<linearGradient id="SVGID_6_" gradientUnits="userSpaceOnUse" x1="-4602.0884" y1="90.1305" x2="-4599.7324" y2="90.1305" gradientTransform="matrix(-1 0 0 -1 -4557.2764 99.89)">
	<stop  offset="0" style="stop-color:#FF616D"/>
	<stop  offset="1" style="stop-color:#FF3B5D"/>
</linearGradient>
<path class="st5" d="M44.7,7c-0.4,2.2-0.4,3.4,0.1,5.5c-0.8,0-1.2,0-2,0c-0.5-2.2-0.5-3.3-0.1-5.5C43.5,7,43.9,7,44.7,7z"/>
<linearGradient id="SVGID_7_" gradientUnits="userSpaceOnUse" x1="-4653.6006" y1="93.739" x2="-4650.2764" y2="93.739" gradientTransform="matrix(-1 0 0 -1 -4557.2764 99.89)">
	<stop  offset="0" style="stop-color:#FF616D"/>
	<stop  offset="1" style="stop-color:#FF3B5D"/>
</linearGradient>
<path class="st6" d="M93.8,4.5c0.8,1.1,1.3,1.6,2.5,2.3c-0.3,0.4-0.5,0.5-0.8,0.9C94.3,7,93.8,6.5,93,5.4
	C93.3,5.1,93.5,4.9,93.8,4.5z"/>
<linearGradient id="SVGID_8_" gradientUnits="userSpaceOnUse" x1="-4562.6597" y1="57.562" x2="-4561.1357" y2="57.562" gradientTransform="matrix(-1 0 0 -1 -4557.2764 99.89)">
	<stop  offset="0" style="stop-color:#FF9D00"/>
	<stop  offset="1" style="stop-color:#FFCB00"/>
</linearGradient>
<path class="st7" d="M3.9,41.9c0.5,0.4,0.7,0.7,1.1,1.3c0.2-0.2,0.3-0.2,0.5-0.4c-0.3-0.6-0.5-0.9-1.1-1.3C4.1,41.7,4,41.7,3.9,41.9
	z"/>
<linearGradient id="SVGID_9_" gradientUnits="userSpaceOnUse" x1="-4611.8477" y1="63.2505" x2="-4610.8525" y2="63.2505" gradientTransform="matrix(-1 0 0 -1 -4557.2764 99.89)">
	<stop  offset="0" style="stop-color:#FF9D00"/>
	<stop  offset="1" style="stop-color:#FFCB00"/>
</linearGradient>
<path class="st8" d="M53.6,36.2c0.3,0.4,0.5,0.6,0.6,1.1c0.2-0.1,0.2-0.1,0.4-0.2c-0.2-0.5-0.3-0.7-0.6-1.1
	C53.8,36.1,53.7,36.1,53.6,36.2z"/>
<linearGradient id="SVGID_10_" gradientUnits="userSpaceOnUse" x1="-4567.1636" y1="78.386" x2="-4566.6616" y2="78.386" gradientTransform="matrix(-1 0 0 -1 -4557.2764 99.89)">
	<stop  offset="0" style="stop-color:#FF616D"/>
	<stop  offset="1" style="stop-color:#FF3B5D"/>
</linearGradient>
<path class="st9" d="M9.8,21.3c-0.1,0.1-0.2,0.2-0.4,0.2c0,0.1,0.1,0.1,0.1,0.2c0.2,0,0.3-0.1,0.4-0.2C9.8,21.4,9.8,21.4,9.8,21.3z"
	/>
<linearGradient id="SVGID_11_" gradientUnits="userSpaceOnUse" x1="-4560.5024" y1="93.0685" x2="-4558.7476" y2="93.0685" gradientTransform="matrix(-1 0 0 -1 -4557.2764 99.89)">
	<stop  offset="0" style="stop-color:#FF616D"/>
	<stop  offset="1" style="stop-color:#FF3B5D"/>
</linearGradient>
<path class="st10" d="M3.2,7.4C2.7,6.9,2.5,6.5,2.4,5.8C2,5.9,1.9,6,1.5,6.2C1.6,7,1.7,7.3,2.3,7.9C2.6,7.7,2.8,7.6,3.2,7.4z"/>
<linearGradient id="SVGID_12_" gradientUnits="userSpaceOnUse" x1="-4561.1294" y1="67.171" x2="-4560.4785" y2="67.171" gradientTransform="matrix(-1 0 0 -1 -4557.2764 99.89)">
	<stop  offset="0" style="stop-color:#FF616D"/>
	<stop  offset="1" style="stop-color:#FF3B5D"/>
</linearGradient>
<path class="st11" d="M3.2,32.5c0.2,0.2,0.2,0.4,0.3,0.7C3.6,33.1,3.7,33,3.9,33c0-0.3-0.1-0.4-0.3-0.7C3.4,32.4,3.4,32.4,3.2,32.5z
	"/>
<linearGradient id="SVGID_13_" gradientUnits="userSpaceOnUse" x1="-4566.1108" y1="86.227" x2="-4565.4604" y2="86.227" gradientTransform="matrix(-1 0 0 -1 -4557.2764 99.89)">
	<stop  offset="0" style="stop-color:#FF616D"/>
	<stop  offset="1" style="stop-color:#FF3B5D"/>
</linearGradient>
<path class="st12" d="M8.8,13.8c-0.2-0.2-0.3-0.3-0.3-0.6c-0.1,0.1-0.2,0.1-0.3,0.2c0.1,0.3,0.1,0.4,0.3,0.6
	C8.6,14,8.7,13.9,8.8,13.8z"/>
<linearGradient id="SVGID_14_" gradientUnits="userSpaceOnUse" x1="-4565.8628" y1="79.147" x2="-4563.7778" y2="79.147" gradientTransform="matrix(-1 0 0 -1 -4557.2764 99.89)">
	<stop  offset="0" style="stop-color:#FF616D"/>
	<stop  offset="1" style="stop-color:#FF3B5D"/>
</linearGradient>
<path class="st13" d="M8.6,21.2c-0.7-0.5-0.9-0.8-1.2-1.6c-0.4,0.3-0.6,0.4-0.9,0.7c0.2,0.8,0.5,1.1,1.2,1.6
	C8,21.6,8.2,21.5,8.6,21.2z"/>
<linearGradient id="SVGID_15_" gradientUnits="userSpaceOnUse" x1="-4577.7476" y1="81.41" x2="-4576.4487" y2="81.41" gradientTransform="matrix(-1 0 0 -1 -4557.2764 99.89)">
	<stop  offset="0" style="stop-color:#FF9D00"/>
	<stop  offset="1" style="stop-color:#FFCB00"/>
</linearGradient>
<path class="st14" d="M19.2,18.1c0.4,0.3,0.5,0.6,0.7,1.1c0.2-0.2,0.4-0.2,0.6-0.4c-0.1-0.5-0.3-0.7-0.7-1.1
	C19.5,17.9,19.4,18,19.2,18.1z"/>
<linearGradient id="SVGID_16_" gradientUnits="userSpaceOnUse" x1="-4588.7725" y1="74.663" x2="-4586.1416" y2="74.663" gradientTransform="matrix(-1 0 0 -1 -4557.2764 99.89)">
	<stop  offset="0" style="stop-color:#FF616D"/>
	<stop  offset="1" style="stop-color:#FF3B5D"/>
</linearGradient>
<path class="st15" d="M31.5,25.2c-0.9-0.2-1.3-0.5-2-1.2c-0.3,0.5-0.4,0.7-0.7,1.1c0.6,0.7,1,1,2,1.2C31.1,25.9,31.2,25.7,31.5,25.2
	z"/>
<linearGradient id="SVGID_17_" gradientUnits="userSpaceOnUse" x1="-4614.4307" y1="88.1135" x2="-4612.9458" y2="88.1135" gradientTransform="matrix(-1 0 0 -1 -4557.2764 99.89)">
	<stop  offset="0" style="stop-color:#FF9D00"/>
	<stop  offset="1" style="stop-color:#FFCB00"/>
</linearGradient>
<path class="st16" d="M57,11.3c-0.5,0.3-0.8,0.3-1.3,0.3c0.1,0.3,0.1,0.5,0.1,0.8c0.6,0.1,0.8,0,1.3-0.3
	C57.1,11.7,57.1,11.6,57,11.3z"/>
<linearGradient id="SVGID_18_" gradientUnits="userSpaceOnUse" x1="-4623.7466" y1="67.1693" x2="-4623.229" y2="67.1693" gradientTransform="matrix(-1 0 0 -1 -4557.2764 99.89)">
	<stop  offset="0" style="stop-color:#FF616D"/>
	<stop  offset="1" style="stop-color:#FF3B5D"/>
</linearGradient>
<path class="st17" d="M66,32.9c0.2-0.1,0.3-0.1,0.5-0.1c0-0.1,0-0.2,0-0.3c-0.2,0-0.3,0-0.5,0.1C66,32.7,66,32.8,66,32.9z"/>
<linearGradient id="SVGID_19_" gradientUnits="userSpaceOnUse" x1="-4629.9038" y1="89.976" x2="-4627.6865" y2="89.976" gradientTransform="matrix(-1 0 0 -1 -4557.2764 99.89)">
	<stop  offset="0" style="stop-color:#FF616D"/>
	<stop  offset="1" style="stop-color:#FF3B5D"/>
</linearGradient>
<path class="st18" d="M71.5,11.2c0.2-0.9,0.5-1.3,1.2-1.9c-0.4-0.3-0.6-0.4-1.1-0.7c-0.7,0.6-0.9,1-1.2,1.9
	C70.8,10.8,71,10.9,71.5,11.2z"/>
<linearGradient id="SVGID_20_" gradientUnits="userSpaceOnUse" x1="-4621.0454" y1="66.9365" x2="-4620.5205" y2="66.9365" gradientTransform="matrix(-1 0 0 -1 -4557.2764 99.89)">
	<stop  offset="0" style="stop-color:#FF616D"/>
	<stop  offset="1" style="stop-color:#FF3B5D"/>
</linearGradient>
<path class="st19" d="M63.8,33.3c-0.1-0.2-0.2-0.4-0.1-0.7c-0.2,0-0.2,0-0.4,0.1c0,0.3,0,0.4,0.1,0.7C63.5,33.3,63.6,33.3,63.8,33.3
	z"/>
<linearGradient id="SVGID_21_" gradientUnits="userSpaceOnUse" x1="-4627.4395" y1="79.845" x2="-4626.2876" y2="79.845" gradientTransform="matrix(-1 0 0 -1 -4557.2764 99.89)">
	<stop  offset="0" style="stop-color:#FF616D"/>
	<stop  offset="1" style="stop-color:#FF3B5D"/>
</linearGradient>
<path class="st20" d="M69.6,19.4c-0.1,0.4-0.3,0.6-0.6,0.9c0.2,0.1,0.3,0.2,0.5,0.4c0.4-0.3,0.5-0.5,0.6-0.9
	C70,19.6,69.9,19.6,69.6,19.4z"/>
<linearGradient id="SVGID_22_" gradientUnits="userSpaceOnUse" x1="-4639.7178" y1="66.564" x2="-4638.0728" y2="66.564" gradientTransform="matrix(-1 0 0 -1 -4557.2764 99.89)">
	<stop  offset="0" style="stop-color:#FF616D"/>
	<stop  offset="1" style="stop-color:#FF3B5D"/>
</linearGradient>
<path class="st21" d="M82.4,33.3c-0.6-0.1-0.9-0.2-1.3-0.7c-0.2,0.3-0.2,0.4-0.4,0.7c0.4,0.4,0.7,0.6,1.3,0.7
	C82.2,33.7,82.3,33.6,82.4,33.3z"/>
<linearGradient id="SVGID_23_" gradientUnits="userSpaceOnUse" x1="-4663.1748" y1="77.5785" x2="-4660.8535" y2="77.5785" gradientTransform="matrix(-1 0 0 -1 -4557.2764 99.89)">
	<stop  offset="0" style="stop-color:#FF616D"/>
	<stop  offset="1" style="stop-color:#FF3B5D"/>
</linearGradient>
<path class="st22" d="M105.9,22.4c-0.8-0.2-1.2-0.5-1.7-1.1c-0.3,0.4-0.4,0.6-0.6,1c0.5,0.6,0.9,0.9,1.7,1.1
	C105.5,23,105.6,22.8,105.9,22.4z"/>
<linearGradient id="SVGID_24_" gradientUnits="userSpaceOnUse" x1="-4674.8447" y1="67.422" x2="-4674.3672" y2="67.422" gradientTransform="matrix(-1 0 0 -1 -4557.2764 99.89)">
	<stop  offset="0" style="stop-color:#FF616D"/>
	<stop  offset="1" style="stop-color:#FF3B5D"/>
</linearGradient>
<path class="st23" d="M117.3,32.7c0.1-0.2,0.1-0.3,0.3-0.4c-0.1-0.1-0.1-0.1-0.2-0.2c-0.2,0.1-0.2,0.2-0.3,0.4
	C117.2,32.6,117.2,32.7,117.3,32.7z"/>
<linearGradient id="SVGID_25_" gradientUnits="userSpaceOnUse" x1="-4681.7285" y1="80.382" x2="-4680.5928" y2="80.382" gradientTransform="matrix(-1 0 0 -1 -4557.2764 99.89)">
	<stop  offset="0" style="stop-color:#FF616D"/>
	<stop  offset="1" style="stop-color:#FF3B5D"/>
</linearGradient>
<path class="st24" d="M124,18.9c-0.2,0.4-0.3,0.6-0.7,0.8c0.2,0.2,0.3,0.2,0.5,0.4c0.4-0.2,0.5-0.4,0.7-0.8
	C124.3,19.1,124.2,19.1,124,18.9z"/>
<linearGradient id="SVGID_26_" gradientUnits="userSpaceOnUse" x1="-4677.2593" y1="77.0505" x2="-4676.3657" y2="77.0505" gradientTransform="matrix(-1 0 0 -1 -4557.2764 99.89)">
	<stop  offset="0" style="stop-color:#FF616D"/>
	<stop  offset="1" style="stop-color:#FF3B5D"/>
</linearGradient>
<path class="st25" d="M119.1,22.3c0.2,0.5,0.2,0.7,0.2,1.2c0.3,0,0.4-0.1,0.7-0.1c0.1-0.5,0.1-0.8-0.2-1.2
	C119.5,22.2,119.4,22.2,119.1,22.3z"/>
<linearGradient id="SVGID_27_" gradientUnits="userSpaceOnUse" x1="-4670.5615" y1="53.003" x2="-4668.9707" y2="53.003" gradientTransform="matrix(-1 0 0 -1 -4557.2764 99.89)">
	<stop  offset="0" style="stop-color:#FF616D"/>
	<stop  offset="1" style="stop-color:#FF3B5D"/>
</linearGradient>
<path class="st26" d="M112.5,46c-0.2,0.6-0.3,0.9-0.8,1.3c0.3,0.2,0.5,0.3,0.8,0.5c0.5-0.4,0.7-0.7,0.8-1.3
	C113,46.3,112.8,46.2,112.5,46z"/>
<linearGradient id="SVGID_28_" gradientUnits="userSpaceOnUse" x1="-4632.5229" y1="99.1925" x2="-4631.2056" y2="99.1925" gradientTransform="matrix(-1 0 0 -1 -4557.2764 99.89)">
	<stop  offset="0" style="stop-color:#FF616D"/>
	<stop  offset="1" style="stop-color:#FF3B5D"/>
</linearGradient>
<path class="st27" d="M73.9-0.2c0.3,0.7,0.3,1.2,0.1,1.9c0.4,0,0.7,0,1.1,0c0.2-0.8,0.2-1.2-0.1-1.9C74.6-0.3,74.4-0.3,73.9-0.2z"/>
<linearGradient id="SVGID_29_" gradientUnits="userSpaceOnUse" x1="-4680.3398" y1="67.685" x2="-4678.6377" y2="67.685" gradientTransform="matrix(-1 0 0 -1 -4557.2764 99.89)">
	<stop  offset="0" style="stop-color:#FF616D"/>
	<stop  offset="1" style="stop-color:#FF3B5D"/>
</linearGradient>
<path class="st28" d="M122.3,33.3c0.1-0.8,0.2-1.1,0.7-1.7c-0.4-0.2-0.6-0.3-1-0.4c-0.5,0.6-0.7,0.9-0.7,1.7
	C121.8,33,121.9,33.1,122.3,33.3z"/>
<linearGradient id="SVGID_30_" gradientUnits="userSpaceOnUse" x1="-4649.9707" y1="84.039" x2="-4647.9497" y2="84.039" gradientTransform="matrix(-1 0 0 -1 -4557.2764 99.89)">
	<stop  offset="0" style="stop-color:#FF616D"/>
	<stop  offset="1" style="stop-color:#FF3B5D"/>
</linearGradient>
<path class="st29" d="M91.9,17.1c0.1-0.9,0.2-1.4,0.8-2.1c-0.5-0.2-0.7-0.3-1.2-0.5c-0.6,0.7-0.8,1.1-0.8,2.1
	C91.1,16.8,91.4,16.9,91.9,17.1z"/>
<linearGradient id="SVGID_31_" gradientUnits="userSpaceOnUse" x1="-4653.9717" y1="62.832" x2="-4652.9028" y2="62.832" gradientTransform="matrix(-1 0 0 -1 -4557.2764 99.89)">
	<stop  offset="0" style="stop-color:#FF616D"/>
	<stop  offset="1" style="stop-color:#FF3B5D"/>
</linearGradient>
<path class="st30" d="M96.7,37c-0.4-0.1-0.5-0.2-0.8-0.4c-0.1,0.2-0.2,0.3-0.3,0.5c0.3,0.3,0.4,0.4,0.8,0.4
	C96.5,37.3,96.6,37.2,96.7,37z"/>
<linearGradient id="SVGID_32_" gradientUnits="userSpaceOnUse" x1="-4601.0728" y1="98.227" x2="-4598.7856" y2="98.227" gradientTransform="matrix(-1 0 0 -1 -4557.2764 99.89)">
	<stop  offset="0" style="stop-color:#FF616D"/>
	<stop  offset="1" style="stop-color:#FF3B5D"/>
</linearGradient>
<path class="st31" d="M42,2.6C42.6,2,43,1.8,43.8,1.7c-0.2-0.4-0.3-0.6-0.5-1c-0.8,0.1-1.2,0.3-1.8,0.9C41.7,2,41.8,2.2,42,2.6z"/>
<linearGradient id="SVGID_33_" gradientUnits="userSpaceOnUse" x1="-4616.1484" y1="97.241" x2="-4613.9268" y2="97.241" gradientTransform="matrix(-1 0 0 -1 -4557.2764 99.89)">
	<stop  offset="0" style="stop-color:#FF616D"/>
	<stop  offset="1" style="stop-color:#FF3B5D"/>
</linearGradient>
<path class="st32" d="M58.4,1.7c-0.6,0.6-0.9,0.8-1.7,0.9c0.2,0.4,0.3,0.6,0.5,1c0.8-0.1,1.2-0.3,1.7-0.9
	C58.7,2.3,58.6,2.1,58.4,1.7z"/>
<linearGradient id="SVGID_34_" gradientUnits="userSpaceOnUse" x1="-4610.1626" y1="79.6995" x2="-4608.8916" y2="79.6995" gradientTransform="matrix(-1 0 0 -1 -4557.2764 99.89)">
	<stop  offset="0" style="stop-color:#FF616D"/>
	<stop  offset="1" style="stop-color:#FF3B5D"/>
</linearGradient>
<path class="st33" d="M51.6,19.7c0.4,0.5,0.5,0.7,0.5,1.3c0.3-0.1,0.5-0.2,0.8-0.3c0-0.6-0.1-0.9-0.5-1.3
	C52.1,19.5,51.9,19.6,51.6,19.7z"/>
<linearGradient id="SVGID_35_" gradientUnits="userSpaceOnUse" x1="-4626.4038" y1="97.6671" x2="-4624.2324" y2="97.6671" gradientTransform="matrix(-1 0 0 -1 -4557.2764 99.89)">
	<stop  offset="0" style="stop-color:#FF9D00"/>
	<stop  offset="1" style="stop-color:#FFCB00"/>
</linearGradient>
<path class="st34" d="M67,2.9c0.9-0.3,1.3-0.3,2.2,0c0-0.5,0-0.7,0-1.2c-0.9-0.3-1.3-0.3-2.2,0C67,2.2,67,2.5,67,2.9z"/>
<linearGradient id="SVGID_36_" gradientUnits="userSpaceOnUse" x1="-4591.8755" y1="91.0702" x2="-4589.9478" y2="91.0702" gradientTransform="matrix(-1 0 0 -1 -4557.2764 99.89)">
	<stop  offset="0" style="stop-color:#FF616D"/>
	<stop  offset="1" style="stop-color:#FF3B5D"/>
</linearGradient>
<path class="st35" d="M32.9,9.5c0.6-0.4,1-0.4,1.7-0.4c-0.1-0.4-0.1-0.6-0.2-1c-0.7-0.1-1.1,0-1.7,0.4C32.8,8.9,32.8,9.1,32.9,9.5z"
	/>
<linearGradient id="SVGID_37_" gradientUnits="userSpaceOnUse" x1="-4631.1509" y1="60.79" x2="-4630.2915" y2="60.79" gradientTransform="matrix(-1 0 0 -1 -4557.2764 99.89)">
	<stop  offset="0" style="stop-color:#FF616D"/>
	<stop  offset="1" style="stop-color:#FF3B5D"/>
</linearGradient>
<path class="st36" d="M73.2,38.5c0.1,0.5,0,0.7-0.2,1.1c0.3,0,0.4,0.1,0.6,0.1c0.2-0.4,0.3-0.6,0.2-1.1
	C73.6,38.6,73.5,38.5,73.2,38.5z"/>
<linearGradient id="SVGID_38_" gradientUnits="userSpaceOnUse" x1="-4606.7686" y1="98.5973" x2="-4605.6816" y2="98.5973" gradientTransform="matrix(-1 0 0 -1 -4557.2764 99.89)">
	<stop  offset="0" style="stop-color:#FF9D00"/>
	<stop  offset="1" style="stop-color:#FFCB00"/>
</linearGradient>
<path class="st37" d="M48.4,1.6c0.4-0.1,0.6-0.1,1,0.1c0-0.2,0-0.4,0-0.6c-0.4-0.2-0.6-0.2-1-0.1C48.4,1.2,48.4,1.3,48.4,1.6z"/>
<linearGradient id="SVGID_39_" gradientUnits="userSpaceOnUse" x1="-4577.6494" y1="54.4795" x2="-4575.2466" y2="54.4795" gradientTransform="matrix(-1 0 0 -1 -4557.2764 99.89)">
	<stop  offset="0" style="stop-color:#FF616D"/>
	<stop  offset="1" style="stop-color:#FF3B5D"/>
</linearGradient>
<path class="st38" d="M19.9,44.5c-0.7,0.6-1.1,0.7-1.9,0.8c0.2,0.4,0.3,0.7,0.5,1.1c0.9-0.1,1.3-0.2,1.9-0.8
	C20.2,45.1,20.1,44.9,19.9,44.5z"/>
<linearGradient id="SVGID_40_" gradientUnits="userSpaceOnUse" x1="-4667.1338" y1="94.454" x2="-4665.3984" y2="94.454" gradientTransform="matrix(-1 0 0 -1 -4557.2764 99.89)">
	<stop  offset="0" style="stop-color:#FF616D"/>
	<stop  offset="1" style="stop-color:#FF3B5D"/>
</linearGradient>
<path class="st39" d="M109.2,4.5c-0.3,0.6-0.5,0.9-1.1,1.2c0.3,0.2,0.4,0.4,0.7,0.6c0.6-0.3,0.8-0.6,1.1-1.2
	C109.6,4.9,109.4,4.8,109.2,4.5z"/>
<linearGradient id="SVGID_41_" gradientUnits="userSpaceOnUse" x1="-4653.4595" y1="53.5215" x2="-4652.3457" y2="53.5215" gradientTransform="matrix(-1 0 0 -1 -4557.2764 99.89)">
	<stop  offset="0" style="stop-color:#FF616D"/>
	<stop  offset="1" style="stop-color:#FF3B5D"/>
</linearGradient>
<path class="st40" d="M95.4,46.9c0.2-0.3,0.4-0.5,0.8-0.6C96,46.1,96,46,95.8,45.8c-0.4,0.1-0.5,0.3-0.8,0.6
	C95.2,46.6,95.3,46.7,95.4,46.9z"/>
<linearGradient id="SVGID_42_" gradientUnits="userSpaceOnUse" x1="-4679.7407" y1="93.068" x2="-4677.5347" y2="93.068" gradientTransform="matrix(-1 0 0 -1 -4557.2764 99.89)">
	<stop  offset="0" style="stop-color:#FF616D"/>
	<stop  offset="1" style="stop-color:#FF3B5D"/>
</linearGradient>
<path class="st41" d="M121.3,8c0.3-0.8,0.5-1.2,1.2-1.7c-0.4-0.3-0.6-0.4-1-0.7c-0.7,0.5-1,0.9-1.2,1.7C120.7,7.6,120.9,7.8,121.3,8
	z"/>
<linearGradient id="SVGID_43_" gradientUnits="userSpaceOnUse" x1="-4663.75" y1="98.967" x2="-4662.6006" y2="98.967" gradientTransform="matrix(-1 0 0 -1 -4557.2764 99.89)">
	<stop  offset="0" style="stop-color:#FF616D"/>
	<stop  offset="1" style="stop-color:#FF3B5D"/>
</linearGradient>
<path class="st42" d="M105.7,0.1c0,0.6-0.1,0.9-0.4,1.4c0.3,0.1,0.5,0.1,0.8,0.2c0.3-0.5,0.4-0.8,0.4-1.4
	C106.2,0.3,106,0.2,105.7,0.1z"/>
<linearGradient id="SVGID_44_" gradientUnits="userSpaceOnUse" x1="-4580.4546" y1="62.832" x2="-4579.4526" y2="62.832" gradientTransform="matrix(-1 0 0 -1 -4557.2764 99.89)">
	<stop  offset="0" style="stop-color:#4D79F9"/>
	<stop  offset="1" style="stop-color:#01B5D6"/>
</linearGradient>
<path class="st43" d="M23.2,37.3c-0.3-0.2-0.4-0.4-0.6-0.7c-0.2,0.1-0.3,0.2-0.4,0.3c0.1,0.4,0.3,0.5,0.6,0.7
	C22.9,37.5,23,37.4,23.2,37.3z"/>
<linearGradient id="SVGID_45_" gradientUnits="userSpaceOnUse" x1="-4677.1738" y1="96.5575" x2="-4676.2427" y2="96.5575" gradientTransform="matrix(-1 0 0 -1 -4557.2764 99.89)">
	<stop  offset="0" style="stop-color:#4D79F9"/>
	<stop  offset="1" style="stop-color:#01B5D6"/>
</linearGradient>
<path class="st44" d="M119,3.3c0.3,0.1,0.5,0.1,0.7,0.4c0.1-0.2,0.1-0.2,0.2-0.4c-0.2-0.2-0.4-0.3-0.7-0.4
	C119.1,3.1,119.1,3.2,119,3.3z"/>
<linearGradient id="SVGID_46_" gradientUnits="userSpaceOnUse" x1="-4658.4175" y1="96.5165" x2="-4656.3428" y2="96.5165" gradientTransform="matrix(-1 0 0 -1 -4557.2764 99.89)">
	<stop  offset="0" style="stop-color:#4D79F9"/>
	<stop  offset="1" style="stop-color:#01B5D6"/>
</linearGradient>
<path class="st45" d="M100.3,2.3c-0.3,0.7-0.6,1-1.3,1.4c0.3,0.3,0.5,0.4,0.8,0.7c0.7-0.4,0.9-0.7,1.3-1.4
	C100.8,2.7,100.6,2.6,100.3,2.3z"/>
<linearGradient id="SVGID_47_" gradientUnits="userSpaceOnUse" x1="-4665.1484" y1="86.4475" x2="-4663.0898" y2="86.4475" gradientTransform="matrix(-1 0 0 -1 -4557.2764 99.89)">
	<stop  offset="0" style="stop-color:#4D79F9"/>
	<stop  offset="1" style="stop-color:#01B5D6"/>
</linearGradient>
<path class="st46" d="M107.2,12.5c-0.4,0.6-0.7,0.8-1.4,1.1c0.3,0.3,0.4,0.5,0.6,0.8c0.7-0.2,1-0.5,1.4-1.1
	C107.6,13,107.5,12.8,107.2,12.5z"/>
<linearGradient id="SVGID_48_" gradientUnits="userSpaceOnUse" x1="-4638.707" y1="77.625" x2="-4636.6167" y2="77.625" gradientTransform="matrix(-1 0 0 -1 -4557.2764 99.89)">
	<stop  offset="0" style="stop-color:#4D79F9"/>
	<stop  offset="1" style="stop-color:#01B5D6"/>
</linearGradient>
<path class="st47" d="M80,20.8c0,1-0.1,1.6-0.7,2.4c0.6,0.2,0.8,0.2,1.4,0.4c0.6-0.9,0.7-1.4,0.7-2.4C80.9,21.1,80.6,21,80,20.8z"/>
<linearGradient id="SVGID_49_" gradientUnits="userSpaceOnUse" x1="-4595.7188" y1="97.223" x2="-4594.1987" y2="97.223" gradientTransform="matrix(-1 0 0 -1 -4557.2764 99.89)">
	<stop  offset="0" style="stop-color:#4D79F9"/>
	<stop  offset="1" style="stop-color:#01B5D6"/>
</linearGradient>
<path class="st48" d="M36.9,2.8c0.5,0,0.8,0.2,1.2,0.5c0.1-0.3,0.2-0.4,0.3-0.7c-0.4-0.4-0.7-0.5-1.2-0.5C37.1,2.3,37,2.5,36.9,2.8z
	"/>
<linearGradient id="SVGID_50_" gradientUnits="userSpaceOnUse" x1="-4577.3916" y1="93.407" x2="-4575.7544" y2="93.407" gradientTransform="matrix(-1 0 0 -1 -4557.2764 99.89)">
	<stop  offset="0" style="stop-color:#4D79F9"/>
	<stop  offset="1" style="stop-color:#01B5D6"/>
</linearGradient>
<path class="st49" d="M20.1,6.2c-0.6,0.1-0.9,0-1.5-0.3c-0.1,0.3-0.1,0.5-0.2,0.8C19,7,19.3,7.1,19.9,7C20,6.7,20,6.5,20.1,6.2z"/>
<linearGradient id="SVGID_51_" gradientUnits="userSpaceOnUse" x1="-4599.6675" y1="79.0425" x2="-4597.5898" y2="79.0425" gradientTransform="matrix(-1 0 0 -1 -4557.2764 99.89)">
	<stop  offset="0" style="stop-color:#4D79F9"/>
	<stop  offset="1" style="stop-color:#01B5D6"/>
</linearGradient>
<path class="st50" d="M41.4,19.7c-0.2,0.8-0.5,1.1-1.1,1.6c0.4,0.3,0.6,0.4,0.9,0.7c0.7-0.5,0.9-0.9,1.1-1.6
	C42,20.1,41.8,20,41.4,19.7z"/>
<linearGradient id="SVGID_52_" gradientUnits="userSpaceOnUse" x1="-4643.1035" y1="55.437" x2="-4641.4087" y2="55.437" gradientTransform="matrix(-1 0 0 -1 -4557.2764 99.89)">
	<stop  offset="0" style="stop-color:#4D79F9"/>
	<stop  offset="1" style="stop-color:#01B5D6"/>
</linearGradient>
<path class="st51" d="M85,45.4c0.2-0.7,0.3-1,0.9-1.4c-0.3-0.2-0.5-0.3-0.8-0.5c-0.5,0.5-0.7,0.8-0.9,1.4
	C84.5,45.1,84.6,45.2,85,45.4z"/>
<linearGradient id="SVGID_53_" gradientUnits="userSpaceOnUse" x1="-4647.0698" y1="98.63" x2="-4645.3408" y2="98.63" gradientTransform="matrix(-1 0 0 -1 -4557.2764 99.89)">
	<stop  offset="0" style="stop-color:#4D79F9"/>
	<stop  offset="1" style="stop-color:#01B5D6"/>
</linearGradient>
<path class="st52" d="M88.9,2.2c0.2-0.7,0.4-1,0.9-1.4c-0.3-0.2-0.5-0.3-0.8-0.5c-0.5,0.5-0.7,0.8-0.9,1.4C88.4,1.9,88.6,2,88.9,2.2
	z"/>
<linearGradient id="SVGID_54_" gradientUnits="userSpaceOnUse" x1="-4654.8647" y1="70.9238" x2="-4652.9028" y2="70.9238" gradientTransform="matrix(-1 0 0 -1 -4557.2764 99.89)">
	<stop  offset="0" style="stop-color:#4D79F9"/>
	<stop  offset="1" style="stop-color:#01B5D6"/>
</linearGradient>
<path class="st53" d="M95.8,29.7c0.7-0.4,1-0.4,1.8-0.3c-0.1-0.4-0.1-0.6-0.2-1c-0.7-0.1-1.1,0-1.8,0.3
	C95.7,29.1,95.7,29.3,95.8,29.7z"/>
<linearGradient id="SVGID_55_" gradientUnits="userSpaceOnUse" x1="-4667.0996" y1="59.1348" x2="-4665.8076" y2="59.1348" gradientTransform="matrix(-1 0 0 -1 -4557.2764 99.89)">
	<stop  offset="0" style="stop-color:#4D79F9"/>
	<stop  offset="1" style="stop-color:#01B5D6"/>
</linearGradient>
<path class="st54" d="M109.8,40.3c-0.5,0.2-0.8,0.2-1.3,0c0,0.3,0,0.4,0,0.7c0.5,0.1,0.8,0.1,1.3,0
	C109.8,40.8,109.8,40.6,109.8,40.3z"/>
<linearGradient id="SVGID_56_" gradientUnits="userSpaceOnUse" x1="-4677.1685" y1="88.6386" x2="-4675.4175" y2="88.6386" gradientTransform="matrix(-1 0 0 -1 -4557.2764 99.89)">
	<stop  offset="0" style="stop-color:#4D79F9"/>
	<stop  offset="1" style="stop-color:#01B5D6"/>
</linearGradient>
<path class="st55" d="M118.1,11.6c0.7-0.1,1-0.1,1.6,0.2c0.1-0.4,0.1-0.6,0.1-0.9c-0.6-0.3-0.9-0.4-1.6-0.2
	C118.2,11.1,118.2,11.2,118.1,11.6z"/>
<path class="st56" d="M1.5,24.7c-0.3-0.5-0.3-0.8-0.3-1.3c-0.3,0.1-0.4,0.1-0.7,0.2c-0.1,0.5,0,0.8,0.3,1.3
	C1.1,24.8,1.2,24.7,1.5,24.7z"/>
<path class="st56" d="M47.4,34.2c0.1-1,0.3-1.5,1-2.2c-0.5-0.2-0.8-0.4-1.3-0.6c-0.7,0.7-0.9,1.2-1,2.2C46.7,33.8,46.9,34,47.4,34.2
	z"/>
<path class="st56" d="M29.4,3.2c0.1-1.1,0.3-1.6,1.1-2.3c-0.5-0.2-0.8-0.4-1.3-0.6C28.4,1,28.1,1.5,28,2.6
	C28.6,2.8,28.8,2.9,29.4,3.2z"/>
<path class="st56" d="M114.8,0.9c-1.1,0-1.6-0.2-2.4-0.8c-0.2,0.6-0.3,0.8-0.5,1.4c0.9,0.6,1.4,0.8,2.4,0.8
	C114.6,1.7,114.7,1.4,114.8,0.9z"/>
<g>
	<path class="st57" d="M111.9,22.2c0,0-0.5-0.7,0.4-1.1c0,0,0.4-0.2,2.7,1l0.4,0.9l-0.1,0.2c0.1,0,0,0-0.5-0.2
		C114.4,22.8,113.1,22.2,111.9,22.2z"/>
	
		<linearGradient id="SVGID_57_" gradientUnits="userSpaceOnUse" x1="-4671.1528" y1="76.368" x2="-4668.6284" y2="76.368" gradientTransform="matrix(-1 0 0 -1 -4557.2764 99.89)">
		<stop  offset="0" style="stop-color:#FF616D"/>
		<stop  offset="1" style="stop-color:#FF3B5D"/>
	</linearGradient>
	<path class="st58" d="M113.9,25.1c0,0-0.1,0.3-0.7,0.8c0,0,0.1-0.5-0.4-1.1c-0.5-0.6-1.6-1.7-1.5-2.5c0,0,0-0.2,0.1-0.5
		c0.1-0.2,0.4-0.7,0.8-0.8c0,0-0.7,0.2-0.2,1.3C112.3,22.9,113.8,24.7,113.9,25.1z"/>
	<path class="st57" d="M113.9,19.5c0,0-0.5-0.7,0.4-1.1c0,0,0.4-0.2,2.7,1l0.4,0.6l-0.1,0.5c0.1,0,0,0-0.5-0.2
		C116.4,20.1,115.1,19.5,113.9,19.5z"/>
	
		<linearGradient id="SVGID_58_" gradientUnits="userSpaceOnUse" x1="-4673.1636" y1="79.0725" x2="-4670.6396" y2="79.0725" gradientTransform="matrix(-1 0 0 -1 -4557.2764 99.89)">
		<stop  offset="0" style="stop-color:#FF616D"/>
		<stop  offset="1" style="stop-color:#FF3B5D"/>
	</linearGradient>
	<path class="st59" d="M115.9,22.4c0,0-0.1,0.3-0.7,0.8c0,0,0.1-0.5-0.4-1.1c-0.5-0.6-1.6-1.7-1.5-2.5c0,0,0-0.2,0.1-0.5
		c0.1-0.2,0.4-0.7,0.8-0.8c0,0-0.7,0.2-0.2,1.3C114.3,20.2,115.8,22,115.9,22.4z"/>
	
		<linearGradient id="SVGID_59_" gradientUnits="userSpaceOnUse" x1="-4675.2007" y1="81.47" x2="-4672.6763" y2="81.47" gradientTransform="matrix(-1 0 0 -1 -4557.2764 99.89)">
		<stop  offset="0" style="stop-color:#FF616D"/>
		<stop  offset="1" style="stop-color:#FF3B5D"/>
	</linearGradient>
	<path class="st60" d="M117.9,19.6c0,0-0.1,0.3-0.7,0.8c0,0,0.1-0.5-0.4-1.1c-0.5-0.6-1.6-1.7-1.5-2.5l0.6-0.5
		c0,0.2,0.1,0.3,0.2,0.6C116.4,17.5,117.8,19.3,117.9,19.6z"/>
</g>
<linearGradient id="SVGID_60_" gradientUnits="userSpaceOnUse" x1="-4643.4863" y1="92.874" x2="-4640.4653" y2="92.874" gradientTransform="matrix(-1 0 0 -1 -4557.2764 99.89)">
	<stop  offset="0" style="stop-color:#2657E3"/>
	<stop  offset="1" style="stop-color:#019BB8"/>
</linearGradient>
<path class="st61" d="M83.6,8.6c-0.1-0.3,2.8-1.8,2.6-2.2l-0.4-1c0.1,0.2-2.8,1.7-2.6,2.1L83.6,8.6z"/>
<linearGradient id="SVGID_61_" gradientUnits="userSpaceOnUse" x1="-4642.9175" y1="94.8235" x2="-4639.3091" y2="94.8235" gradientTransform="matrix(-1 0 0 -1 -4557.2764 99.89)">
	<stop  offset="0" style="stop-color:#2657E3"/>
	<stop  offset="1" style="stop-color:#019BB8"/>
</linearGradient>
<path class="st62" d="M82.4,7c-0.1-0.3,3.4-2.5,3.2-2.9l-0.4-1C85.4,3.4,81.9,5.6,82,6L82.4,7z"/>
<linearGradient id="SVGID_62_" gradientUnits="userSpaceOnUse" x1="-4643.4766" y1="93.7307" x2="-4639.3135" y2="93.7307" gradientTransform="matrix(-1 0 0 -1 -4557.2764 99.89)">
	<stop  offset="0" style="stop-color:#4D79F9"/>
	<stop  offset="1" style="stop-color:#01B5D6"/>
</linearGradient>
<path class="st63" d="M82.4,7c0.1,0.2,0.9,0,1.9-0.4s1.9-0.3,1.9-0.2c0,0-0.3-0.8-0.4-1c-0.1-0.2-0.9-0.2-1.9,0.2
	c-1,0.4-1.8,0.6-1.9,0.4C82,6,82.3,6.8,82.4,7z"/>
<linearGradient id="SVGID_63_" gradientUnits="userSpaceOnUse" x1="-4642.9229" y1="96.4576" x2="-4639.6064" y2="96.4576" gradientTransform="matrix(-1 0 0 -1 -4557.2764 99.89)">
	<stop  offset="0" style="stop-color:#4D79F9"/>
	<stop  offset="1" style="stop-color:#01B5D6"/>
</linearGradient>
<path class="st64" d="M82.7,4.1c0.9-0.5,2.7-0.6,2.9,0c0,0-0.3-0.8-0.4-1c-0.2-0.6-2-0.5-2.9,0L82.7,4.1z"/>
<linearGradient id="SVGID_64_" gradientUnits="userSpaceOnUse" x1="-4644.1592" y1="91.0225" x2="-4641.1382" y2="91.0225" gradientTransform="matrix(-1 0 0 -1 -4557.2764 99.89)">
	<stop  offset="0" style="stop-color:#2657E3"/>
	<stop  offset="1" style="stop-color:#019BB8"/>
</linearGradient>
<path class="st65" d="M84.2,10.4c-0.1-0.3,2.8-1.8,2.6-2.2l-0.4-1c0.1,0.2-2.8,1.7-2.6,2.1L84.2,10.4z"/>
<linearGradient id="SVGID_65_" gradientUnits="userSpaceOnUse" x1="-4644.8315" y1="89.53" x2="-4642.3716" y2="89.53" gradientTransform="matrix(-1 0 0 -1 -4557.2764 99.89)">
	<stop  offset="0" style="stop-color:#2657E3"/>
	<stop  offset="1" style="stop-color:#019BB8"/>
</linearGradient>
<path class="st66" d="M85.5,11.6c0,0,2.2-1.1,2-1.5l-0.4-1c0.2,0.6-2.1,1.6-2.1,1.6L85.5,11.6z"/>
<linearGradient id="SVGID_66_" gradientUnits="userSpaceOnUse" x1="-4644.8364" y1="90.1305" x2="-4641.1494" y2="90.1305" gradientTransform="matrix(-1 0 0 -1 -4557.2764 99.89)">
	<stop  offset="0" style="stop-color:#4D79F9"/>
	<stop  offset="1" style="stop-color:#01B5D6"/>
</linearGradient>
<path class="st67" d="M84.2,10.5c0.1,0.2,0.7,0.1,1.7-0.2s1.6-0.2,1.7-0.1c0,0-0.3-0.8-0.4-1c-0.1-0.2-0.7-0.3-1.7,0.1
	s-1.6,0.4-1.7,0.2C83.9,9.4,84.2,10.3,84.2,10.5z"/>
<linearGradient id="SVGID_67_" gradientUnits="userSpaceOnUse" x1="-4644.1494" y1="92.02" x2="-4640.4624" y2="92.02" gradientTransform="matrix(-1 0 0 -1 -4557.2764 99.89)">
	<stop  offset="0" style="stop-color:#4D79F9"/>
	<stop  offset="1" style="stop-color:#01B5D6"/>
</linearGradient>
<path class="st68" d="M83.6,8.6c0.1,0.2,0.7,0.1,1.7-0.2s1.6-0.2,1.7-0.1c0,0-0.3-0.8-0.4-1C86.4,7,85.8,7,84.8,7.3
	s-1.6,0.4-1.7,0.2C83.2,7.5,83.5,8.4,83.6,8.6z"/>
<g>
	<path class="st57" d="M9.2,40.5c0.2-0.3,3.2,1,3.5,0.6l0.5-0.9c-0.1,0.2-3.2-1-3.4-0.7L9.2,40.5z"/>
	
		<linearGradient id="SVGID_68_" gradientUnits="userSpaceOnUse" x1="-3251.8928" y1="-715.361" x2="-3249.9744" y2="-715.361" gradientTransform="matrix(-0.9692 0.2461 -0.2461 -0.9692 -3316.6555 147.6177)">
		<stop  offset="0" style="stop-color:#FF616D"/>
		<stop  offset="1" style="stop-color:#FF3B5D"/>
	</linearGradient>
	<path class="st69" d="M9.2,40.5c-0.2,0.3,0.6,1.1,1.5,1.6l0.6-1c-0.9-0.5-1.7-1.3-1.5-1.6C9.8,39.6,9.3,40.4,9.2,40.5z"/>
</g>
<path class="st57" d="M10.2,38.8c0.2-0.3,3.2,1,3.5,0.6l0.5-0.9c-0.1,0.2-3.2-1-3.4-0.7L10.2,38.8z"/>
<path class="st57" d="M11.7,36.2c0.4-0.7,3.3-1.2,3.8-1.9l0.5-0.9c-0.5,0.8-3.2,1-3.7,1.9L11.7,36.2z"/>
<path class="st57" d="M16.3,28.8c0.4-0.7,3.3-1.2,3.8-1.9l0.5-0.9c-0.5,0.8-3.2,1-3.7,1.9L16.3,28.8z"/>
<linearGradient id="SVGID_69_" gradientUnits="userSpaceOnUse" x1="-3254.0642" y1="-714.3948" x2="-3251.4392" y2="-714.3948" gradientTransform="matrix(-0.9692 0.2461 -0.2461 -0.9692 -3316.6555 147.6177)">
	<stop  offset="0" style="stop-color:#FF616D"/>
	<stop  offset="1" style="stop-color:#FF3B5D"/>
</linearGradient>
<path class="st70" d="M10.2,38.8c-0.1,0.2,0.3,0.6,1.3,1.2c0.9,0.5,1.3,1.1,1.2,1.3c0,0,0.4-0.7,0.6-1C13.3,40,13,39.5,12,39
	c-0.9-0.5-1.4-1-1.3-1.2C10.8,37.8,10.3,38.6,10.2,38.8z"/>
<linearGradient id="SVGID_70_" gradientUnits="userSpaceOnUse" x1="-3255.4954" y1="-712.5751" x2="-3253.4382" y2="-712.5751" gradientTransform="matrix(-0.9692 0.2461 -0.2461 -0.9692 -3316.6555 147.6177)">
	<stop  offset="0" style="stop-color:#FF616D"/>
	<stop  offset="1" style="stop-color:#FF3B5D"/>
</linearGradient>
<path class="st71" d="M11.7,36.2c-0.2,0.3,0.1,0.9,0.8,1.7c0.7,0.8,1.2,1.4,1.1,1.5c0,0,0.4-0.7,0.6-1c0.1-0.2-0.4-0.7-1.1-1.5
	c-0.7-0.8-1-1.4-0.8-1.7C12.3,35.2,11.8,36,11.7,36.2z"/>
<linearGradient id="SVGID_71_" gradientUnits="userSpaceOnUse" x1="-3260.6277" y1="-707.2756" x2="-3257.5986" y2="-707.2756" gradientTransform="matrix(-0.9692 0.2461 -0.2461 -0.9692 -3316.6555 147.6177)">
	<stop  offset="0" style="stop-color:#FF616D"/>
	<stop  offset="1" style="stop-color:#FF3B5D"/>
</linearGradient>
<path class="st72" d="M16.3,28.7c-0.7,1.6,0,4-0.9,5.6c0,0,0.4-0.7,0.6-1c1-1.8,0.5-5,0.9-5.6L16.3,28.7z"/>
<linearGradient id="SVGID_72_" gradientUnits="userSpaceOnUse" x1="-4587.5122" y1="90.09" x2="-4582.0859" y2="90.09" gradientTransform="matrix(-1 0 0 -1 -4557.2764 99.89)">
	<stop  offset="0" style="stop-color:#943ADE"/>
	<stop  offset="1" style="stop-color:#531ED9"/>
</linearGradient>
<path class="st73" d="M30,7.6c1.4,1.3-3.7,3.1-4.3,4.9c-0.3-0.2-0.6-0.5-0.8-0.8c-0.8-1.6,3-3.2,4.1-4.5C29.4,7.2,29.7,7.4,30,7.6z"
	/>
<linearGradient id="SVGID_73_" gradientUnits="userSpaceOnUse" x1="-4587.4565" y1="93.2722" x2="-4578.8745" y2="93.2722" gradientTransform="matrix(-1 0 0 -1 -4557.2764 99.89)">
	<stop  offset="0" style="stop-color:#B459FF"/>
	<stop  offset="1" style="stop-color:#7C48FF"/>
</linearGradient>
<path class="st74" d="M21.6,5.4c0,0,0.3,0.6,0.9,0.7c1.7,0.4,5-1.7,6.7-0.1c0.1,0.1,0.1,0.1,0.1,0.2c0,0,0,0,0,0l0.9,1.7
	c0,0-0.7-0.7-1.1-0.7c0,0,0,0,0,0c-2.2-0.5-5.5,1.7-6.5,0.1c0,0,0,0,0,0L21.6,5.4z"/>
<linearGradient id="SVGID_74_" gradientUnits="userSpaceOnUse" x1="-4588.3286" y1="86.7823" x2="-4582.1577" y2="86.7823" gradientTransform="matrix(-1 0 0 -1 -4557.2764 99.89)">
	<stop  offset="0" style="stop-color:#B459FF"/>
	<stop  offset="1" style="stop-color:#7C48FF"/>
</linearGradient>
<path class="st75" d="M24.9,11.6c0,0,0.4,0.7,0.9,0.9c0,0,0,0,0,0c1.6,1,4.4,0.3,4.4,0.3l0.9,1.6c0,0-4,1-5.2-1.1c0,0,0,0,0,0
	L24.9,11.6z"/>
<linearGradient id="SVGID_75_" gradientUnits="userSpaceOnUse" x1="-4563.5347" y1="86.2473" x2="-4560.2788" y2="86.2473" gradientTransform="matrix(-1 0 0 -1 -4557.2764 99.89)">
	<stop  offset="0" style="stop-color:#FF7300"/>
	<stop  offset="1" style="stop-color:#FFB500"/>
</linearGradient>
<path class="st76" d="M3,13.8c0.1-0.2,2.7,0.8,2.9,0.5l0.4-0.8c-0.1,0.2-2.7-0.8-2.8-0.5L3,13.8z"/>
<linearGradient id="SVGID_76_" gradientUnits="userSpaceOnUse" x1="-4562.0015" y1="85.825" x2="-4560.2549" y2="85.825" gradientTransform="matrix(-1 0 0 -1 -4557.2764 99.89)">
	<stop  offset="0" style="stop-color:#FF9D00"/>
	<stop  offset="1" style="stop-color:#FFCB00"/>
</linearGradient>
<path class="st77" d="M3,13.8c-0.1,0.3,0.5,0.9,1.3,1.3l0.4-0.8c-0.8-0.4-1.5-1-1.3-1.3C3.4,13,3.1,13.7,3,13.8z"/>
<linearGradient id="SVGID_77_" gradientUnits="userSpaceOnUse" x1="-4564.2808" y1="87.6893" x2="-4561.0244" y2="87.6893" gradientTransform="matrix(-1 0 0 -1 -4557.2764 99.89)">
	<stop  offset="0" style="stop-color:#FF7300"/>
	<stop  offset="1" style="stop-color:#FFB500"/>
</linearGradient>
<path class="st78" d="M3.7,12.4c0.1-0.2,2.7,0.8,2.9,0.5L7,12.1c-0.1,0.2-2.7-0.8-2.8-0.5L3.7,12.4z"/>
<linearGradient id="SVGID_78_" gradientUnits="userSpaceOnUse" x1="-4565.4697" y1="90.781" x2="-4562.0928" y2="90.781" gradientTransform="matrix(-1 0 0 -1 -4557.2764 99.89)">
	<stop  offset="0" style="stop-color:#FF7300"/>
	<stop  offset="1" style="stop-color:#FFB500"/>
</linearGradient>
<path class="st79" d="M4.8,10.3c0.3-0.5,2.7-1,3-1.6l0.4-0.8c-0.3,0.7-2.6,0.9-3,1.6L4.8,10.3z"/>
<linearGradient id="SVGID_79_" gradientUnits="userSpaceOnUse" x1="-4563.5518" y1="86.953" x2="-4561.0137" y2="86.953" gradientTransform="matrix(-1 0 0 -1 -4557.2764 99.89)">
	<stop  offset="0" style="stop-color:#FF9D00"/>
	<stop  offset="1" style="stop-color:#FFCB00"/>
</linearGradient>
<path class="st80" d="M3.7,12.4c-0.1,0.1,0.3,0.5,1.1,0.9s1.1,0.9,1,1c0,0,0.3-0.6,0.4-0.8c0.1-0.2-0.2-0.6-1-1s-1.2-0.8-1.1-0.9
	C4.2,11.6,3.8,12.2,3.7,12.4z"/>
<linearGradient id="SVGID_80_" gradientUnits="userSpaceOnUse" x1="-4564.3076" y1="88.749" x2="-4562.0884" y2="88.749" gradientTransform="matrix(-1 0 0 -1 -4557.2764 99.89)">
	<stop  offset="0" style="stop-color:#FF9D00"/>
	<stop  offset="1" style="stop-color:#FFCB00"/>
</linearGradient>
<path class="st81" d="M4.8,10.2C4.7,10.5,5,11,5.6,11.6c0.6,0.6,1.1,1.1,1,1.2c0,0,0.3-0.6,0.4-0.8c0.1-0.2-0.4-0.6-1-1.2
	c-0.6-0.6-0.9-1.2-0.8-1.4C5.3,9.4,4.9,10.1,4.8,10.2z"/>
<linearGradient id="SVGID_81_" gradientUnits="userSpaceOnUse" x1="-4570.9995" y1="95.3465" x2="-4569.5562" y2="95.3465" gradientTransform="matrix(-1 0 0 -1 -4557.2764 99.89)">
	<stop  offset="0" style="stop-color:#2657E3"/>
	<stop  offset="1" style="stop-color:#019BB8"/>
</linearGradient>
<path class="st82" d="M12.8,5.7c-0.1-0.1,1.1-1.7,0.9-1.9l-0.5-0.5c0.1,0.1-1.1,1.7-1,1.9L12.8,5.7z"/>
<linearGradient id="SVGID_82_" gradientUnits="userSpaceOnUse" x1="-4570.104" y1="96.2265" x2="-4568.5142" y2="96.2265" gradientTransform="matrix(-1 0 0 -1 -4557.2764 99.89)">
	<stop  offset="0" style="stop-color:#2657E3"/>
	<stop  offset="1" style="stop-color:#019BB8"/>
</linearGradient>
<path class="st83" d="M11.7,5.1C11.6,5,13,2.9,12.8,2.7l-0.5-0.5c0.1,0.1-1.3,2.2-1.1,2.4L11.7,5.1z"/>
<linearGradient id="SVGID_83_" gradientUnits="userSpaceOnUse" x1="-4570.9766" y1="95.6658" x2="-4568.5288" y2="95.6658" gradientTransform="matrix(-1 0 0 -1 -4557.2764 99.89)">
	<stop  offset="0" style="stop-color:#4D79F9"/>
	<stop  offset="1" style="stop-color:#01B5D6"/>
</linearGradient>
<path class="st84" d="M11.7,5.1c0.1,0.1,0.5-0.2,0.9-0.7s1-0.7,1-0.6c0,0-0.4-0.4-0.5-0.5c-0.1-0.1-0.6,0.1-1,0.6
	c-0.5,0.5-0.9,0.8-0.9,0.7C11.3,4.6,11.6,5,11.7,5.1z"/>
<linearGradient id="SVGID_84_" gradientUnits="userSpaceOnUse" x1="-4570.0986" y1="97.1067" x2="-4567.9824" y2="97.1067" gradientTransform="matrix(-1 0 0 -1 -4557.2764 99.89)">
	<stop  offset="0" style="stop-color:#4D79F9"/>
	<stop  offset="1" style="stop-color:#01B5D6"/>
</linearGradient>
<path class="st85" d="M11.2,3.4c0.4-0.5,1.4-1,1.7-0.7c0,0-0.4-0.4-0.5-0.5c-0.3-0.3-1.2,0.2-1.7,0.7L11.2,3.4z"/>
<path class="st86" d="M48.2,15.8c0-0.3,3.3-0.3,3.3-0.7l0.1-1.1c0,0.2-3.3,0.3-3.3,0.7L48.2,15.8z"/>
<path class="st56" d="M48.2,15.9c0,0.4,0.9,0.8,2,0.9l0.1-1.1c-1-0.1-2-0.5-2-0.9C48.4,14.8,48.3,15.7,48.2,15.9z"/>
<path class="st86" d="M48.5,13.9c0-0.3,3.3-0.3,3.3-0.7l0.1-1.1c0,0.2-3.3,0.3-3.3,0.7L48.5,13.9z"/>
<path class="st86" d="M48.8,11.1c0.1-0.7,2.5-2.3,2.6-3.1l0.1-1.1C51.4,7.8,49,9,48.9,10L48.8,11.1z"/>
<path class="st56" d="M48.5,13.9c0,0.2,0.5,0.4,1.6,0.6s1.5,0.5,1.5,0.7c0,0,0.1-0.8,0.1-1.1c0-0.2-0.5-0.6-1.5-0.7
	s-1.6-0.4-1.6-0.5C48.6,12.8,48.5,13.7,48.5,13.9z"/>
<path class="st56" d="M48.8,11c0,0.3,0.4,0.8,1.4,1.2c1,0.4,1.6,0.8,1.6,0.9c0,0,0.1-0.8,0.1-1.1c0-0.2-0.6-0.5-1.6-0.9
	c-1-0.4-1.4-0.9-1.4-1.2C48.9,9.9,48.8,10.8,48.8,11z"/>
<path class="st87" d="M96.8,19.3c0.1-0.2,2.6,0.3,2.7-0.1l0.3-0.8c-0.1,0.2-2.6-0.3-2.7,0L96.8,19.3z"/>
<linearGradient id="SVGID_85_" gradientUnits="userSpaceOnUse" x1="-4655.7427" y1="80.5215" x2="-4654.0596" y2="80.5215" gradientTransform="matrix(-1 0 0 -1 -4557.2764 99.89)">
	<stop  offset="0" style="stop-color:#B459FF"/>
	<stop  offset="1" style="stop-color:#7C48FF"/>
</linearGradient>
<path class="st88" d="M96.8,19.3c-0.1,0.3,0.6,0.7,1.4,1l0.3-0.8c-0.8-0.3-1.5-0.7-1.4-1C97.1,18.5,96.8,19.1,96.8,19.3z"/>
<path class="st87" d="M97.3,17.8c0.1-0.2,2.6,0.3,2.7-0.1l0.3-0.8c-0.1,0.2-2.6-0.3-2.7,0L97.3,17.8z"/>
<path class="st87" d="M98,15.6c0.2-0.6,2.3-1.4,2.5-2.1l0.3-0.8c-0.2,0.7-2.3,1.3-2.5,2L98,15.6z"/>
<path class="st87" d="M100.2,9.2c0.2-0.6,2.3-1.4,2.5-2.1l0.3-0.8c-0.2,0.7-2.3,1.3-2.5,2L100.2,9.2z"/>
<linearGradient id="SVGID_86_" gradientUnits="userSpaceOnUse" x1="-4657.0557" y1="81.7965" x2="-4654.5503" y2="81.7965" gradientTransform="matrix(-1 0 0 -1 -4557.2764 99.89)">
	<stop  offset="0" style="stop-color:#B459FF"/>
	<stop  offset="1" style="stop-color:#7C48FF"/>
</linearGradient>
<path class="st89" d="M97.3,17.8c0,0.1,0.3,0.4,1.1,0.7c0.8,0.3,1.1,0.6,1.1,0.8c0,0,0.2-0.6,0.3-0.8c0.1-0.2-0.3-0.5-1.1-0.8
	c-0.8-0.3-1.2-0.5-1.1-0.7C97.5,17,97.3,17.6,97.3,17.8z"/>
<linearGradient id="SVGID_87_" gradientUnits="userSpaceOnUse" x1="-4657.5483" y1="83.664" x2="-4655.2554" y2="83.664" gradientTransform="matrix(-1 0 0 -1 -4557.2764 99.89)">
	<stop  offset="0" style="stop-color:#B459FF"/>
	<stop  offset="1" style="stop-color:#7C48FF"/>
</linearGradient>
<path class="st90" d="M98,15.6c-0.1,0.3,0.2,0.7,0.9,1.2c0.7,0.5,1.1,0.8,1.1,1c0,0,0.2-0.6,0.3-0.8c0.1-0.2-0.4-0.5-1.1-1
	c-0.7-0.5-1-0.9-0.9-1.2C98.3,14.8,98,15.4,98,15.6z"/>
<linearGradient id="SVGID_88_" gradientUnits="userSpaceOnUse" x1="-4658.1875" y1="88.913" x2="-4657.4946" y2="88.913" gradientTransform="matrix(-1 0 0 -1 -4557.2764 99.89)">
	<stop  offset="0" style="stop-color:#B459FF"/>
	<stop  offset="1" style="stop-color:#7C48FF"/>
</linearGradient>
<path class="st91" d="M100.3,9.2c-0.3,1.3,0.7,3,0.2,4.4c0,0,0.2-0.6,0.3-0.8c0.5-1.5-0.4-3.9-0.2-4.4L100.3,9.2z"/>
<g>
	
		<linearGradient id="SVGID_89_" gradientUnits="userSpaceOnUse" x1="-4625.2588" y1="75.8135" x2="-4622.6514" y2="75.8135" gradientTransform="matrix(-1 0 0 -1 -4557.2764 99.89)">
		<stop  offset="0" style="stop-color:#FF7300"/>
		<stop  offset="1" style="stop-color:#FFB500"/>
	</linearGradient>
	<path class="st92" d="M68,24.7c-0.1-0.2-2.3,0-2.4-0.4l-0.2-0.8c0,0.2,2.3,0,2.4,0.3L68,24.7z"/>
	
		<linearGradient id="SVGID_90_" gradientUnits="userSpaceOnUse" x1="-4625.2656" y1="75.175" x2="-4623.5615" y2="75.175" gradientTransform="matrix(-1 0 0 -1 -4557.2764 99.89)">
		<stop  offset="0" style="stop-color:#FF9D00"/>
		<stop  offset="1" style="stop-color:#FFCB00"/>
	</linearGradient>
	<path class="st93" d="M68,24.7c0.1,0.3-0.7,0.7-1.5,0.9l-0.2-0.8c0.8-0.2,1.6-0.6,1.5-0.9C67.8,23.8,67.9,24.5,68,24.7z"/>
	
		<linearGradient id="SVGID_91_" gradientUnits="userSpaceOnUse" x1="-4625.1226" y1="77.821" x2="-4621.9634" y2="77.821" gradientTransform="matrix(-1 0 0 -1 -4557.2764 99.89)">
		<stop  offset="0" style="stop-color:#FF7300"/>
		<stop  offset="1" style="stop-color:#FFB500"/>
	</linearGradient>
	<path class="st94" d="M67.8,23.1c-0.1-0.4-2.8-0.7-2.9-1.2l-0.2-0.8c0,0.2,2.8,0.6,2.9,1.2L67.8,23.1z"/>
	
		<linearGradient id="SVGID_92_" gradientUnits="userSpaceOnUse" x1="-4624.3145" y1="82.763" x2="-4621.0498" y2="82.763" gradientTransform="matrix(-1 0 0 -1 -4557.2764 99.89)">
		<stop  offset="0" style="stop-color:#FF7300"/>
		<stop  offset="1" style="stop-color:#FFB500"/>
	</linearGradient>
	<path class="st95" d="M67,19.8c-0.1-0.6-2.6-2.4-3-4.5l-0.2-0.8c0.2,0.7,2.6,2.7,3,4.5L67,19.8z"/>
	
		<linearGradient id="SVGID_93_" gradientUnits="userSpaceOnUse" x1="-4621.2578" y1="93.4945" x2="-4618.0688" y2="93.4945" gradientTransform="matrix(-1 0 0 -1 -4557.2764 99.89)">
		<stop  offset="0" style="stop-color:#FF7300"/>
		<stop  offset="1" style="stop-color:#FFB500"/>
	</linearGradient>
	<path class="st96" d="M64,8.9c-0.2-0.6-2.4-2.2-3-4.2l-0.2-0.8c0.3,1.1,2.6,2.8,3,4.2L64,8.9z"/>
	
		<linearGradient id="SVGID_94_" gradientUnits="userSpaceOnUse" x1="-4625.1128" y1="76.6225" x2="-4622.6509" y2="76.6225" gradientTransform="matrix(-1 0 0 -1 -4557.2764 99.89)">
		<stop  offset="0" style="stop-color:#FF9D00"/>
		<stop  offset="1" style="stop-color:#FFCB00"/>
	</linearGradient>
	<path class="st97" d="M67.8,23c0,0.1-0.4,0.4-1.1,0.6c-0.8,0.2-1.1,0.6-1.1,0.7c0,0-0.2-0.6-0.2-0.8c0-0.2,0.3-0.5,1.1-0.7
		s1.2-0.4,1.1-0.6C67.6,22.2,67.8,22.9,67.8,23z"/>
	
		<linearGradient id="SVGID_95_" gradientUnits="userSpaceOnUse" x1="-4624.3345" y1="79.4485" x2="-4621.9536" y2="79.4485" gradientTransform="matrix(-1 0 0 -1 -4557.2764 99.89)">
		<stop  offset="0" style="stop-color:#FF9D00"/>
		<stop  offset="1" style="stop-color:#FFCB00"/>
	</linearGradient>
	<path class="st98" d="M67,19.8c0.1,0.3-0.3,0.7-1,1.1c-0.7,0.5-1.2,0.8-1.2,0.9c0,0-0.2-0.6-0.2-0.8c0-0.2,0.4-0.5,1.2-0.9
		c0.7-0.4,1-0.9,1-1.1C66.8,19,67,19.7,67,19.8z"/>
	
		<linearGradient id="SVGID_96_" gradientUnits="userSpaceOnUse" x1="-4621.4028" y1="88.1845" x2="-4620.6875" y2="88.1845" gradientTransform="matrix(-1 0 0 -1 -4557.2764 99.89)">
		<stop  offset="0" style="stop-color:#FF9D00"/>
		<stop  offset="1" style="stop-color:#FFCB00"/>
	</linearGradient>
	<path class="st99" d="M64,8.9c0.5,1.9-0.3,5.1,0.1,6.5c0,0-0.2-0.6-0.2-0.8c-0.9-3.5,0.1-6-0.1-6.5L64,8.9z"/>
</g>
<path class="st57" d="M14.8,14.7c-0.5-0.2,0.7-1.3,0.7-1.8c0.1,0,0.2,0.1,0.3,0.1c0.4,0.3-0.5,1.2-0.6,1.7
	C15,14.7,14.9,14.7,14.8,14.7z"/>
<linearGradient id="SVGID_97_" gradientUnits="userSpaceOnUse" x1="-4574.6714" y1="85.3977" x2="-4572.0024" y2="85.3977" gradientTransform="matrix(-1 0 0 -1 -4557.2764 99.89)">
	<stop  offset="0" style="stop-color:#FF616D"/>
	<stop  offset="1" style="stop-color:#FF3B5D"/>
</linearGradient>
<path class="st100" d="M17.4,14.4c0,0-0.2-0.1-0.3-0.1c-0.5,0.1-1.2,1-1.9,0.8c0,0,0,0-0.1,0l0,0l-0.4-0.4c0,0,0.3,0.1,0.4,0.1
	c0,0,0,0,0,0c0.7-0.1,1.4-1.1,1.8-0.8l0,0L17.4,14.4z"/>
<linearGradient id="SVGID_98_" gradientUnits="userSpaceOnUse" x1="-4573.0728" y1="87.0237" x2="-4571.0264" y2="87.0237" gradientTransform="matrix(-1 0 0 -1 -4557.2764 99.89)">
	<stop  offset="0" style="stop-color:#FF616D"/>
	<stop  offset="1" style="stop-color:#FF3B5D"/>
</linearGradient>
<path class="st101" d="M15.8,13c0,0-0.2-0.1-0.3-0.2c0,0,0,0,0,0c-0.6-0.1-1.3,0.4-1.3,0.4l-0.4-0.4c0,0,1-0.7,1.6-0.3l0,0L15.8,13z
	"/>
</svg>
