<?xml version="1.0" encoding="iso-8859-1"?>
<!-- Generator: Adobe Illustrator 24.0.1, SVG Export Plug-In . SVG Version: 6.00 Build 0)  -->
<svg version="1.1" id="Layer_1" xmlns="http://www.w3.org/2000/svg" xmlns:xlink="http://www.w3.org/1999/xlink" x="0px" y="0px"
	 viewBox="0 0 1000 1000" style="enable-background:new 0 0 1000 1000;" xml:space="preserve">
<g>
	<path style="fill:#6026D1;" d="M912.219,527.304c20.588-20.62,44.498-39.13,60.346-62.959c18.328-27.558,2.131-55.86-31.086-59.52
		c-21.227-2.339-42.921-0.438-66.574-0.438c-0.803-5.415-2.335-8.663-1.481-11.06c11.753-32.996,3.602-54.544-32.32-65.104
		c-7.788-2.29-16.419-17.202-16.582-26.442c-0.267-15.191,5.263-30.74,9.782-45.706c10.53-34.871-1.322-61.816-33.838-78.455
		c-29.652-15.174-57.493-9.485-84.425,5.623c-24.088,13.512-38.931,8.273-51.574-16.831c-12.315-24.453-28.235-47.349-44.566-69.457
		c-21.057-28.508-51.52-35.215-84.638-28.825c-29.102,5.615-35.86,30.654-42.698,54.686c-1.617,5.683-3.188,11.39-4.493,17.151
		c-14.868,65.619-22.82,71.965-88.366,70.333c-58.781-1.464-85.319,24.836-84.557,83.774c0.127,9.853,1.075,19.797,0.103,29.545
		c-3.599,36.091-31.915,50.64-63.311,32.412c-17.871-10.376-34.534-22.903-52.689-32.705c-31.897-17.22-74.268-13.095-97.044,8.004
		c-23.326,21.608-29.415,57.849-15.935,93.253c9.116,23.942,26.469,37.343,50.671,45.377c25.881,8.592,53.593,16.444,75.284,31.932
		c52.892,37.766,49.517,89.293-5.398,123.752c-15.799,9.914-32.232,19.558-49.594,26.075c-30.784,11.554-41.995,33.683-40.1,64.485
		c2.048,33.296,19.391,54.235,51.595,64.312c32.346,10.121,57.533-4.575,81.53-23.013c21.118-16.226,41.376-16.793,54.375,7.735
		c17.538,33.091,42.195,42.329,78.103,36.185c30.584-5.234,45.611,8.867,51.166,39.242c3.001,16.412,5.298,33.306,11.095,48.791
		c20.6,55.031,77.106,70.725,120.736,31.877c19.436-17.306,35.185-39.802,48.877-62.221c14.4-23.579,28.169-31.284,54.935-17.312
		c48.193,25.157,78.158,12.142,94.389-39.994c8.68-27.878,24.875-34.393,52.794-34.462c36.886-0.091,74.592-4.278,110.241-13.38
		c15.659-3.998,33.306-22.247,38.982-38.011c8.031-22.302-14.26-33.175-31.116-43.97c-22.254-14.252-45.147-27.998-65.288-44.912
		c-18.068-15.173-21.277-35.508-3.592-54.355C880.731,556.97,896.951,542.596,912.219,527.304z"/>
	<path style="fill:#6026D1;" d="M892.205,151.199c23.065-0.585,47.058-29.383,46.262-55.527
		c-0.749-24.596-18.634-41.094-44.083-40.664c-26.843,0.454-51.056,25.056-50.064,50.871
		C845.328,132.083,866.221,151.858,892.205,151.199z"/>
	<path style="fill:#6026D1;" d="M65.912,738.579c-25.62,0.838-46.66,20.803-45.912,43.567c0.633,19.295,21.359,37.318,42.165,36.666
		c21.424-0.671,41.013-18.995,40.951-38.307C103.029,753.059,89.494,737.807,65.912,738.579z"/>
	<path style="fill:#6026D1;" d="M200.211,176.625c4.15-2.353,18.122-5.977,19.058-11.724c1.812-11.13,0.219-27.739-7.022-34.388
		c-14.848-13.633-33.846-23.224-52.22-32.279c-6.446-3.177-19.095-2.996-23.438,1.25c-4.855,4.745-5.843,16.291-4.38,24.103
		C136.044,144.062,174.101,174.886,200.211,176.625z"/>
	<path style="fill:#6026D1;" d="M756.113,873.874c-23.696,0.547-41.453,16.328-41.902,35.528
		c-0.453,19.376,17.995,36.277,39.663,34.554c22.307-1.773,37.051-13.427,37.325-37.262
		C791.48,882.354,774.332,876.009,756.113,873.874z"/>
</g>
<g>
	<path style="fill:#FF1A51;" d="M842.247,619.127c19.488-39.684,21.688-86.263-19.305-111.28
		c-6.837-4.172-10.993-19.268-9.964-28.608c3.499-31.749-5.005-57.19-33.251-73.139c-31.955-18.043-36.146-46.235-37.269-79.561
		c-1.183-35.108-6.639-70.737-15.564-104.738c-9.69-36.914-30.85-67.881-67.886-84.402C548.939,88.3,438.428,99.405,333.837,147.952
		c-94.719,43.966-133.737,133.878-156.523,230.709c-2.097,8.913-1.001,19.158,0.862,28.327
		c11.917,58.663,35.682,111.675,71.733,160.068c14.967,20.09,28.766,44.937,32.109,69.139
		c15.963,115.571,159.659,242.843,312.296,197.633c28.025-13.012,61.362-20.246,83.033-40.169
		c55.108-50.661,105.046-106.952,156.862-161.171C837.718,628.819,839.958,623.789,842.247,619.127z"/>
	<path style="fill:#FF1A51;" d="M866.727,718.412c-30.074-7.158-53.866,7.573-70.027,34.56
		c-8.909,14.877-26.09,26.384-41.918,35.093c-16.287,8.961-30.999,16.562-28.447,37.916c2.661,22.27,18.974,30.752,38.393,31.549
		c12.245,0.502,25.349-2.821,36.936-7.334c18.294-7.126,35.638-16.695,53.384-25.23c32.522-2.077,53.44-23.526,54.576-51.398
		C910.599,749.646,890.755,724.131,866.727,718.412z"/>
	<path style="fill:#FF1A51;" d="M642.309,850.824c-11.268,3.635-19.083,17.968-28.434,27.545
		c-10.258,13.865-9.618,27.002,18.418,32.679c4.895,0.991,9.834,0.515,14.309-1.171c1.189,1.144,2.346,2.258,3.608,3.473
		c2.835-4.698,5.705-8.904,8.417-12.745c0.026-0.036,0.049-0.069,0.075-0.105c1.461-2.068,2.86-4.015,4.198-5.891
		c0.848-1.188,1.659-2.347,2.438-3.47c0.339-0.488,0.688-0.993,1.012-1.471c1.001-1.478,1.952-2.925,2.784-4.316
		c0.001-0.002,0.002-0.003,0.003-0.004c0.807-1.349,1.491-2.656,2.105-3.947c0.183-0.384,0.336-0.766,0.499-1.146
		c0.412-0.956,0.756-1.907,1.038-2.845c0.115-0.382,0.24-0.769,0.332-1.149c0.305-1.267,0.523-2.529,0.547-3.791
		C673.994,855.261,656.906,846.115,642.309,850.824z"/>
</g>
</svg>
