<?xml version="1.0" encoding="iso-8859-1"?>
<!-- Generator: Adobe Illustrator 24.0.1, SVG Export Plug-In . SVG Version: 6.00 Build 0)  -->
<svg version="1.1" id="Layer_1" xmlns="http://www.w3.org/2000/svg" xmlns:xlink="http://www.w3.org/1999/xlink" x="0px" y="0px"
	 viewBox="0 0 1000 1000" style="enable-background:new 0 0 1000 1000;" xml:space="preserve">
<path style="fill:#FF1A51;" d="M579.246,835.317c-17.847,67.003-66.659,84.344-111.327,76.058
	c-49.174-9.122-72.255-50.297-68.101-118.819C252.801,803.553,142.996,746.817,88.41,607.49
	c-44.426-113.394-20.464-220.219,66.09-305.881c93.363-92.4,204.96-105.576,327.025-55.598
	c30.481-73.209,83.645-121.399,163.533-134.888c55.081-9.3,106.628,2.428,153.183,34.398
	c89.506,61.464,129.944,199.872,38.992,314.064c97.301,106.835,73.594,231.213,24.796,299.626
	C813.189,827.682,709.822,887.698,579.246,835.317z"/>
</svg>
