<?xml version="1.0" encoding="utf-8"?>
<!-- Generator: Adobe Illustrator 24.0.1, SVG Export Plug-In . SVG Version: 6.00 Build 0)  -->
<svg version="1.1" id="Layer_1" xmlns="http://www.w3.org/2000/svg" xmlns:xlink="http://www.w3.org/1999/xlink" x="0px" y="0px"
	 viewBox="0 0 1000 1000" style="enable-background:new 0 0 1000 1000;" xml:space="preserve">
<style type="text/css">
	.st0{fill:#FFFFFF;}
</style>
<path class="st0" d="M717.3,710.9c-0.1,0.5,0,1,0.1,1.4c0,0.1,0,0.1,0,0.1c0.1-0.1,0.2-0.2,0.3-0.3
	C717.6,711.7,717.4,711.3,717.3,710.9"/>
<path class="st0" d="M446.8,783.2c-4.1-8.2-11.2-14.6-18.9-19.4c-28.8-17.9-64.9-17.5-96.4-28.4c-20.5-7.1-40.3-17.1-56.4-31.6
	c-9.5-8.5-17.6-18.5-27-27.2c-12.3-11.5-29.4-20.3-46.4-20.3c-8,0-16,2-23.5,6.6c-7,4.4-11.5,10.3-14.1,17.1
	c-7.1,18.2-1.1,42.7,5.6,59.8c16.4,41.7,49.2,76.4,88.7,97.4c27.5,14.6,62.1,24.2,95.8,24.2c21.9,0,43.5-4.1,62.3-13.5
	c11.8-5.9,22.5-14.8,28.7-26.5C451.4,809.7,452.7,795,446.8,783.2 M354.2,849.8c-30.1,0-63.1-8.3-90.4-22.9
	c-21.1-11.3-39.9-26.5-54.9-44.3c15.1-5.1,114.4-34,195.6,58.1C389.8,846.7,372.9,849.8,354.2,849.8"/>
<g>
	<path class="st0" d="M351.7,607.3c-30.1,0-54.5,24.4-54.5,54.5c0,30.1,24.4,54.6,54.5,54.6s54.5-24.4,54.5-54.6
		C406.2,631.7,381.8,607.3,351.7,607.3z M383.7,679.8c-1.2,1.2-2.8,1.9-4.3,1.9c-1.5,0-2.9-0.5-4.1-1.6c-2.4-2.3-2.5-6.1-0.2-8.5
		c3.3-3.6,3.7-13.1,3.4-16.7c-0.6-6.7-7-13-9.4-14.9c-2.6-2-3.1-5.8-1.2-8.4c2-2.6,5.7-3.2,8.4-1.2c0.5,0.4,13,9.9,14.2,23.4
		C390.9,661,389.5,673.7,383.7,679.8z"/>
	<path class="st0" d="M889.1,560.1c-9.2-29.4-27.9-49.2-59.4-55c-6-1.1-12-2.4-17.9-3.7c-1.8-0.4-3.5-0.7-5.3-1.1
		c-36.5-7-73.4-12.7-109.6-21.3c-57.2-13.5-110.2-37.7-162-65.2c-1-0.5-1.9-1-2.8-1.5c-58.9-31.5-113.4-68.8-160.3-116.6
		c-10.2-10.4-20.2-21-30.1-31.6c-15.8-16.9-31.5-33.9-47.7-50.5c-1-1.1-2.1-2.2-3.1-3.3c-10-10.1-21.2-20.1-33.7-26.5
		c-37.1-19.2-72.1-9.4-104.2,12.7c-24.5,16.9-37.4,41.7-36.2,71.6c0.7,15.8,4.2,32,9.7,46.8c13.7,36.6,39.6,64.4,68.3,90
		c0.2,0.2,0.4,0.3,0.6,0.4c-9.5,12.8-18.5,29-23.6,48.9c-7.1,27.2-7.2,61.4,7.6,103.2c-2.3,2.9-8.2,8.3-10.9,10.8
		c-3,2.8-4.8,4.4-5.8,5.6c-27,32.1-44.9,66.7-52.9,101.4c-5.6,24.3-6.4,48.6-2.2,72.2c6.5,35.9,24.9,70.5,53,100
		c55.3,58,139.7,90.8,226.4,90.8c10.7,0,21.4-0.4,32.1-1.4c37.5-3.7,74.9-15.1,108.8-31.5c23.4-11.3,45.9-25.2,65.3-42.5
		c20.4-18.3,38.2-39.4,53.1-62.3c3.6-5.5,7.1-11.1,10.3-16.9c3.2-5.8,6.3-11.6,9.2-17.6c0.2-0.3,0.3-0.7,0.5-1.1
		c13.6,4.3,29.5,0.5,39.8-9.4c10.3-10,14.6-25.7,10.8-39.5c-8-22-28.8-29.6-28.8-29.6c-8.6-4.4-18.4-6.4-28-5.8
		c-5.2,0.3-11.8,3-11.4,8.2c0.5,6.3,9.5,6.6,15.8,6.2c13.8-0.8,28.4,5.3,35.4,17.2c7,11.9,4.4,29.3-7.3,36.7
		c-13.8,8.8-32.8,0.9-43.5-11.4c-4.9-5.6-14.6-12.1-18.1-5.5c-1.9,3.5,0.5,7.7,3.1,10.8c5.7,6.8,12.7,12.7,20.4,17.1
		c-2.4,4.9-5.1,9.7-7.8,14.5c-5.9,10.2-12.4,20-19.4,29.5c-7.1,9.4-14.7,18.5-22.7,27c-8.1,8.5-16.7,16.7-25.7,24.3
		c-9,7.6-18.4,14.7-28.3,21.2c-9.8,6.5-20,12.5-30.5,17.9c-1.7,0.9-3.4,1.7-5.2,2.6c-11.9,6-24.4,11.2-37.2,15.2
		c-14.2,4.4-28.8,6.8-43.4,9c-12.3,1.8-24.7,2.9-37.1,3.3c-12.3,0.4-24.7,0.1-37-0.9c-12.2-1-24.3-2.7-36.3-5
		c-11.8-2.3-23.6-5.3-35.1-8.9c-11.3-3.6-22.5-7.8-33.4-12.6c-10.7-4.8-21.1-10.2-31.2-16.3c-9.9-6-19.4-12.6-28.5-19.8
		c-8.9-7-17.3-14.7-25.2-22.9c-26.3-27.5-43.3-59.7-49.4-93c-3.2-17.5-3.2-34.4-1-50.3c6.7-49.2,34.2-89.4,53.1-111.9
		c0.5-0.7,2.8-2.7,4.6-4.4c11.7-10.8,15.6-15.2,15.8-20.1c0-1.4,0.1-2.8,0.1-4.1c1-25.7,7.2-49.2,15.7-69.7
		c-1.4,10.5-2.2,21-2.5,31.6c-0.2,6.2,1,12.2,3.6,17.9c4.6,10,11.8,18,20,25.2c13.9,12.2,30,20.5,47.3,26.7
		c16.8,6,33.8,6.2,50.5,0.1c19.2-7,36.2-17.5,49.9-33c3.9-4.4,8.8-8.1,13.3-11.9c2.7-2.2,6-2.4,9.2-0.9c3.6,1.7,7.1,3.8,10.7,5.6
		c3.4,1.7,5.2,4.5,6,8c1.3,5.7,1,11.4-0.1,17.1c-2.2,12.7-3.4,25.4-2.4,38.3c1,13.1,4,25.7,11.3,36.7c18.5,27.6,44.6,43.6,77.3,48.4
		c16.2,2.4,31.8-0.3,45.9-9c8.5-5.2,15.4-12.5,22.1-19.8c6.5-7.1,13-14.3,19.8-21.3c0.9-1,1.9-1.9,2.9-2.7
		c0.6,24.4,1.4,48.6,0.5,73.5c-0.1,2.6-0.2,5.4,1.1,7.7c2.6,4.5,9.5,4.7,13.8,1.8c4.3-2.9,6.7-8.5,8.8-12.7
		c5.9-11.6,13-23.5,23.4-31.6c5.9-4.6,13.5-7.9,21.1-7.7c6.4,0.2,12.4,2.4,18.2,4.9c14,6.1,28.3,14.7,35.9,28.4
		c1.3,2.3,2.5,4.7,3.3,7.2c0,0.1,0,0.1,0,0.1c6.8-5.7,13.3-11.7,19.3-18.1c1.9,0.3,3.8,0.6,5.7,0.9c18.6,2.6,37.4,3.1,56.5,0.3
		c35.2-5.3,64.4-20.8,81.7-53.4C897.8,616.6,898,588.3,889.1,560.1z M378.2,536.8c-8.6,11.5-20,20-31.5,28.3
		c-6.2,4.5-13,8-20.3,10.5c-16.5,5.5-33.1,5-49.5-0.3c-16.3-5.2-30.8-13.8-43.3-25.4c-13.4-12.5-18.1-28.4-15.8-46.4
		c1.8-14.1,4.5-28,9.8-41.2c2.3-5.6,4.9-11.2,8.1-16.3c5.6-8.7,14.3-11.6,24.3-11.4c9,0.2,17.7,2.3,26,5.4
		c13.6,5.1,27.2,10.6,40.7,15.9c-0.1,0.2-0.2,0.4-0.2,0.6c17.9,8.8,33.8,20.5,47.1,35.4c2.3,2.6,4.4,5.4,6.2,8.3
		C387.8,513.1,387.2,524.9,378.2,536.8z M585.9,625c-5.4,13-13.6,24.3-23.1,34.6c-5.4,5.8-10.9,11.6-17,16.6
		c-12.8,10.4-27.7,13.7-43.8,10.1c-18-4-34.6-11.2-48.9-23.2c-18-15-27.7-34.3-28.3-57.8c-0.3-13.6-0.1-27.1,3.4-40.4
		c2.4-9.3,6.7-17.4,15.7-22c6.2-3.2,12.9-3.9,19.8-3.7c14.7,0.6,28.8,4.1,42.5,9.2c6.1,2.3,12,5.1,16.8,7.1
		c17.9,10.1,34.5,19.7,49.3,32c4.5,3.8,8.5,8.2,11.6,13.3C588.5,608.7,589.4,616.6,585.9,625z M597,523.8l-1.5,65.7
		c-0.5-0.4-1-0.8-1.5-1.1c-9.6-7.7-19.6-14.7-29.8-21.5c-16.9-11.3-35.7-18.4-54.9-24.5c-20.1-6.3-40.4-12-60.4-18.5
		c-20.6-6.7-39.7-16.3-56.7-29.7c-19.7-15.6-39.5-31.1-60.8-44.5c-14.1-8.8-28.4-17.2-44.3-22.2c-11.9-3.7-23.9-7.3-35.9-10.8
		c5.7-6.9,23.9-27.5,33.8-38.5c1.6,0.2,3.1,0.4,4.7,0.6c49.5,7.1,94.9,26.5,139.4,47.9c48.6,23.4,95.8,49.4,141,78.8
		c2.6,1.7,5.3,3.4,7.9,5.2c4.9,3.2,9.8,6.5,14.6,9.9c1.5,1,3,2.1,4.5,3.1L597,523.8z"/>
	<path class="st0" d="M302.6,482.6c-12.8-5.1-26.8-5-39.4,0.4c-12.7,5.4-22.5,15.4-27.6,28.1c-1.4,3.4,0.3,7.2,3.6,8.5
		c3.4,1.4,7.2-0.3,8.5-3.6c7.9-19.6,30.3-29.2,50-21.3c19.6,7.9,29.2,30.3,21.3,50c-1.4,3.4,0.3,7.2,3.6,8.5
		c0.8,0.3,1.6,0.5,2.4,0.5c2.6,0,5-1.6,6.1-4.1C341.7,523.3,328.9,493.2,302.6,482.6z"/>
	<path class="st0" d="M511.6,581.3c-12.8-5.1-26.8-5-39.4,0.4c-12.7,5.4-22.5,15.4-27.6,28.1c-1.4,3.4,0.3,7.2,3.6,8.5
		c3.4,1.4,7.2-0.3,8.5-3.6c3.8-9.5,11.1-17,20.6-21c9.4-4,19.9-4.1,29.4-0.3c9.5,3.8,17,11.1,21,20.6c4,9.4,4.1,19.9,0.3,29.4
		c-1.3,3.4,0.3,7.2,3.6,8.5c0.8,0.3,1.6,0.5,2.4,0.5c2.6,0,5-1.6,6.1-4.1c5.1-12.8,5-26.8-0.4-39.4
		C534.3,596.3,524.3,586.5,511.6,581.3z"/>
	<path class="st0" d="M369.8,265.5c16.3,17.7,33.1,34.9,50.5,51.2c10.4,9.9,21.2,19.3,32.3,28.4c24.3,20,50.2,38,78.6,53.1
		c7.4,4.1,14.6,8.6,22.3,12.2c75.2,36.1,155.8,52.8,237.5,65c2,0.3,5.1-1.3,6.8-3.1c0.3-0.4,0.6-0.8,0.8-1.1
		c10.8-19.8,22.1-39.5,31.5-59.9c34.3-74.4,28.5-145.1-21-211.3c-23.4-31.3-53.1-55.8-85.8-76.8c-48.9-31.4-100.8-55.7-159-63.1
		c-64.1-8.1-121.6,7.2-169.6,52.2c-29.3,27.5-48.4,62.2-67.2,97c-0.1,0.2-0.2,0.5-0.3,0.8c-0.6,2.4,0.6,6.6,2.2,8.6
		C342.7,234.5,355.8,250.4,369.8,265.5z"/>
</g>
</svg>
