<?xml version="1.0" encoding="utf-8"?>
<!-- Generator: Adobe Illustrator 24.0.1, SVG Export Plug-In . SVG Version: 6.00 Build 0)  -->
<svg version="1.1" id="Layer_1" xmlns="http://www.w3.org/2000/svg" xmlns:xlink="http://www.w3.org/1999/xlink" x="0px" y="0px"
	 viewBox="0 0 862 217.1" style="enable-background:new 0 0 862 217.1;" xml:space="preserve">
<style type="text/css">
	.st0{fill:#FFFFFF;}
	.st1{fill:#ED332E;}
</style>
<g>
	<g>
		<path class="st0" d="M154.1,163.7c0,0.1,0,0.3,0,0.4c0,0,0,0,0,0c0,0,0.1,0,0.1-0.1C154.2,163.9,154.1,163.8,154.1,163.7"/>
	</g>
	<g>
		<path class="st0" d="M192.7,141.5c-2,4.8-5.4,9-10,11.9c-4.9,3.1-10.6,4.7-16.4,5c-7.5,0.4-11.5-0.2-13.7,8
			c-1.4,5.5-7.4,9.3-13,7.9c-0.7-0.2-6.4,10.9-7.1,11.9c-19.8,28.4-61.2,38.1-92.6,25.3c-11.5-4.7-22.2-12-29.7-22.1
			c-7.2-9.7-11.3-21.9-10-33.9c1.2-11.1,6.8-21.1,13.2-30c2-2.8,3.2-3.5,2.6-6.9c-0.5-2.6-1.2-5.1-1.6-7.8
			c-0.6-4.2-0.7-8.3,0.4-12.5c1.2-4.6,1.4-8.3,4.2-12.2c0.3-0.4-3.1-3.5-3.4-3.8c-1.9-1.9-3.6-3.7-5.2-5.9C5.8,70,2.2,61.7,2.7,53.4
			c0.5-7.5,3.9-15,9.8-19.8c6.7-5.6,15.8-7.1,24.1-4.4c5.3,1.7,10,4.7,14.7,7.6c2.4,1.5,12.6-17.5,14.3-19.5
			C71.8,9.9,80.4,4.7,89.7,2.2c25.9-7.2,58.4,4.5,77.3,22.7C182.6,40,190.1,62,184,83.2c-1.6,5.7-3.9,11.2-6.4,16.6
			c-1.3,2.9-3.3,4.5-0.9,6.6c2.1,1.7,5.7,2.1,8,3.5c3.3,1.9,5.7,5,7.4,8.4C195.8,125.6,195.8,134.2,192.7,141.5"/>
	</g>
	<g>
		<path class="st1" d="M62.6,133.5c-7,0-12.7,5.7-12.7,12.7c0,7,5.7,12.7,12.7,12.7s12.7-5.7,12.7-12.7
			C75.3,139.2,69.6,133.5,62.6,133.5 M70.1,150.5c-0.3,0.3-0.6,0.4-1,0.4c-0.3,0-0.7-0.1-1-0.4c-0.6-0.5-0.6-1.4-0.1-2
			c0.8-0.8,0.9-3,0.8-3.9c-0.1-1.6-1.6-3-2.2-3.5c-0.6-0.5-0.7-1.3-0.3-2c0.5-0.6,1.3-0.7,2-0.3c0.1,0.1,3,2.3,3.3,5.5
			C71.8,146.1,71.4,149.1,70.1,150.5"/>
	</g>
	<g>
		<path d="M84.8,174.6c-1-1.9-2.6-3.4-4.4-4.5c-6.7-4.2-15.2-4.1-22.5-6.6c-4.8-1.7-9.4-4-13.2-7.4c-2.2-2-4.1-4.3-6.3-6.4
			c-2.9-2.7-6.9-4.7-10.8-4.7c-1.9,0-3.7,0.5-5.5,1.5c-1.6,1-2.7,2.4-3.3,4c-1.6,4.3-0.2,10,1.3,14c3.8,9.7,11.5,17.8,20.7,22.7
			c6.4,3.4,14.5,5.7,22.4,5.7c5.1,0,10.1-1,14.6-3.1c2.8-1.4,5.3-3.4,6.7-6.2C85.9,180.8,86.2,177.4,84.8,174.6 M63.2,190.2
			c-7,0-14.7-1.9-21.1-5.3c-4.9-2.6-9.3-6.2-12.8-10.4c3.5-1.2,26.7-7.9,45.7,13.6C71.5,189.5,67.6,190.2,63.2,190.2"/>
	</g>
	<g>
		<path d="M188.1,122.6c-2.1-6.9-6.5-11.5-13.9-12.8c-1.4-0.3-2.8-0.6-4.2-0.9c-0.4-0.1-0.8-0.2-1.2-0.3c-8.5-1.6-17.1-3-25.6-5
			c-13.3-3.2-25.7-8.8-37.8-15.2c-0.2-0.1-0.4-0.2-0.7-0.4C91,80.7,78.2,72,67.3,60.8c-2.4-2.4-4.7-4.9-7-7.4
			c-3.7-3.9-7.4-7.9-11.1-11.8c-0.2-0.3-0.5-0.5-0.7-0.8c-2.3-2.4-4.9-4.7-7.9-6.2c-8.7-4.5-16.8-2.2-24.3,3
			c-5.7,3.9-8.7,9.7-8.4,16.7c0.2,3.7,1,7.5,2.3,10.9c3.2,8.5,9.3,15,15.9,21c0,0,0.1,0.1,0.2,0.1c-2.2,3-4.3,6.8-5.5,11.4
			c-1.7,6.4-1.7,14.3,1.8,24.1c-0.5,0.7-1.9,1.9-2.5,2.5c-0.7,0.6-1.1,1-1.4,1.3c-6.3,7.5-10.5,15.6-12.4,23.7
			c-1.3,5.7-1.5,11.3-0.5,16.8c1.5,8.4,5.8,16.5,12.4,23.3c12.9,13.5,32.6,21.2,52.9,21.2c2.5,0,5-0.1,7.5-0.3
			c8.8-0.9,17.5-3.5,25.4-7.3c5.5-2.6,10.7-5.9,15.2-9.9c4.8-4.3,8.9-9.2,12.4-14.5c0.8-1.3,1.7-2.6,2.4-3.9
			c0.8-1.3,1.5-2.7,2.1-4.1c0-0.1,0.1-0.2,0.1-0.2c3.2,1,6.9,0.1,9.3-2.2c2.4-2.3,3.4-6,2.5-9.2c-1.9-5.1-6.7-6.9-6.7-6.9
			c-2-1-4.3-1.5-6.5-1.4c-1.2,0.1-2.7,0.7-2.7,1.9c0.1,1.5,2.2,1.5,3.7,1.5c3.2-0.2,6.6,1.2,8.3,4c1.6,2.8,1,6.8-1.7,8.6
			c-3.2,2.1-7.6,0.2-10.2-2.7c-1.2-1.3-3.4-2.8-4.2-1.3c-0.4,0.8,0.1,1.8,0.7,2.5c1.3,1.6,3,3,4.8,4c-0.6,1.1-1.2,2.3-1.8,3.4
			c-1.4,2.4-2.9,4.7-4.5,6.9c-1.6,2.2-3.4,4.3-5.3,6.3c-1.9,2-3.9,3.9-6,5.7c-2.1,1.8-4.3,3.4-6.6,4.9c-2.3,1.5-4.7,2.9-7.1,4.2
			c-0.4,0.2-0.8,0.4-1.2,0.6c-2.8,1.4-5.7,2.6-8.7,3.5c-3.3,1-6.7,1.6-10.1,2.1c-2.9,0.4-5.8,0.7-8.7,0.8c-2.9,0.1-5.8,0-8.6-0.2
			c-2.8-0.2-5.7-0.6-8.5-1.2c-2.8-0.5-5.5-1.2-8.2-2.1c-2.6-0.8-5.3-1.8-7.8-3c-2.5-1.1-4.9-2.4-7.3-3.8c-2.3-1.4-4.5-2.9-6.6-4.6
			c-2.1-1.6-4-3.4-5.9-5.3c-6.1-6.4-10.1-13.9-11.5-21.7c-0.7-4.1-0.7-8-0.2-11.7c1.6-11.5,8-20.9,12.4-26.1c0.1-0.2,0.6-0.6,1.1-1
			c2.7-2.5,3.7-3.6,3.7-4.7c0-0.3,0-0.6,0-1c0.2-6,1.7-11.5,3.7-16.3c-0.3,2.4-0.5,4.9-0.6,7.4c0,1.5,0.2,2.9,0.8,4.2
			c1.1,2.3,2.8,4.2,4.7,5.9c3.2,2.9,7,4.8,11,6.2c3.9,1.4,7.9,1.4,11.8,0c4.5-1.6,8.4-4.1,11.6-7.7c0.9-1,2-1.9,3.1-2.8
			c0.6-0.5,1.4-0.6,2.1-0.2c0.8,0.4,1.7,0.9,2.5,1.3c0.8,0.4,1.2,1,1.4,1.9c0.3,1.3,0.2,2.7,0,4c-0.5,3-0.8,5.9-0.6,8.9
			c0.2,3.1,0.9,6,2.6,8.6c4.3,6.5,10.4,10.2,18,11.3c3.8,0.6,7.4-0.1,10.7-2.1c2-1.2,3.6-2.9,5.2-4.6c1.5-1.7,3-3.4,4.6-5
			c0.2-0.2,0.4-0.4,0.7-0.6c0.1,5.7,0.3,11.3,0.1,17.1c0,0.6,0,1.3,0.3,1.8c0.6,1.1,2.2,1.1,3.2,0.4c1-0.7,1.6-2,2.1-3
			c1.4-2.7,3-5.5,5.5-7.4c1.4-1.1,3.2-1.9,4.9-1.8c1.5,0.1,2.9,0.6,4.2,1.2c3.3,1.4,6.6,3.4,8.4,6.6c0.3,0.5,0.6,1.1,0.8,1.7
			c0,0,0,0,0,0c1.6-1.3,3.1-2.7,4.5-4.2c0.4,0.1,0.9,0.1,1.3,0.2c4.3,0.6,8.7,0.7,13.2,0.1c8.2-1.2,15-4.9,19.1-12.5
			C190.1,135.7,190.1,129.1,188.1,122.6 M68.8,117.1c-2,2.7-4.7,4.7-7.3,6.6c-1.4,1.1-3,1.9-4.7,2.4c-3.9,1.3-7.7,1.2-11.6-0.1
			c-3.8-1.2-7.2-3.2-10.1-5.9c-3.1-2.9-4.2-6.6-3.7-10.8c0.4-3.3,1-6.5,2.3-9.6c0.5-1.3,1.1-2.6,1.9-3.8c1.3-2,3.3-2.7,5.7-2.7
			c2.1,0,4.1,0.5,6.1,1.3c3.2,1.2,6.3,2.5,9.5,3.7c0,0,0,0.1-0.1,0.1c4.2,2.1,7.9,4.8,11,8.3c0.5,0.6,1,1.3,1.4,1.9
			C71,111.6,70.9,114.3,68.8,117.1 M117.3,137.7c-1.3,3-3.2,5.7-5.4,8.1c-1.3,1.4-2.6,2.7-4,3.9c-3,2.4-6.5,3.2-10.2,2.4
			c-4.2-0.9-8.1-2.6-11.4-5.4c-4.2-3.5-6.5-8-6.6-13.5c-0.1-3.2,0-6.3,0.8-9.4c0.6-2.2,1.6-4.1,3.7-5.1c1.4-0.7,3-0.9,4.6-0.9
			c3.4,0.1,6.7,1,9.9,2.1c1.4,0.5,2.8,1.2,3.9,1.7c4.2,2.4,8.1,4.6,11.5,7.5c1.1,0.9,2,1.9,2.7,3.1
			C117.9,133.9,118.1,135.7,117.3,137.7 M119.2,129.1c-2.2-1.8-4.6-3.4-7-5c-4-2.6-8.3-4.3-12.8-5.7c-4.7-1.5-9.4-2.8-14.1-4.3
			c-4.8-1.6-9.3-3.8-13.2-6.9c-4.6-3.6-9.2-7.3-14.2-10.4c-3.3-2.1-6.6-4-10.3-5.2c-2.8-0.9-5.6-1.7-8.4-2.5c1.3-1.6,5.6-6.4,7.9-9
			c0.4,0,0.7,0.1,1.1,0.1c11.6,1.7,22.1,6.2,32.6,11.2c11.4,5.5,22.4,11.5,32.9,18.4c0.6,0.4,1.2,0.8,1.8,1.2
			c1.1,0.8,2.3,1.5,3.4,2.3c0.3,0.2,0.7,0.5,1,0.7l0,0l-0.4,15.3C119.4,129.3,119.3,129.2,119.2,129.1"/>
	</g>
	<g>
		<path d="M56.4,121.1c-0.2,0-0.4,0-0.6-0.1c-0.8-0.3-1.2-1.2-0.8-2c1.8-4.6-0.4-9.8-5-11.7c-4.6-1.8-9.8,0.4-11.7,5
			c-0.3,0.8-1.2,1.2-2,0.8c-0.8-0.3-1.2-1.2-0.8-2c1.2-3,3.5-5.3,6.4-6.6c3-1.3,6.2-1.3,9.2-0.1c6.1,2.5,9.1,9.5,6.7,15.6
			C57.6,120.7,57,121.1,56.4,121.1"/>
	</g>
	<g>
		<path d="M105.2,144.1c-0.2,0-0.4,0-0.6-0.1c-0.8-0.3-1.2-1.2-0.8-2c0.9-2.2,0.9-4.7-0.1-6.9c-0.9-2.2-2.7-3.9-4.9-4.8
			s-4.7-0.9-6.9,0.1c-2.2,0.9-3.9,2.7-4.8,4.9c-0.3,0.8-1.2,1.2-2,0.8c-0.8-0.3-1.2-1.2-0.8-2c1.2-3,3.5-5.3,6.4-6.6
			c3-1.3,6.2-1.3,9.2-0.1c3,1.2,5.3,3.5,6.6,6.4c1.3,3,1.3,6.2,0.1,9.2C106.4,143.7,105.8,144.1,105.2,144.1"/>
	</g>
	<g>
		<path d="M174.3,87.8c-2.2,4.8-4.8,9.4-7.4,14c-0.1,0.1-0.1,0.2-0.2,0.3c-0.4,0.4-1.1,0.8-1.6,0.7c-19.1-2.9-37.9-6.8-55.4-15.2
			c-1.8-0.9-3.5-1.9-5.2-2.9c-6.6-3.5-12.7-7.7-18.3-12.4c-2.6-2.1-5.1-4.3-7.5-6.6c-4.1-3.8-8-7.8-11.8-12
			c-3.3-3.5-6.3-7.2-9.4-10.9c-0.4-0.5-0.7-1.4-0.5-2c0-0.1,0-0.1,0.1-0.2c4.4-8.1,8.8-16.2,15.7-22.6C83.9,7.5,97.3,3.9,112.3,5.8
			c13.6,1.7,25.7,7.4,37.1,14.7c7.6,4.9,14.6,10.6,20,17.9C181,53.9,182.3,70.4,174.3,87.8"/>
	</g>
	<g>
		<g>
			<g>
				<g>
					<path class="st0" d="M295.7,70.5c0.3,9-0.3,17.5-1.9,25.5c-8.1,0-15.5,0.5-22.3,1.3c-0.8,16.6-1.1,40.5-0.8,71.8
						c-8.3,1.2-16.4,1.9-24.5,2.1l1.8-72.9c-6.9,0.3-14.7,1-23.2,2.3c-1-5.7-1.1-14.9-0.6-27.6C248,72.9,271.8,72,295.7,70.5z"/>
				</g>
				<g>
					<path class="st0" d="M241,176.4l1.8-72.8c-5.3,0.4-11.1,1-17.2,2l-5,0.7l-0.8-5c-1-6.1-1.2-15.5-0.6-28.7l0.2-4.8l4.8,0
						c23.5-0.1,47.4-0.9,71.1-2.5l5.2-0.3l0.2,5.3c0.3,9.3-0.3,18.3-2,26.7l-0.8,4.1l-4.2,0c-6.2,0-12,0.3-17.4,0.8
						c-0.7,16.2-0.9,38.7-0.6,67.1l0,4.5l-4.4,0.6c-8.4,1.2-16.8,1.9-25.1,2.1L241,176.4z M253.3,92.9l-1.8,72.9
						c4.7-0.2,9.4-0.7,14.1-1.2c-0.2-29.1,0.1-51.8,0.9-67.6l0.2-4.3l4.3-0.5c5.7-0.7,11.9-1.1,18.6-1.3c0.7-4.8,1.1-9.9,1.2-15.1
						c-20.5,1.2-41.2,2-61.5,2.1c-0.2,6.8-0.2,12.4,0.1,16.7c6.7-0.9,12.9-1.4,18.6-1.6L253.3,92.9z"/>
				</g>
			</g>
			<g>
				<g>
					<path class="st0" d="M324.9,69.4c13,6.9,14.7,15.5,5.1,25.9c-6.3,2.9-12.5,4-18.6,3.2c-3.4-0.6-6.6-2.6-9.6-6.2
						c-1.6-2-2.2-5-1.9-8.7c0.9-7.3,4.7-11.7,11.6-13.4C315.3,69.2,319.8,69,324.9,69.4z M334.2,104.6c-2.1,23.2-4.2,44.8-6.3,64.7
						c-6.2,1.5-11.7,2.2-16.5,2.2c-4.8,0-7.3,0-7.6-0.1c-1.6-14.4-2.5-36.3-2.8-65.8C307.4,103.8,318.5,103.4,334.2,104.6z"/>
				</g>
				<g>
					<path class="st0" d="M309.3,176.7c-5.7,0-6-0.1-6.7-0.3l-3.3-0.9l-0.4-3.5c-1.6-14.4-2.6-36.7-2.9-66.3l0-3.8l3.6-1.1
						c1-0.3,2-0.6,3.2-0.8c-1.7-1.2-3.3-2.7-4.8-4.6l-0.1-0.2c-2.4-3.1-3.4-7.2-2.9-12.3l0-0.2c1.1-9.5,6.5-15.6,15.4-17.7
						c4.3-1,9.4-1.3,15-0.9l1,0.1l0.9,0.5c8.1,4.3,12.7,9.5,13.7,15.6c1,5.9-1.4,12-7.2,18.3l-0.6,0.7c0.5,0,0.9,0.1,1.4,0.1
						l5.2,0.4l-0.5,5.2c-2.1,23.1-4.2,44.9-6.3,64.8l-0.4,3.6l-3.5,0.8c-6.5,1.6-12.5,2.3-17.6,2.4
						C310.7,176.7,309.9,176.7,309.3,176.7z M308.5,166.5c0.8,0,1.8,0,2.9,0c3.5,0,7.4-0.5,11.8-1.3c1.8-17.4,3.6-36.1,5.4-55.8
						c-11.2-0.6-18.2-0.2-22.5,0.4C306.5,134.1,307.3,153.1,308.5,166.5z M304.5,166.4L304.5,166.4L304.5,166.4z M312.2,93.4
						c4.8,0.6,9.7-0.2,14.8-2.3c2.2-2.6,4.5-6,4-8.9c-0.5-3.1-4.2-5.9-7.5-7.8c-4.1-0.3-7.8,0-10.8,0.7c-4.7,1.1-7,3.8-7.7,8.9
						c-0.2,2.3,0.1,4,0.8,5C308,91.5,310.2,93,312.2,93.4z"/>
				</g>
			</g>
			<g>
				<g>
					<path class="st0" d="M408,81.5c5.3,7,9.1,15.2,11.5,24.5c1.2,5.7,1.8,11.3,1.7,17c-3.7,34.5-20.1,50.3-49.4,47.6
						c-8.4-1.8-15-7-19.9-15.6c-3.3-6.5-5.3-13.5-5.9-21c-0.6-8.1,0.2-16.5,2.4-25c2.1-6.9,4.2-12.2,6.3-15.8c0.5-1.4,2.3-4.1,5.4-8
						C377.3,66.3,393.2,65.1,408,81.5z M369.9,133.4c1.7,9,5.6,13.6,11.6,13.8c5.3,0.6,9.5-2.2,12.7-8.3c3.5-7.7,4.3-15.5,2.4-23.3
						c-2.6-9.9-6.4-14.8-11.6-14.6c-6.5,0.9-11.2,6.6-14.1,17.2C369.6,123.6,369.2,128.6,369.9,133.4z"/>
				</g>
				<g>
					<path class="st0" d="M377.8,175.9c-2.2,0-4.4-0.1-6.5-0.3l-0.6-0.1c-9.8-2.1-17.6-8.2-23.3-18.1l-0.1-0.2
						c-3.6-7-5.7-14.7-6.4-22.9c-0.6-8.7,0.2-17.7,2.5-26.7l0.1-0.2c2.2-7.1,4.3-12.5,6.5-16.5c0.6-1.5,1.9-3.8,6.1-9l0.2-0.3
						c10.1-11.1,20.3-16.7,30.3-16.7c0,0,0.1,0,0.1,0c8.8,0,17.3,4.5,25.1,13.1l0.3,0.3c5.7,7.5,9.8,16.4,12.4,26.3l0,0.2
						c1.3,6,1.9,12.2,1.8,18.2l0,0.4C421.7,165.9,398.7,175.9,377.8,175.9z M372.5,165.5c26.3,2.3,40.1-11.3,43.5-42.9
						c0.1-5.1-0.4-10.3-1.5-15.5c-2.2-8.5-5.7-16.1-10.5-22.4c-5.8-6.3-11.6-9.6-17.4-9.6c0,0,0,0-0.1,0c-6.9,0-14.5,4.5-22.6,13.2
						c-3.8,4.9-4.5,6.3-4.5,6.4l-0.2,0.4l-0.2,0.4c-1.9,3.3-3.8,8.2-5.8,14.7c-2,7.9-2.8,15.7-2.2,23.2c0.6,6.8,2.3,13.2,5.3,19
						C360.5,159.7,365.8,164,372.5,165.5z M382.8,152.4c-0.6,0-1.1,0-1.7-0.1c-5.9-0.2-13.5-3.6-16.2-18l0-0.2
						c-0.8-5.4-0.4-11.2,1.1-17.2l0-0.1c3.5-12.6,9.7-19.7,18.3-20.9l0.5,0c7.8-0.3,13.4,5.9,16.7,18.4c2.2,9,1.3,18-2.7,26.7
						l-0.1,0.3C394,150.2,387.8,152.4,382.8,152.4z M374.9,132.5c1.8,9.4,5.4,9.5,6.7,9.6l0.4,0c1.3,0.1,4.4,0.5,7.6-5.4
						c3-6.7,3.7-13.2,2-19.9c-1.7-6.4-4-10.5-6.2-10.7c-4.1,0.8-7.3,5.3-9.6,13.4C374.7,124.1,374.4,128.5,374.9,132.5z"/>
				</g>
			</g>
			<g>
				<g>
					<path class="st0" d="M518.6,90.7c4.9,13.6,1.8,23.3-9.4,29c5.2,2.1,9.3,4.8,12.2,8c2.9,4.5,4.2,9.7,3.8,15.7
						c-0.4,5.9-2.7,10.9-7,14.8c-2.1,2.3-4.4,4.1-7,5.5c-5.8,3.3-10.7,5.2-14.8,5.7c-2.9,1.5-9.4,2.4-19.5,2.6c-4,0-9-0.6-15.2-1.9
						c-6.1-1.3-9.2-2-9.1-2.1c-0.4-32.6,0.2-63.3,1.7-92.2c5.6-2.8,14.1-4.7,25.6-5.6C499.9,69.7,512.8,76.5,518.6,90.7z
						 M479.6,113.4c12.8,1,18.9-2.3,18.1-9.8c-0.3-2.9-1.8-4.8-4.4-5.8c-4.9-1.2-9.6-0.8-14.2,1.2C479,104,479.2,108.8,479.6,113.4z
						 M480.5,148.7c15.4,1.8,23-1.7,22.7-10.5c-0.6-3.3-2.8-5.5-6.5-6.3c-5.1-1.3-10.6-0.8-16.5,1.6
						C480.1,139.2,480.2,144.3,480.5,148.7z"/>
				</g>
				<g>
					<path class="st0" d="M476.7,177.2c-4.4,0-9.6-0.6-16.1-2c-3.1-0.6-5.4-1.1-7-1.5c-2.1-0.5-6.5-1.5-6.2-5.8
						c-0.4-32.5,0.2-63.5,1.7-92.3l0.2-3l2.6-1.3c6.2-3.1,15.2-5.1,27.5-6.1l0.3,0c22.3-0.6,36.9,7.3,43.6,23.6l0.1,0.2
						c5.4,14.9,1.6,24.2-4.5,30.1c2.4,1.6,4.5,3.3,6.2,5.3l0.3,0.3l0.2,0.3c3.5,5.4,5.1,11.8,4.6,18.8c-0.5,7.2-3.3,13.2-8.4,18.1
						c-2.4,2.7-5.2,4.8-8.2,6.4c-6,3.4-11.2,5.4-15.8,6.2c-2.6,1.2-7.9,2.5-20.9,2.8C476.9,177.2,476.8,177.2,476.7,177.2z
						 M457.6,164.2c1.2,0.3,2.9,0.6,5.1,1.1c5.7,1.2,10.4,1.8,14.1,1.8c12.4-0.3,16.1-1.5,17.1-2.1l0.8-0.4l0.9-0.1
						c3.4-0.4,7.8-2.2,13-5.1l0.2-0.1c2-1,3.9-2.5,5.6-4.4l0.3-0.3c3.3-3.1,5.1-6.8,5.4-11.5c0.3-4.7-0.6-8.7-2.8-12.2
						c-2.4-2.5-5.8-4.7-10-6.4l-10.3-4.2l9.9-5.1c6-3.1,12.2-8.4,7-22.7c-5-12-16-17.6-33.7-17.1c-9,0.7-16,2-20.9,3.9
						C457.9,105.9,457.4,134.4,457.6,164.2z M487.7,154.3c-2.4,0-5-0.2-7.8-0.5l-4.2-0.5l-0.3-4.2c-0.3-4.6-0.5-9.9-0.3-15.8
						l0.1-3.4l3.2-1.3c6.9-2.7,13.5-3.3,19.7-1.8c5.6,1.3,9.2,5,10.2,10.3l0.1,0.4l0,0.4c0.2,5.9-2.3,9.5-4.4,11.5
						C500.4,152.7,495.1,154.3,487.7,154.3z M485.4,144c7.9,0.4,10.7-1.2,11.6-2c0.3-0.3,1.1-1,1.1-3.2c-0.2-0.8-0.7-1.5-2.6-2
						c-3.2-0.8-6.6-0.7-10.3,0.3C485.2,139.5,485.3,141.8,485.4,144z M483.7,118.7c-1.4,0-2.9-0.1-4.5-0.2l-4.3-0.3l-0.4-4.3
						c-0.4-4.8-0.6-9.8-0.5-14.9l0-3.3l3-1.3c5.6-2.5,11.5-3,17.5-1.5l0.5,0.1c4.5,1.6,7.3,5.2,7.8,10c0.5,5.4-1.5,8.8-3.4,10.7
						C496.1,117,491,118.7,483.7,118.7z M484.2,102.6c0,2,0.1,3.9,0.2,5.8c5.5-0.1,7.3-1.4,7.7-1.8c0.2-0.2,0.7-0.7,0.5-2.5
						c-0.1-1-0.4-1.2-0.9-1.4C489.1,102.1,486.6,102,484.2,102.6z"/>
				</g>
			</g>
			<g>
				<g>
					<path class="st0" d="M585.5,69.8l1.5,8.4l16.6,87.3c-4.3,2.3-12.1,3.6-23.4,3.9c-2.4-10.9-3.7-16.8-3.9-17.8l-1-4.7
						c-2.5-0.6-7.1-0.6-13.7,0c-2.6,10.1-4.6,17.4-5.8,22.2c-8.3,2-17.1,1.1-26.5-2.9c6.6-22.6,10.5-35.7,11.7-39.1
						c1.2-3.5,3.8-12.7,7.8-27.5l6.8-24.1C562.9,70.8,572.9,69,585.5,69.8z M569.1,108c-1.8,9.3-3.3,16.6-4.6,21.9
						c2.8-0.1,5.9-0.2,9.3-0.2C572.3,121.2,570.8,113.9,569.1,108z"/>
				</g>
				<g>
					<path class="st0" d="M547.2,175.1c-6.4,0-13.1-1.5-19.9-4.3l-4.2-1.8l1.3-4.4c6.7-22.9,10.6-35.8,11.8-39.4
						c1.2-3.4,3.8-12.5,7.7-27.2l7.3-26.1l1.7-1c8.1-5,19.2-7.1,32.9-6.3l4,0.2l2.2,12.3l17.2,90.9L606,170
						c-5,2.7-13.4,4.2-25.7,4.5l-4.2,0.1l-0.9-4.1c-2.3-10.8-3.6-16.8-3.9-17.7l-0.3-1.2c-1.3,0-3.1,0-5.5,0.1
						c-2.2,8.2-3.8,14.5-4.8,18.6l-0.8,3l-3,0.7C553.8,174.7,550.5,175.1,547.2,175.1z M535.5,163c5.6,1.8,11,2.4,16.1,1.6
						c1.2-4.6,2.9-11,5-19.1l0.9-3.5l3.6-0.3c7.3-0.6,12.2-0.6,15.2,0.1l3.2,0.7l1.6,7.9c0.2,0.7,0.7,3.2,3,13.7
						c6.5-0.3,10.8-1,13.5-1.8L582,79.1l-0.8-4.4c-8.7-0.1-15.8,1.2-21.2,4l-6.2,22.1c-4.1,15.1-6.7,24.2-7.9,27.8
						C544.8,131.7,541.3,143.3,535.5,163z M557.9,135.3l1.6-6.6c1.3-5.2,2.8-12.5,4.6-21.7l4.1-21l5.8,20.6
						c1.7,6.1,3.4,13.6,4.8,22.3l1,6h-6c-3.4,0-6.4,0.1-9.1,0.2L557.9,135.3z"/>
				</g>
			</g>
			<g>
				<g>
					<path class="st0" d="M675.8,70.5c0.3,9-0.3,17.5-1.9,25.5c-8.1,0-15.5,0.5-22.3,1.3c-0.8,16.6-1.1,40.5-0.8,71.8
						c-8.3,1.2-16.4,1.9-24.5,2.1l1.8-72.9c-6.9,0.3-14.7,1-23.2,2.3c-1-5.7-1.1-14.9-0.6-27.6C628.1,72.9,651.9,72,675.8,70.5z"/>
				</g>
				<g>
					<path class="st0" d="M621.2,176.4l1.8-72.8c-5.3,0.4-11.1,1-17.2,2l-5,0.7l-0.8-5c-1-6.1-1.2-15.5-0.6-28.7l0.2-4.8l4.8,0
						c23.5-0.1,47.4-0.9,71.1-2.5l5.2-0.3l0.2,5.3c0.3,9.3-0.3,18.3-2,26.7l-0.8,4.1l-4.2,0c-6.2,0-12,0.3-17.4,0.8
						c-0.7,16.2-0.9,38.7-0.6,67.1l0,4.5l-4.4,0.6c-8.4,1.2-16.8,1.9-25.1,2.1L621.2,176.4z M633.4,92.9l-1.8,72.9
						c4.7-0.2,9.4-0.7,14.1-1.2c-0.2-29.1,0.1-51.8,0.9-67.6l0.2-4.3l4.3-0.5c5.7-0.7,11.9-1.1,18.6-1.3c0.7-4.8,1.1-9.9,1.2-15.1
						c-20.5,1.2-41.2,2-61.5,2.1c-0.2,6.8-0.2,12.4,0.1,16.7c6.7-0.9,12.9-1.4,18.6-1.6L633.4,92.9z"/>
				</g>
			</g>
			<g>
				<g>
					<path class="st0" d="M711.9,69.8l1.5,8.4l16.6,87.3c-4.3,2.3-12.1,3.6-23.4,3.9c-2.4-10.9-3.7-16.8-3.9-17.8l-1-4.7
						c-2.5-0.6-7.1-0.6-13.7,0c-2.6,10.1-4.6,17.4-5.8,22.2c-8.3,2-17.1,1.1-26.5-2.9c6.6-22.6,10.5-35.7,11.7-39.1
						c1.2-3.5,3.8-12.7,7.8-27.5l6.8-24.1C689.3,70.8,699.2,69,711.9,69.8z M695.4,108c-1.8,9.3-3.3,16.6-4.6,21.9
						c2.8-0.1,5.9-0.2,9.3-0.2C698.7,121.2,697.1,113.9,695.4,108z"/>
				</g>
				<g>
					<path class="st0" d="M673.6,175.1c-6.4,0-13.1-1.5-19.9-4.3l-4.2-1.8l1.3-4.4c6.7-22.9,10.6-35.8,11.8-39.4
						c1.2-3.4,3.8-12.5,7.7-27.2l7.3-26.1l1.7-1c8.1-5,19.2-7.1,32.9-6.3l4,0.2l2.2,12.3l17.2,90.9l-3.3,1.8
						c-5,2.7-13.4,4.2-25.7,4.5l-4.2,0.1l-0.9-4.1c-2.3-10.8-3.6-16.8-3.9-17.7l-0.3-1.2c-1.3,0-3.1,0-5.5,0.1
						c-2.2,8.2-3.8,14.5-4.8,18.6l-0.8,3l-3,0.7C680.2,174.7,676.9,175.1,673.6,175.1z M661.9,163c5.6,1.8,11,2.4,16.1,1.6
						c1.2-4.6,2.9-11,5-19.1l0.9-3.5l3.6-0.3c7.3-0.6,12.2-0.6,15.2,0.1l3.2,0.7l1.6,7.9c0.2,0.7,0.7,3.2,3,13.7
						c6.5-0.3,10.8-1,13.5-1.8l-15.8-83.2l-0.8-4.4c-8.7-0.1-15.8,1.2-21.2,4l-6.2,22.1c-4.1,15.1-6.7,24.2-7.9,27.8
						C671.1,131.7,667.7,143.3,661.9,163z M684.2,135.3l1.6-6.6c1.3-5.2,2.8-12.5,4.6-21.7l4.1-21l5.8,20.6
						c1.7,6.1,3.4,13.6,4.8,22.3l1,6h-6c-3.4,0-6.4,0.1-9.1,0.2L684.2,135.3z"/>
				</g>
			</g>
			<g>
				<g>
					<path class="st0" d="M802.2,70.5c0.3,9-0.3,17.5-1.9,25.5c-8.1,0-15.5,0.5-22.3,1.3c-0.8,16.6-1.1,40.5-0.8,71.8
						c-8.3,1.2-16.4,1.9-24.5,2.1l1.8-72.9c-6.9,0.3-14.7,1-23.2,2.3c-1-5.7-1.1-14.9-0.6-27.6C754.5,72.9,778.3,72,802.2,70.5z"/>
				</g>
				<g>
					<path class="st0" d="M747.5,176.4l1.8-72.8c-5.3,0.4-11.1,1-17.2,2l-5,0.7l-0.8-5c-1-6.1-1.2-15.5-0.6-28.7l0.2-4.8l4.8,0
						c23.5-0.1,47.4-0.9,71.1-2.5l5.2-0.3l0.2,5.3c0.3,9.3-0.3,18.3-2,26.7l-0.8,4.1l-4.2,0c-6.2,0-12,0.3-17.4,0.8
						c-0.7,16.2-0.9,38.7-0.6,67.1l0,4.5l-4.4,0.6c-8.4,1.2-16.8,1.9-25.1,2.1L747.5,176.4z M759.8,92.9l-1.8,72.9
						c4.7-0.2,9.4-0.7,14.1-1.2c-0.2-29.1,0.1-51.8,0.9-67.6l0.2-4.3l4.3-0.5c5.7-0.7,11.9-1.1,18.6-1.3c0.7-4.8,1.1-9.9,1.2-15.1
						c-20.5,1.2-41.2,2-61.5,2.1c-0.2,6.8-0.2,12.4,0.1,16.7c6.7-0.9,12.9-1.4,18.6-1.6L759.8,92.9z"/>
				</g>
			</g>
			<g>
				<g>
					<path class="st0" d="M838.3,69.8l1.5,8.4l16.6,87.3c-4.3,2.3-12.1,3.6-23.4,3.9c-2.4-10.9-3.7-16.8-3.9-17.8l-1-4.7
						c-2.5-0.6-7.1-0.6-13.7,0c-2.6,10.1-4.6,17.4-5.8,22.2c-8.3,2-17.1,1.1-26.5-2.9c6.6-22.6,10.5-35.7,11.7-39.1
						c1.2-3.5,3.8-12.7,7.8-27.5l6.8-24.1C815.6,70.8,825.6,69,838.3,69.8z M821.8,108c-1.8,9.3-3.3,16.6-4.6,21.9
						c2.8-0.1,5.9-0.2,9.3-0.2C825.1,121.2,823.5,113.9,821.8,108z"/>
				</g>
				<g>
					<path class="st0" d="M799.9,175.1c-6.4,0-13.1-1.5-19.9-4.3l-4.2-1.8l1.3-4.4c6.7-22.9,10.6-35.8,11.8-39.4
						c1.2-3.4,3.8-12.5,7.7-27.2L804,72l1.7-1c8.1-5,19.2-7.1,32.9-6.3l4,0.2l2.2,12.3l17.2,90.9l-3.3,1.8c-5,2.7-13.4,4.2-25.7,4.5
						l-4.2,0.1l-0.9-4.1c-2.3-10.8-3.6-16.8-3.9-17.7l-0.3-1.2c-1.3,0-3.1,0-5.5,0.1c-2.2,8.2-3.8,14.5-4.8,18.6l-0.8,3l-3,0.7
						C806.5,174.7,803.3,175.1,799.9,175.1z M788.3,163c5.6,1.8,11,2.4,16.1,1.6c1.2-4.6,2.9-11,5-19.1l0.9-3.5l3.6-0.3
						c7.3-0.6,12.2-0.6,15.2,0.1l3.2,0.7l1.6,7.9c0.2,0.7,0.7,3.2,3,13.7c6.5-0.3,10.8-1,13.5-1.8l-15.8-83.2l-0.8-4.4
						c-8.7-0.1-15.8,1.2-21.2,4l-6.2,22.1c-4.1,15.1-6.7,24.2-7.9,27.8C797.5,131.7,794,143.3,788.3,163z M810.6,135.3l1.6-6.6
						c1.3-5.2,2.8-12.5,4.6-21.7l4.1-21l5.8,20.6c1.7,6.1,3.4,13.6,4.8,22.3l1,6h-6c-3.4,0-6.4,0.1-9.1,0.2L810.6,135.3z"/>
				</g>
			</g>
		</g>
		<g>
			<path d="M295.7,70.5c0.3,9-0.3,17.5-1.9,25.5c-8.1,0-15.5,0.5-22.3,1.3c-0.8,16.6-1.1,40.5-0.8,71.8c-8.3,1.2-16.4,1.9-24.5,2.1
				l1.8-72.9c-6.9,0.3-14.7,1-23.2,2.3c-1-5.7-1.1-14.9-0.6-27.6C248,72.9,271.8,72,295.7,70.5z"/>
			<path d="M324.9,69.4c13,6.9,14.7,15.5,5.1,25.9c-6.3,2.9-12.5,4-18.6,3.2c-3.4-0.6-6.6-2.6-9.6-6.2c-1.6-2-2.2-5-1.9-8.7
				c0.9-7.3,4.7-11.7,11.6-13.4C315.3,69.2,319.8,69,324.9,69.4z M334.2,104.6c-2.1,23.2-4.2,44.8-6.3,64.7
				c-6.2,1.5-11.7,2.2-16.5,2.2c-4.8,0-7.3,0-7.6-0.1c-1.6-14.4-2.5-36.3-2.8-65.8C307.4,103.8,318.5,103.4,334.2,104.6z"/>
			<path d="M408,81.5c5.3,7,9.1,15.2,11.5,24.5c1.2,5.7,1.8,11.3,1.7,17c-3.6,34.5-20.1,50.3-49.4,47.6c-8.4-1.8-15-7-19.9-15.6
				c-3.3-6.5-5.3-13.5-5.9-21c-0.6-8.1,0.2-16.5,2.4-25c2.1-6.9,4.2-12.2,6.3-15.8c0.5-1.4,2.3-4.1,5.4-8
				C377.3,66.3,393.2,65.1,408,81.5z M369.9,133.4c1.7,9,5.6,13.6,11.6,13.8c5.3,0.6,9.5-2.2,12.7-8.3c3.5-7.7,4.3-15.5,2.4-23.3
				c-2.6-9.9-6.4-14.8-11.6-14.6c-6.5,0.9-11.2,6.6-14.1,17.2C369.6,123.6,369.2,128.6,369.9,133.4z"/>
			<path d="M518.6,90.7c4.9,13.6,1.8,23.3-9.4,29c5.2,2.1,9.3,4.8,12.2,8c2.9,4.5,4.2,9.7,3.8,15.7c-0.4,5.9-2.7,10.9-7,14.8
				c-2.1,2.3-4.4,4.1-7,5.5c-5.8,3.3-10.7,5.2-14.8,5.7c-2.9,1.5-9.4,2.4-19.5,2.6c-4,0-9-0.6-15.2-1.9c-6.1-1.3-9.2-2-9.1-2.1
				c-0.4-32.6,0.2-63.3,1.7-92.2c5.6-2.8,14.1-4.7,25.6-5.6C499.9,69.7,512.8,76.5,518.6,90.7z M479.6,113.4
				c12.8,1,18.9-2.3,18.1-9.8c-0.3-2.9-1.8-4.8-4.4-5.8c-4.9-1.2-9.6-0.8-14.2,1.2C479,104,479.2,108.8,479.6,113.4z M480.5,148.7
				c15.4,1.8,23-1.7,22.7-10.5c-0.6-3.3-2.8-5.5-6.5-6.3c-5.1-1.3-10.6-0.8-16.5,1.6C480.1,139.2,480.2,144.3,480.5,148.7z"/>
			<path d="M585.5,69.8l1.5,8.4l16.6,87.3c-4.3,2.3-12.1,3.6-23.4,3.9c-2.4-10.9-3.7-16.8-3.9-17.8l-1-4.7c-2.5-0.6-7.1-0.6-13.7,0
				c-2.6,10.1-4.6,17.5-5.8,22.2c-8.3,2-17.1,1.1-26.5-2.9c6.6-22.6,10.5-35.7,11.7-39.1c1.2-3.5,3.8-12.7,7.8-27.5l6.8-24.1
				C562.9,70.8,572.9,69,585.5,69.8z M569.1,108c-1.8,9.3-3.4,16.6-4.6,21.9c2.8-0.1,5.9-0.2,9.3-0.2
				C572.3,121.2,570.8,113.9,569.1,108z"/>
			<path d="M675.8,70.5c0.3,9-0.3,17.5-1.9,25.5c-8.1,0-15.5,0.5-22.3,1.3c-0.8,16.6-1.1,40.5-0.8,71.8c-8.3,1.2-16.4,1.9-24.5,2.1
				l1.8-72.9c-6.9,0.3-14.7,1-23.2,2.3c-1-5.7-1.1-14.9-0.6-27.6C628.1,72.9,651.9,72,675.8,70.5z"/>
			<path d="M711.9,69.8l1.5,8.4l16.6,87.3c-4.3,2.3-12.1,3.6-23.4,3.9c-2.4-10.9-3.7-16.8-3.9-17.8l-1-4.7c-2.5-0.6-7.1-0.6-13.7,0
				c-2.6,10.1-4.6,17.5-5.8,22.2c-8.3,2-17.1,1.1-26.5-2.9c6.6-22.6,10.5-35.7,11.7-39.1c1.2-3.5,3.8-12.7,7.8-27.5l6.8-24.1
				C689.3,70.8,699.2,69,711.9,69.8z M695.4,108c-1.8,9.3-3.4,16.6-4.6,21.9c2.8-0.1,5.9-0.2,9.3-0.2
				C698.7,121.2,697.1,113.9,695.4,108z"/>
			<path d="M802.2,70.5c0.3,9-0.3,17.5-1.9,25.5c-8.1,0-15.5,0.5-22.3,1.3c-0.8,16.6-1.1,40.5-0.8,71.8c-8.3,1.2-16.4,1.9-24.5,2.1
				l1.8-72.9c-6.9,0.3-14.7,1-23.2,2.3c-1-5.7-1.1-14.9-0.6-27.6C754.5,72.9,778.3,72,802.2,70.5z"/>
			<path d="M838.3,69.8l1.5,8.4l16.6,87.3c-4.3,2.3-12.1,3.6-23.4,3.9c-2.4-10.9-3.7-16.8-3.9-17.8l-1-4.7c-2.5-0.6-7.1-0.6-13.7,0
				c-2.6,10.1-4.6,17.5-5.8,22.2c-8.3,2-17.1,1.1-26.5-2.9c6.6-22.6,10.5-35.7,11.7-39.1c1.2-3.5,3.8-12.7,7.8-27.5l6.8-24.1
				C815.6,70.8,825.6,69,838.3,69.8z M821.8,108c-1.8,9.3-3.4,16.6-4.6,21.9c2.8-0.1,5.9-0.2,9.3-0.2
				C825.1,121.2,823.5,113.9,821.8,108z"/>
		</g>
	</g>
</g>
</svg>
