<?xml version="1.0" encoding="utf-8"?>
<!-- Generator: Adobe Illustrator 24.0.1, SVG Export Plug-In . SVG Version: 6.00 Build 0)  -->
<svg version="1.1" id="Layer_1" xmlns="http://www.w3.org/2000/svg" xmlns:xlink="http://www.w3.org/1999/xlink" x="0px" y="0px"
	 viewBox="0 0 500 500" style="enable-background:new 0 0 500 500;" xml:space="preserve">
<style type="text/css">
	.st0{fill:url(#SVGID_1_);}
	.st1{fill:#FFFFFF;}
</style>
<linearGradient id="SVGID_1_" gradientUnits="userSpaceOnUse" x1="41.0599" y1="509.6186" x2="440.0915" y2="16.2292" gradientTransform="matrix(1 0 0 -1 0 501.276)">
	<stop  offset="5.586592e-03" style="stop-color:#6026D1"/>
	<stop  offset="1" style="stop-color:#FF1A51"/>
</linearGradient>
<path class="st0" d="M380.7,500H119.3C53.7,500,0,446.3,0,380.7V119.3C0,53.7,53.7,0,119.3,0h261.3C446.3,0,500,53.7,500,119.3
	v261.3C500,446.3,446.3,500,380.7,500z"/>
<g>
	<path class="st1" d="M378.1,149.8c-1.2-0.1-2.4-0.1-3.7,0H124.8c-1.6,0-3.2,0.3-4.7,0.7l128.8,128.2L378.1,149.8z"/>
	<path class="st1" d="M391.6,161.5L261.8,290.8c-3.3,3.3-7.9,5.2-12.6,5.2s-9.2-1.9-12.6-5.2L108,162.5c-0.4,1.5-0.6,3-0.6,4.5
		v178.4c0,4.7,1.9,9.3,5.2,12.6c3.3,3.3,7.9,5.2,12.6,5.2h249.6c4.7,0,9.3-1.9,12.6-5.2c3.3-3.3,5.2-7.9,5.2-12.6V166.9
		C392.6,165.1,392.2,163.2,391.6,161.5z M137.4,345.3H125v-12.8l64.8-64.3l12.6,12.6L137.4,345.3z M374.6,345.3h-12.5l-65-64.5
		l12.6-12.6l64.8,64.3L374.6,345.3z"/>
</g>
</svg>
