<?xml version="1.0" encoding="utf-8"?>
<!-- Generator: Adobe Illustrator 24.0.1, SVG Export Plug-In . SVG Version: 6.00 Build 0)  -->
<svg version="1.1" id="Layer_1" xmlns="http://www.w3.org/2000/svg" xmlns:xlink="http://www.w3.org/1999/xlink" x="0px" y="0px"
	 viewBox="0 0 500 500" style="enable-background:new 0 0 500 500;" xml:space="preserve">
<style type="text/css">
	.st0{fill:url(#SVGID_1_);}
	.st1{fill:#FFFFFF;}
</style>
<linearGradient id="SVGID_1_" gradientUnits="userSpaceOnUse" x1="41.0599" y1="509.6186" x2="440.0915" y2="16.2292" gradientTransform="matrix(1 0 0 -1 0 501.276)">
	<stop  offset="5.586592e-03" style="stop-color:#6026D1"/>
	<stop  offset="1" style="stop-color:#FF1A51"/>
</linearGradient>
<path class="st0" d="M380.7,500H119.3C53.7,500,0,446.3,0,380.7V119.3C0,53.7,53.7,0,119.3,0h261.3C446.3,0,500,53.7,500,119.3
	v261.3C500,446.3,446.3,500,380.7,500z"/>
<path class="st1" d="M344,378.8h-25.6c-91.4-1.4-196-118.5-196.7-196.7v-25.6c0-6.9,5.6-13.2,13.2-13.2l52,0.7
	c6.9,0,13.2,6.3,13.2,13.2l1.4,56.8l-32.6,27.7c0,18,72.7,90.7,91.4,91.4l29.7-32.6l54.7,1.4c6.9,0,13.2,6.3,13.2,13.2l-0.7,50.6
	C357.1,373.2,351.5,378.8,344,378.8z"/>
</svg>
