<?xml version="1.0" encoding="utf-8"?>
<!-- Generator: Adobe Illustrator 24.0.1, SVG Export Plug-In . SVG Version: 6.00 Build 0)  -->
<svg version="1.1" id="Layer_1" xmlns="http://www.w3.org/2000/svg" xmlns:xlink="http://www.w3.org/1999/xlink" x="0px" y="0px"
	 viewBox="0 0 500 500" style="enable-background:new 0 0 500 500;" xml:space="preserve">
<style type="text/css">
	.st0{fill:url(#SVGID_1_);}
	.st1{fill:#FFFFFF;}
</style>
<linearGradient id="SVGID_1_" gradientUnits="userSpaceOnUse" x1="41.0599" y1="509.6186" x2="440.0915" y2="16.2292" gradientTransform="matrix(1 0 0 -1 0 501.276)">
	<stop  offset="5.586592e-03" style="stop-color:#6026D1"/>
	<stop  offset="1" style="stop-color:#FF1A51"/>
</linearGradient>
<path class="st0" d="M380.7,500H119.3C53.7,500,0,446.3,0,380.7V119.3C0,53.7,53.7,0,119.3,0h261.3C446.3,0,500,53.7,500,119.3
	v261.3C500,446.3,446.3,500,380.7,500z"/>
<g>
	<path class="st1" d="M253.8,314.1c33.5,13.2,40.3,10.6,47.5,9.9c7.3-0.7,23.4-9.6,26.7-18.8c3.3-9.3,3.3-17.2,2.3-18.8
		s-3.6-2.6-7.6-4.6c-3.9-2-23.4-11.6-27-12.9c-3.6-1.3-6.3-2-8.9,2c-2.6,4-10.2,12.9-12.5,15.5c-2.3,2.6-4.6,3-8.6,1
		s-16.7-6.1-31.8-19.6c-11.8-10.5-19.7-23.4-22-27.4s-0.3-6.1,1.7-8.1c1.7-1.7,3.9-4.6,5.9-6.9c1.9-2.3,2.6-4,3.9-6.6
		c1.3-2.6,0.7-4.9-0.3-6.9s-8.7-21.6-12.2-29.4c-3-6.6-6.1-6.7-8.9-6.8c-2.3-0.1-5-0.1-7.6-0.1c-2.6,0-6.9,0.9-10.5,4.9
		c-3.6,4-13.8,13.5-13.8,33c0,19.5,14.1,38.3,16.1,40.9S213.6,298.1,253.8,314.1z"/>
	<path class="st1" d="M92.4,248.6c0,27.9,7.3,55.1,21.1,79.1l-22.5,82l83.9-22c23.1,12.6,49.1,19.3,75.7,19.3
		c87.2,0,158.2-71,158.4-158.3c0-42.2-16.4-82-46.3-111.9c-29.9-29.9-69.7-46.4-112-46.4C163.4,90.4,92.4,161.4,92.4,248.6z
		 M250.6,117.1c35.2,0.1,68.2,13.7,93,38.5c24.8,24.8,38.5,57.9,38.5,93c0,72.5-59,131.5-131.5,131.5h-0.1c-23.7,0-46.8-6.3-67-18.3
		l-4.8-2.8l-49.8,13.1l13.3-48.5l-3.1-5c-13.2-21-20.1-45.2-20.1-70C119,176.1,178,117.1,250.6,117.1z"/>
</g>
</svg>
