<?xml version="1.0" encoding="utf-8"?>
<!-- Generator: Adobe Illustrator 24.0.1, SVG Export Plug-In . SVG Version: 6.00 Build 0)  -->
<svg version="1.1" id="Layer_1" xmlns="http://www.w3.org/2000/svg" xmlns:xlink="http://www.w3.org/1999/xlink" x="0px" y="0px"
	 viewBox="0 0 500 500" style="enable-background:new 0 0 500 500;" xml:space="preserve">
<style type="text/css">
	.st0{fill:#25D366;}
	.st1{fill:#FFFFFF;}
</style>
<g>
	<polygon class="st0" points="236.7,21.7 85.5,83 20.7,225.1 45.3,354.7 27.5,469.6 135.5,448 236.7,478.7 336.7,453.2 417.4,401.4 
		474.3,320.6 486.8,204.7 420.9,94.4 306,27.3 	"/>
	<g>
		<path class="st1" d="M255.9,350.1c52.3,20.6,63,16.6,74.2,15.5c11.4-1.1,36.6-15,41.7-29.4c5.2-14.5,5.2-26.9,3.6-29.4
			c-1.6-2.5-5.6-4.1-11.9-7.2c-6.1-3.1-36.6-18.1-42.2-20.2c-5.6-2-9.8-3.1-13.9,3.1c-4.1,6.2-15.9,20.2-19.5,24.2
			c-3.6,4.1-7.2,4.7-13.4,1.6c-6.2-3.1-26.1-9.5-49.7-30.6c-18.4-16.4-30.8-36.6-34.4-42.8s-0.5-9.5,2.7-12.7
			c2.7-2.7,6.1-7.2,9.2-10.8c3-3.6,4.1-6.2,6.1-10.3c2-4.1,1.1-7.7-0.5-10.8c-1.6-3.1-13.6-33.7-19.1-45.9
			c-4.7-10.3-9.5-10.5-13.9-10.6c-3.6-0.2-7.8-0.2-11.9-0.2s-10.8,1.4-16.4,7.7c-5.6,6.2-21.6,21.1-21.6,51.6s22,59.8,25.2,63.9
			C153.4,260.9,193.1,325.2,255.9,350.1z"/>
		<path class="st1" d="M3.8,247.7c0,43.6,11.4,86.1,33,123.6L1.6,499.4l131.1-34.4c36.1,19.7,76.7,30.2,118.3,30.2
			c136.2,0,247.2-110.9,247.5-247.3c0-65.9-25.6-128.1-72.3-174.8S317.2,0.6,251.1,0.6C114.7,0.6,3.8,111.5,3.8,247.7z M250.9,42.3
			c55,0.2,106.6,21.4,145.3,60.2c38.7,38.7,60.2,90.5,60.2,145.3c0,113.3-92.2,205.5-205.5,205.5h-0.2c-37,0-73.1-9.8-104.7-28.6
			l-7.5-4.4l-77.8,20.5l20.8-75.8l-4.8-7.8c-20.6-32.8-31.4-70.6-31.4-109.4C45.3,134.5,137.5,42.3,250.9,42.3z"/>
	</g>
</g>
</svg>
